SplineFontDB: 1.0
FontName: DejaVuSansCondensed-Oblique
FullName: DejaVu Sans Condensed Oblique
FamilyName: DejaVu Sans Condensed
Weight: Book
Copyright: Copyright (c) 2003 by Bitstream, Inc. All Rights Reserved.\nCopyright (c) 2006 by Tavmjong Bah. All Rights Reserved.\nDejaVu changes are in public domain\n
Version: 2.9
ItalicAngle: -11
UnderlinePosition: -85
UnderlineWidth: 90
Ascent: 1556
Descent: 492
Order2: 1
NeedsXUIDChange: 1
FSType: 0
PfmFamily: 17
TTFWeight: 400
TTFWidth: 5
LineGap: 0
VLineGap: 0
Panose: 2 11 6 6 3 3 4 11 2 4
OS2TypoAscent: 1556
OS2TypoAOffset: 0
OS2TypoDescent: -492
OS2TypoDOffset: 0
OS2TypoLinegap: 410
OS2WinAscent: 1901
OS2WinAOffset: 0
OS2WinDescent: 483
OS2WinDOffset: 0
HheadAscent: 1901
HheadAOffset: 0
HheadDescent: -483
HheadDOffset: 0
OS2Vendor: 'PfEd'
ScriptLang: 9
 3 cyrl 1 dflt grek 1 dflt latn 1 dflt 
 1 DFLT 1 dflt 
 1 latn 1 dflt 
 1 armn 1 dflt 
 1 latn 1 DNK  
 1 grek 1 dflt 
 1 hebr 1 dflt 
 2 arab 1 dflt hebr 1 dflt 
 1 cyrl 2 MKD  SRB  
ChainSub: class 0 0 'ccmp' 4 4 4 2
  Class: 19 i j uni0268 uni029D
  Class: 181 gravecomb acutecomb uni0302 tildecomb uni0304 uni0305 uni0306 uni0307 uni0308 uni030A uni030B uni030C uni030D uni030E uni030F uni0310 uni0311 uni0312 uni0313 uni0314 uni033D uni033E

StartChar: .notdef
Encoding: 0 -1 0
AltUni: 0
Width: 1106
Flags: W
Fore
91.7998 -362 m 1,0,-1
 91.7998 1444 l 1,1,-1
 1013.4 1444 l 1,2,-1
 1013.4 -362 l 1,3,-1
 91.7998 -362 l 1,0,-1
195.3 -248 m 1,4,-1
 910.8 -248 l 1,5,-1
 910.8 1329 l 1,6,-1
 195.3 1329 l 1,7,-1
 195.3 -248 l 1,4,-1
EndSplineSet
EndChar
StartChar: exclam
Encoding: 33 33 33
Width: 738
Flags: W
Fore
407.7 1493 m 1,0,-1
 589.5 1493 l 1,1,-1
 475.2 838 l 1,2,-1
 394.2 481 l 1,3,-1
 248.4 481 l 1,4,-1
 293.4 838 l 1,5,-1
 407.7 1493 l 1,0,-1
191.7 254 m 1,6,-1
 374.4 254 l 1,7,-1
 330.3 0 l 1,8,-1
 145.8 0 l 1,9,-1
 191.7 254 l 1,6,-1
EndSplineSet
EndChar
StartChar: quotedbl
Encoding: 34 34 34
Width: 847
Flags: W
Fore
330.3 1493 m 1,0,-1
 330.3 938 l 1,1,-1
 177.3 938 l 1,2,-1
 177.3 1493 l 1,3,-1
 330.3 1493 l 1,0,-1
670.5 1493 m 1,4,-1
 670.5 938 l 1,5,-1
 517.5 938 l 1,6,-1
 517.5 1493 l 1,7,-1
 670.5 1493 l 1,4,-1
EndSplineSet
EndChar
StartChar: numbersign
Encoding: 35 35 35
Width: 1544
Flags: W
Fore
807.3 1470 m 1,0,-1
 713.7 1055 l 1,1,-1
 976.5 1055 l 1,2,-1
 1071 1470 l 1,3,-1
 1215 1470 l 1,4,-1
 1122.3 1055 l 1,5,-1
 1424.7 1055 l 1,6,-1
 1389.6 901 l 1,7,-1
 1087.2 901 l 1,8,-1
 1013.4 567 l 1,9,-1
 1319.4 567 l 1,10,-1
 1287 414 l 1,11,-1
 978.3 414 l 1,12,-1
 884.7 0 l 1,13,-1
 740.7 0 l 1,14,-1
 833.4 414 l 1,15,-1
 569.7 414 l 1,16,-1
 477 0 l 1,17,-1
 332.1 0 l 1,18,-1
 425.7 414 l 1,19,-1
 128.7 414 l 1,20,-1
 162 567 l 1,21,-1
 459 567 l 1,22,-1
 534.6 901 l 1,23,-1
 232.2 901 l 1,24,-1
 267.3 1055 l 1,25,-1
 569.7 1055 l 1,26,-1
 661.5 1470 l 1,27,-1
 807.3 1470 l 1,0,-1
942.3 901 m 1,28,-1
 680.4 901 l 1,29,-1
 604.8 567 l 1,30,-1
 868.5 567 l 1,31,-1
 942.3 901 l 1,28,-1
EndSplineSet
EndChar
StartChar: dollar
Encoding: 36 36 36
Width: 1172
Flags: W
Fore
540 145 m 1,0,1
 665.1 151 665.1 151 738 215.5 c 128,-1,2
 810.9 280 810.9 280 810.9 383 c 0,3,4
 810.9 467 810.9 467 765 513 c 128,-1,5
 719.1 559 719.1 559 615.6 578 c 1,6,-1
 540 145 l 1,0,1
630 1180 m 1,7,8
 511.2 1166 511.2 1166 443.7 1102 c 128,-1,9
 376.2 1038 376.2 1038 376.2 938 c 0,10,11
 376.2 868 376.2 868 418.95 828.5 c 128,-1,12
 461.7 789 461.7 789 558.9 770 c 1,13,-1
 630 1180 l 1,7,8
1050.3 1262 m 1,14,-1
 1019.7 1081 l 1,15,16
 942.3 1127 942.3 1127 867.15 1152 c 128,-1,17
 792 1177 792 1177 720.9 1179 c 1,18,-1
 645.3 752 l 1,19,20
 810.9 723 810.9 723 897.75 637 c 128,-1,21
 984.6 551 984.6 551 984.6 416 c 0,22,23
 984.6 241 984.6 241 855.9 126.5 c 128,-1,24
 727.2 12 727.2 12 513.9 0 c 1,25,-1
 460.8 -301 l 1,26,-1
 370.8 -301 l 1,27,-1
 423.9 0 l 1,28,29
 319.5 3 319.5 3 227.7 26.5 c 128,-1,30
 135.9 50 135.9 50 61.2002 92 c 1,31,-1
 91.7998 276 l 1,32,33
 174.6 214 174.6 214 264.6 180 c 128,-1,34
 354.6 146 354.6 146 450 142 c 1,35,-1
 529.2 598 l 1,36,37
 359.1 634 359.1 634 281.7 708.5 c 128,-1,38
 204.3 783 204.3 783 204.3 909 c 0,39,40
 204.3 1075 204.3 1075 328.05 1190 c 128,-1,41
 451.8 1305 451.8 1305 654.3 1323 c 1,42,-1
 696.6 1556 l 1,43,-1
 786.6 1556 l 1,44,-1
 747 1323 l 1,45,46
 828 1320 828 1320 904.95 1304.5 c 128,-1,47
 981.9 1289 981.9 1289 1050.3 1262 c 1,14,-1
EndSplineSet
EndChar
StartChar: percent
Encoding: 37 37 37
Width: 1751
Flags: W
Fore
432.9 707 m 0,0,1
 310.5 707 310.5 707 238.95 795.5 c 128,-1,2
 167.4 884 167.4 884 167.4 1036 c 0,3,4
 167.4 1252 167.4 1252 271.8 1386 c 128,-1,5
 376.2 1520 376.2 1520 543.6 1520 c 0,6,7
 666 1520 666 1520 737.55 1430.5 c 128,-1,8
 809.1 1341 809.1 1341 809.1 1188 c 0,9,10
 809.1 974 809.1 974 704.7 840.5 c 128,-1,11
 600.3 707 600.3 707 432.9 707 c 0,0,1
665.1 1182 m 0,12,13
 665.1 1287 665.1 1287 630 1340 c 128,-1,14
 594.9 1393 594.9 1393 525.6 1393 c 0,15,16
 424.8 1393 424.8 1393 368.1 1296 c 128,-1,17
 311.4 1199 311.4 1199 311.4 1026 c 0,18,19
 311.4 934 311.4 934 347.85 884 c 128,-1,20
 384.3 834 384.3 834 451.8 834 c 0,21,22
 548.1 834 548.1 834 606.6 929 c 128,-1,23
 665.1 1024 665.1 1024 665.1 1182 c 0,12,13
1439.1 446 m 0,24,25
 1439.1 553 1439.1 553 1404.9 606 c 128,-1,26
 1370.7 659 1370.7 659 1301.4 659 c 0,27,28
 1201.5 659 1201.5 659 1144.35 561.5 c 128,-1,29
 1087.2 464 1087.2 464 1087.2 291 c 0,30,31
 1087.2 198 1087.2 198 1123.65 148 c 128,-1,32
 1160.1 98 1160.1 98 1227.6 98 c 0,33,34
 1323.9 98 1323.9 98 1381.5 193 c 128,-1,35
 1439.1 288 1439.1 288 1439.1 446 c 0,24,25
1208.7 -29 m 0,36,37
 1086.3 -29 1086.3 -29 1015.2 60 c 128,-1,38
 944.1 149 944.1 149 944.1 301 c 0,39,40
 944.1 517 944.1 517 1048.05 650.5 c 128,-1,41
 1152 784 1152 784 1319.4 784 c 0,42,43
 1441.8 784 1441.8 784 1512.45 696 c 128,-1,44
 1583.1 608 1583.1 608 1583.1 455 c 0,45,46
 1583.1 240 1583.1 240 1479.15 105.5 c 128,-1,47
 1375.2 -29 1375.2 -29 1208.7 -29 c 0,36,37
1514.7 1520 m 1,48,-1
 404.1 -29 l 1,49,-1
 260.1 -29 l 1,50,-1
 1371.6 1520 l 1,51,-1
 1514.7 1520 l 1,48,-1
EndSplineSet
EndChar
StartChar: ampersand
Encoding: 38 38 38
Width: 1437
Flags: W
Fore
870.3 260 m 1,0,-1
 486.9 803 l 1,1,2
 378 715 378 715 321.75 616 c 128,-1,3
 265.5 517 265.5 517 265.5 414 c 0,4,5
 265.5 287 265.5 287 342.45 210 c 128,-1,6
 419.4 133 419.4 133 547.2 133 c 0,7,8
 631.8 133 631.8 133 714.15 165.5 c 128,-1,9
 796.5 198 796.5 198 870.3 260 c 1,0,-1
1356.3 801 m 1,10,11
 1315.8 642 1315.8 642 1249.65 510 c 128,-1,12
 1183.5 378 1183.5 378 1090.8 270 c 1,13,-1
 1278.9 0 l 1,14,-1
 1052.1 0 l 1,15,-1
 956.7 139 l 1,16,17
 861.3 56 861.3 56 751.5 13.5 c 128,-1,18
 641.7 -29 641.7 -29 522 -29 c 0,19,20
 323.1 -29 323.1 -29 204.75 80 c 128,-1,21
 86.4004 189 86.4004 189 86.4004 369 c 0,22,23
 86.4004 523 86.4004 523 169.65 660 c 128,-1,24
 252.9 797 252.9 797 416.7 913 c 1,25,26
 388.8 959 388.8 959 375.75 1006.5 c 128,-1,27
 362.7 1054 362.7 1054 362.7 1108 c 0,28,29
 362.7 1176 362.7 1176 383.4 1237 c 128,-1,30
 404.1 1298 404.1 1298 442.8 1348 c 0,31,32
 504.9 1430 504.9 1430 598.5 1475 c 128,-1,33
 692.1 1520 692.1 1520 800.1 1520 c 0,34,35
 870.3 1520 870.3 1520 941.4 1502 c 128,-1,36
 1012.5 1484 1012.5 1484 1085.4 1448 c 1,37,-1
 1053.9 1266 l 1,38,39
 986.4 1313 986.4 1313 919.35 1337.5 c 128,-1,40
 852.3 1362 852.3 1362 789.3 1362 c 0,41,42
 677.7 1362 677.7 1362 607.95 1297.5 c 128,-1,43
 538.2 1233 538.2 1233 538.2 1133 c 0,44,45
 538.2 1089 538.2 1089 555.3 1046 c 128,-1,46
 572.4 1003 572.4 1003 634.5 915 c 2,47,-1
 1000.8 395 l 1,48,49
 1068.3 474 1068.3 474 1116 576.5 c 128,-1,50
 1163.7 679 1163.7 679 1188.9 801 c 1,51,-1
 1356.3 801 l 1,10,11
EndSplineSet
EndChar
StartChar: quotesingle
Encoding: 39 39 39
Width: 506
Flags: W
Fore
330.3 1493 m 1,0,-1
 330.3 938 l 1,1,-1
 177.3 938 l 1,2,-1
 177.3 1493 l 1,3,-1
 330.3 1493 l 1,0,-1
EndSplineSet
EndChar
StartChar: parenleft
Encoding: 40 40 40
Width: 719
Flags: W
Fore
786.6 1554 m 1,0,1
 548.1 1223 548.1 1223 430.65 925.5 c 128,-1,2
 313.2 628 313.2 628 313.2 352 c 0,3,4
 313.2 194 313.2 194 347.4 38.5 c 128,-1,5
 381.6 -117 381.6 -117 450 -270 c 1,6,-1
 306 -270 l 1,7,8
 223.2 -98 223.2 -98 182.7 64.5 c 128,-1,9
 142.2 227 142.2 227 142.2 383 c 0,10,11
 142.2 680 142.2 680 265.95 971.5 c 128,-1,12
 389.7 1263 389.7 1263 639.9 1554 c 1,13,-1
 786.6 1554 l 1,0,1
EndSplineSet
EndChar
StartChar: parenright
Encoding: 41 41 41
Width: 719
Flags: W
Fore
-114.3 -270 m 1,0,1
 125.1 61 125.1 61 242.1 358.5 c 128,-1,2
 359.1 656 359.1 656 359.1 932 c 0,3,4
 359.1 1090 359.1 1090 325.35 1245.5 c 128,-1,5
 291.6 1401 291.6 1401 223.2 1554 c 1,6,-1
 367.2 1554 l 1,7,8
 450 1381 450 1381 490.5 1220 c 128,-1,9
 531 1059 531 1059 531 903 c 0,10,11
 531 605 531 605 406.35 311.5 c 128,-1,12
 281.7 18 281.7 18 33.2998 -270 c 1,13,-1
 -114.3 -270 l 1,0,1
EndSplineSet
EndChar
StartChar: asterisk
Encoding: 42 42 42
Width: 921
Flags: W
Fore
866.7 1247 m 1,0,-1
 543.6 1053 l 1,1,-1
 866.7 858 l 1,2,-1
 814.5 760 l 1,3,-1
 512.1 963 l 1,4,-1
 512.1 586 l 1,5,-1
 409.5 586 l 1,6,-1
 409.5 963 l 1,7,-1
 107.1 760 l 1,8,-1
 54.9004 858 l 1,9,-1
 378 1053 l 1,10,-1
 54.9004 1247 l 1,11,-1
 107.1 1346 l 1,12,-1
 409.5 1143 l 1,13,-1
 409.5 1520 l 1,14,-1
 512.1 1520 l 1,15,-1
 512.1 1143 l 1,16,-1
 814.5 1346 l 1,17,-1
 866.7 1247 l 1,0,-1
EndSplineSet
EndChar
StartChar: plus
Encoding: 43 43 43
Width: 1544
Flags: W
Fore
847.8 1284 m 1,0,-1
 847.8 727 l 1,1,-1
 1349.1 727 l 1,2,-1
 1349.1 557 l 1,3,-1
 847.8 557 l 1,4,-1
 847.8 0 l 1,5,-1
 696.6 0 l 1,6,-1
 696.6 557 l 1,7,-1
 195.3 557 l 1,8,-1
 195.3 727 l 1,9,-1
 696.6 727 l 1,10,-1
 696.6 1284 l 1,11,-1
 847.8 1284 l 1,0,-1
EndSplineSet
EndChar
StartChar: comma
Encoding: 44 44 44
Width: 585
Flags: W
Fore
165.6 254 m 1,0,-1
 355.5 254 l 1,1,-1
 325.8 82 l 1,2,-1
 121.5 -238 l 1,3,-1
 5.40039 -238 l 1,4,-1
 135 82 l 1,5,-1
 165.6 254 l 1,0,-1
EndSplineSet
EndChar
StartChar: hyphen
Encoding: 45 45 45
Width: 665
Flags: W
Fore
112.5 643 m 1,0,-1
 597.6 643 l 1,1,-1
 569.7 479 l 1,2,-1
 82.7998 479 l 1,3,-1
 112.5 643 l 1,0,-1
EndSplineSet
KernsSLIFO: 356 -149 0 0 221 -149 0 0 376 -149 0 0 89 -149 0 0 88 -73 0 0 87 -36 0 0 86 -83 0 0 84 -149 0 0
EndChar
StartChar: period
Encoding: 46 46 46
Width: 585
Flags: W
Fore
151.2 254 m 1,0,-1
 341.1 254 l 1,1,-1
 297 0 l 1,2,-1
 107.1 0 l 1,3,-1
 151.2 254 l 1,0,-1
EndSplineSet
EndChar
StartChar: slash
Encoding: 47 47 47
Width: 621
Flags: W
Fore
626.4 1493 m 1,0,-1
 786.6 1493 l 1,1,-1
 24.2998 -190 l 1,2,-1
 -135 -190 l 1,3,-1
 626.4 1493 l 1,0,-1
EndSplineSet
EndChar
StartChar: zero
Encoding: 48 48 48
Width: 1172
Flags: W
AnchorPoint: "below" 455.4 0 basechar 0
AnchorPoint: "above" 721.8 1520 basechar 0
Fore
703.8 1520 m 0,0,1
 886.5 1520 886.5 1520 983.25 1385 c 128,-1,2
 1080 1250 1080 1250 1080 997 c 0,3,4
 1080 805 1080 805 1034.55 615.5 c 128,-1,5
 989.1 426 989.1 426 907.2 276 c 1,6,7
 823.5 126 823.5 126 710.55 48.5 c 128,-1,8
 597.6 -29 597.6 -29 460.8 -29 c 0,9,10
 284.4 -29 284.4 -29 188.1 107 c 128,-1,11
 91.7998 243 91.7998 243 91.7998 494 c 0,12,13
 91.7998 684 91.7998 684 138.15 874.5 c 128,-1,14
 184.5 1065 184.5 1065 267.3 1214 c 0,15,16
 350.1 1364 350.1 1364 461.25 1442 c 128,-1,17
 572.4 1520 572.4 1520 703.8 1520 c 0,0,1
693 1360 m 0,18,19
 624.6 1360 624.6 1360 562.95 1319.5 c 128,-1,20
 501.3 1279 501.3 1279 451.8 1200 c 0,21,22
 369 1068 369 1068 319.95 870.5 c 128,-1,23
 270.9 673 270.9 673 270.9 465 c 0,24,25
 270.9 300 270.9 300 323.55 215.5 c 128,-1,26
 376.2 131 376.2 131 478.8 131 c 0,27,28
 550.8 131 550.8 131 612 171.5 c 128,-1,29
 673.2 212 673.2 212 722.7 291 c 0,30,31
 804.6 422 804.6 422 852.75 619.5 c 128,-1,32
 900.9 817 900.9 817 900.9 1026 c 0,33,34
 900.9 1191 900.9 1191 848.25 1275.5 c 128,-1,35
 795.6 1360 795.6 1360 693 1360 c 0,18,19
EndSplineSet
EndChar
StartChar: one
Encoding: 49 49 49
Width: 1172
Flags: W
AnchorPoint: "below" 455.4 0 basechar 0
AnchorPoint: "above" 721.8 1520 basechar 0
Fore
119.7 170 m 1,0,-1
 416.7 170 l 1,1,-1
 617.4 1319 l 1,2,-1
 281.7 1247 l 1,3,-1
 313.2 1421 l 1,4,-1
 647.1 1493 l 1,5,-1
 829.8 1493 l 1,6,-1
 597.6 170 l 1,7,-1
 893.7 170 l 1,8,-1
 864.9 0 l 1,9,-1
 90 0 l 1,10,-1
 119.7 170 l 1,0,-1
EndSplineSet
EndChar
StartChar: two
Encoding: 50 50 50
Width: 1172
Flags: W
AnchorPoint: "below" 455.4 0 basechar 0
AnchorPoint: "above" 721.8 1520 basechar 0
Fore
849.6 721 m 2,0,-1
 269.1 168 l 1,1,-1
 910.8 168 l 1,2,-1
 879.3 0 l 1,3,-1
 7.2002 0 l 1,4,-1
 36.9004 170 l 1,5,-1
 643.5 748 l 1,6,7
 765 865 765 865 815.85 953.5 c 128,-1,8
 866.7 1042 866.7 1042 866.7 1135 c 0,9,10
 866.7 1232 866.7 1232 805.5 1293 c 128,-1,11
 744.3 1354 744.3 1354 645.3 1354 c 0,12,13
 559.8 1354 559.8 1354 455.4 1320 c 128,-1,14
 351 1286 351 1286 232.2 1221 c 1,15,-1
 265.5 1421 l 1,16,17
 377.1 1470 377.1 1470 478.8 1495 c 128,-1,18
 580.5 1520 580.5 1520 666.9 1520 c 0,19,20
 843.3 1520 843.3 1520 950.85 1416 c 128,-1,21
 1058.4 1312 1058.4 1312 1058.4 1143 c 0,22,23
 1058.4 1029 1058.4 1029 1007.1 925.5 c 128,-1,24
 955.8 822 955.8 822 849.6 721 c 2,0,-1
EndSplineSet
EndChar
StartChar: three
Encoding: 51 51 51
Width: 1172
Flags: W
AnchorPoint: "below" 455.4 0 basechar 0
AnchorPoint: "above" 721.8 1520 basechar 0
Fore
291.6 1456 m 1,0,1
 390.6 1488 390.6 1488 483.75 1504 c 128,-1,2
 576.9 1520 576.9 1520 666.9 1520 c 0,3,4
 845.1 1520 845.1 1520 949.5 1432 c 128,-1,5
 1053.9 1344 1053.9 1344 1053.9 1196 c 0,6,7
 1053.9 1051 1053.9 1051 971.55 947 c 128,-1,8
 889.2 843 889.2 843 744.3 805 c 1,9,10
 857.7 769 857.7 769 910.8 693 c 128,-1,11
 963.9 617 963.9 617 963.9 492 c 0,12,13
 963.9 372 963.9 372 912.15 267 c 128,-1,14
 860.4 162 860.4 162 763.2 86 c 0,15,16
 689.4 28 689.4 28 586.8 -0.5 c 128,-1,17
 484.2 -29 484.2 -29 350.1 -29 c 0,18,19
 265.5 -29 265.5 -29 179.1 -10.5 c 128,-1,20
 92.7002 8 92.7002 8 3.59961 45 c 1,21,-1
 36.9004 236 l 1,22,23
 121.5 184 121.5 184 207.45 158.5 c 128,-1,24
 293.4 133 293.4 133 383.4 133 c 0,25,26
 560.7 133 560.7 133 670.95 234.5 c 128,-1,27
 781.2 336 781.2 336 781.2 498 c 0,28,29
 781.2 602 781.2 602 711 658.5 c 128,-1,30
 640.8 715 640.8 715 510.3 715 c 2,31,-1
 353.7 715 l 1,32,-1
 381.6 879 l 1,33,-1
 547.2 879 l 2,34,35
 696.6 879 696.6 879 782.55 955 c 128,-1,36
 868.5 1031 868.5 1031 868.5 1161 c 0,37,38
 868.5 1255 868.5 1255 805.5 1306.5 c 128,-1,39
 742.5 1358 742.5 1358 628.2 1358 c 0,40,41
 541.8 1358 541.8 1358 451.35 1337.5 c 128,-1,42
 360.9 1317 360.9 1317 263.7 1276 c 1,43,-1
 291.6 1456 l 1,0,1
EndSplineSet
EndChar
StartChar: four
Encoding: 52 52 52
Width: 1172
Flags: W
AnchorPoint: "below" 455.4 0 basechar 0
AnchorPoint: "above" 721.8 1520 basechar 0
Fore
792.9 1493 m 1,0,-1
 1021.5 1493 l 1,1,-1
 849.6 520 l 1,2,-1
 1041.3 520 l 1,3,-1
 1011.6 352 l 1,4,-1
 819.9 352 l 1,5,-1
 759.6 0 l 1,6,-1
 578.7 0 l 1,7,-1
 639.9 352 l 1,8,-1
 33.2998 352 l 1,9,-1
 68.4004 547 l 1,10,-1
 792.9 1493 l 1,0,-1
809.1 1317 m 1,11,-1
 209.7 520 l 1,12,-1
 668.7 520 l 1,13,-1
 809.1 1317 l 1,11,-1
EndSplineSet
EndChar
StartChar: five
Encoding: 53 53 53
Width: 1172
Flags: W
AnchorPoint: "below" 455.4 0 basechar 0
AnchorPoint: "above" 721.8 1520 basechar 0
Fore
1071 1493 m 1,0,-1
 1043.1 1325 l 1,1,-1
 486.9 1325 l 1,2,-1
 422.1 956 l 1,3,4
 463.5 971 463.5 971 506.25 978 c 128,-1,5
 549 985 549 985 593.1 985 c 0,6,7
 779.4 985 779.4 985 887.4 874 c 128,-1,8
 995.4 763 995.4 763 995.4 573 c 0,9,10
 995.4 440 995.4 440 940.05 318 c 128,-1,11
 884.7 196 884.7 196 783 104 c 0,12,13
 711 40 711 40 607.05 5.5 c 128,-1,14
 503.1 -29 503.1 -29 379.8 -29 c 0,15,16
 298.8 -29 298.8 -29 214.2 -13 c 128,-1,17
 129.6 3 129.6 3 36.9004 35 c 1,18,-1
 70.2002 223 l 1,19,20
 153 178 153 178 236.25 155.5 c 128,-1,21
 319.5 133 319.5 133 404.1 133 c 0,22,23
 579.6 133 579.6 133 694.35 250 c 128,-1,24
 809.1 367 809.1 367 809.1 543 c 0,25,26
 809.1 673 809.1 673 733.95 745 c 128,-1,27
 658.8 817 658.8 817 523.8 817 c 0,28,29
 452.7 817 452.7 817 375.75 798.5 c 128,-1,30
 298.8 780 298.8 780 217.8 743 c 1,31,-1
 348.3 1493 l 1,32,-1
 1071 1493 l 1,0,-1
EndSplineSet
EndChar
StartChar: six
Encoding: 54 54 54
Width: 1172
Flags: W
AnchorPoint: "below" 455.4 0 basechar 0
AnchorPoint: "above" 721.8 1520 basechar 0
Fore
846 553 m 0,0,1
 846 680 846 680 787.5 753.5 c 128,-1,2
 729 827 729 827 628.2 827 c 0,3,4
 488.7 827 488.7 827 393.75 707.5 c 128,-1,5
 298.8 588 298.8 588 298.8 412 c 0,6,7
 298.8 280 298.8 280 356.85 205.5 c 128,-1,8
 414.9 131 414.9 131 517.5 131 c 0,9,10
 657.9 131 657.9 131 751.95 253.5 c 128,-1,11
 846 376 846 376 846 553 c 0,0,1
1090.8 1458 m 1,12,-1
 1060.2 1274 l 1,13,14
 1008 1312 1008 1312 940.5 1332 c 128,-1,15
 873 1352 873 1352 796.5 1352 c 0,16,17
 610.2 1352 610.2 1352 497.25 1222 c 128,-1,18
 384.3 1092 384.3 1092 328.5 815 c 1,19,20
 394.2 900 394.2 900 481.05 943.5 c 128,-1,21
 567.9 987 567.9 987 668.7 987 c 0,22,23
 833.4 987 833.4 987 931.05 881.5 c 128,-1,24
 1028.7 776 1028.7 776 1028.7 598 c 0,25,26
 1028.7 452 1028.7 452 980.55 326.5 c 128,-1,27
 932.4 201 932.4 201 840.6 106 c 0,28,29
 777.6 41 777.6 41 693.9 6 c 128,-1,30
 610.2 -29 610.2 -29 515.7 -29 c 0,31,32
 330.3 -29 330.3 -29 223.2 102 c 128,-1,33
 116.1 233 116.1 233 116.1 461 c 0,34,35
 116.1 673 116.1 673 165.15 869.5 c 128,-1,36
 214.2 1066 214.2 1066 302.4 1210 c 0,37,38
 395.1 1362 395.1 1362 526.95 1441 c 128,-1,39
 658.8 1520 658.8 1520 818.1 1520 c 0,40,41
 888.3 1520 888.3 1520 956.7 1504.5 c 128,-1,42
 1025.1 1489 1025.1 1489 1090.8 1458 c 1,12,-1
EndSplineSet
EndChar
StartChar: seven
Encoding: 55 55 55
Width: 1172
Flags: W
AnchorPoint: "below" 455.4 0 basechar 0
AnchorPoint: "above" 721.8 1520 basechar 0
Fore
235.8 1493 m 1,0,-1
 1155.6 1493 l 1,1,-1
 1139.4 1407 l 1,2,-1
 370.8 0 l 1,3,-1
 171 0 l 1,4,-1
 897.3 1323 l 1,5,-1
 206.1 1323 l 1,6,-1
 235.8 1493 l 1,0,-1
EndSplineSet
EndChar
StartChar: eight
Encoding: 56 56 56
Width: 1172
Flags: W
AnchorPoint: "below" 455.4 0 basechar 0
AnchorPoint: "above" 721.8 1520 basechar 0
Fore
819.9 453 m 0,0,1
 819.9 566 819.9 566 748.8 637.5 c 128,-1,2
 677.7 709 677.7 709 562.5 709 c 0,3,4
 422.1 709 422.1 709 330.75 615.5 c 128,-1,5
 239.4 522 239.4 522 239.4 379 c 0,6,7
 239.4 265 239.4 265 309.15 198 c 128,-1,8
 378.9 131 378.9 131 497.7 131 c 0,9,10
 639 131 639 131 729.45 222 c 128,-1,11
 819.9 313 819.9 313 819.9 453 c 0,0,1
912.6 1149 m 0,12,13
 912.6 1244 912.6 1244 849.6 1302 c 128,-1,14
 786.6 1360 786.6 1360 682.2 1360 c 0,15,16
 558.9 1360 558.9 1360 479.25 1283 c 128,-1,17
 399.6 1206 399.6 1206 399.6 1090 c 0,18,19
 399.6 990 399.6 990 462.15 929 c 128,-1,20
 524.7 868 524.7 868 628.2 868 c 0,21,22
 752.4 868 752.4 868 832.5 947.5 c 128,-1,23
 912.6 1027 912.6 1027 912.6 1149 c 0,12,13
789.3 786 m 1,24,25
 891 743 891 743 945 656 c 128,-1,26
 999 569 999 569 999 446 c 0,27,28
 999 239 999 239 855 105 c 128,-1,29
 711 -29 711 -29 483.3 -29 c 0,30,31
 289.8 -29 289.8 -29 175.5 76.5 c 128,-1,32
 61.2002 182 61.2002 182 61.2002 358 c 0,33,34
 61.2002 518 61.2002 518 159.3 642.5 c 128,-1,35
 257.4 767 257.4 767 414.9 801 c 1,36,37
 320.4 837 320.4 837 270.9 912.5 c 128,-1,38
 221.4 988 221.4 988 221.4 1096 c 0,39,40
 221.4 1277 221.4 1277 356.85 1398.5 c 128,-1,41
 492.3 1520 492.3 1520 700.2 1520 c 0,42,43
 873.9 1520 873.9 1520 983.25 1421.5 c 128,-1,44
 1092.6 1323 1092.6 1323 1092.6 1171 c 0,45,46
 1092.6 1039 1092.6 1039 1011.15 935.5 c 128,-1,47
 929.7 832 929.7 832 789.3 786 c 1,24,25
EndSplineSet
EndChar
StartChar: nine
Encoding: 57 57 57
Width: 1172
Flags: W
AnchorPoint: "below" 455.4 0 basechar 0
AnchorPoint: "above" 721.8 1520 basechar 0
Fore
81 33 m 1,0,-1
 114.3 217 l 1,1,2
 166.5 179 166.5 179 233.1 159 c 128,-1,3
 299.7 139 299.7 139 376.2 139 c 0,4,5
 562.5 139 562.5 139 676.35 270 c 128,-1,6
 790.2 401 790.2 401 846 678 c 1,7,8
 779.4 593 779.4 593 691.65 548.5 c 128,-1,9
 603.9 504 603.9 504 503.1 504 c 0,10,11
 339.3 504 339.3 504 242.55 609.5 c 128,-1,12
 145.8 715 145.8 715 145.8 893 c 0,13,14
 145.8 1039 145.8 1039 193.5 1164.5 c 128,-1,15
 241.2 1290 241.2 1290 333.9 1384 c 1,16,17
 396.9 1450 396.9 1450 479.7 1485 c 128,-1,18
 562.5 1520 562.5 1520 656.1 1520 c 0,19,20
 842.4 1520 842.4 1520 950.4 1388.5 c 128,-1,21
 1058.4 1257 1058.4 1257 1058.4 1030 c 0,22,23
 1058.4 819 1058.4 819 1008.45 622 c 128,-1,24
 958.5 425 958.5 425 870.3 281 c 0,25,26
 776.7 129 776.7 129 645.3 50 c 128,-1,27
 513.9 -29 513.9 -29 353.7 -29 c 0,28,29
 284.4 -29 284.4 -29 215.55 -13.5 c 128,-1,30
 146.7 2 146.7 2 81 33 c 1,0,-1
325.8 940 m 0,31,32
 325.8 813 325.8 813 385.2 738.5 c 128,-1,33
 444.6 664 444.6 664 545.4 664 c 0,34,35
 684.9 664 684.9 664 779.4 783 c 128,-1,36
 873.9 902 873.9 902 873.9 1079 c 0,37,38
 873.9 1211 873.9 1211 815.4 1285.5 c 128,-1,39
 756.9 1360 756.9 1360 654.3 1360 c 0,40,41
 514.8 1360 514.8 1360 420.3 1238.5 c 128,-1,42
 325.8 1117 325.8 1117 325.8 940 c 0,31,32
EndSplineSet
EndChar
StartChar: colon
Encoding: 58 58 58
Width: 621
Flags: W
Fore
281.7 1059 m 1,0,-1
 471.6 1059 l 1,1,-1
 427.5 805 l 1,2,-1
 237.6 805 l 1,3,-1
 281.7 1059 l 1,0,-1
140.4 254 m 1,4,-1
 330.3 254 l 1,5,-1
 285.3 0 l 1,6,-1
 95.4004 0 l 1,7,-1
 140.4 254 l 1,4,-1
EndSplineSet
EndChar
StartChar: semicolon
Encoding: 59 59 59
Width: 621
Flags: W
Fore
162 254 m 1,0,-1
 351.9 254 l 1,1,-1
 320.4 82 l 1,2,-1
 117.9 -238 l 1,3,-1
 1.7998 -238 l 1,4,-1
 130.5 82 l 1,5,-1
 162 254 l 1,0,-1
302.4 1059 m 1,6,-1
 492.3 1059 l 1,7,-1
 448.2 805 l 1,8,-1
 258.3 805 l 1,9,-1
 302.4 1059 l 1,6,-1
EndSplineSet
EndChar
StartChar: less
Encoding: 60 60 60
Width: 1544
Flags: W
Fore
1349.1 1008 m 1,0,-1
 420.3 641 l 1,1,-1
 1349.1 276 l 1,2,-1
 1349.1 94 l 1,3,-1
 195.3 559 l 1,4,-1
 195.3 725 l 1,5,-1
 1349.1 1190 l 1,6,-1
 1349.1 1008 l 1,0,-1
EndSplineSet
EndChar
StartChar: equal
Encoding: 61 61 61
Width: 1544
Flags: W
Fore
195.3 930 m 1,0,-1
 1349.1 930 l 1,1,-1
 1349.1 762 l 1,2,-1
 195.3 762 l 1,3,-1
 195.3 930 l 1,0,-1
195.3 522 m 1,4,-1
 1349.1 522 l 1,5,-1
 1349.1 352 l 1,6,-1
 195.3 352 l 1,7,-1
 195.3 522 l 1,4,-1
EndSplineSet
EndChar
StartChar: greater
Encoding: 62 62 62
Width: 1544
Flags: W
Fore
195.3 1008 m 1,0,-1
 195.3 1190 l 1,1,-1
 1349.1 725 l 1,2,-1
 1349.1 559 l 1,3,-1
 195.3 94 l 1,4,-1
 195.3 276 l 1,5,-1
 1122.3 641 l 1,6,-1
 195.3 1008 l 1,0,-1
EndSplineSet
EndChar
StartChar: question
Encoding: 63 63 63
Width: 978
Flags: W
Fore
459 254 m 1,0,-1
 414.9 0 l 1,1,-1
 232.2 0 l 1,2,-1
 276.3 254 l 1,3,-1
 459 254 l 1,0,-1
260.1 1407 m 1,4,5
 351.9 1464 351.9 1464 443.25 1492 c 128,-1,6
 534.6 1520 534.6 1520 630 1520 c 0,7,8
 774.9 1520 774.9 1520 858.6 1445 c 128,-1,9
 942.3 1370 942.3 1370 942.3 1241 c 0,10,11
 942.3 1138 942.3 1138 894.15 1048 c 128,-1,12
 846 958 846 958 737.1 860 c 2,13,-1
 643.5 776 l 1,14,15
 567.9 710 567.9 710 542.7 663 c 128,-1,16
 517.5 616 517.5 616 501.3 524 c 1,17,-1
 478.8 401 l 1,18,-1
 307.8 401 l 1,19,-1
 335.7 555 l 1,20,21
 351.9 649 351.9 649 387 714.5 c 128,-1,22
 422.1 780 422.1 780 522 872 c 2,23,-1
 617.4 961 l 2,24,25
 693 1031 693 1031 723.6 1084 c 128,-1,26
 754.2 1137 754.2 1137 754.2 1194 c 0,27,28
 754.2 1270 754.2 1270 705.15 1313 c 128,-1,29
 656.1 1356 656.1 1356 569.7 1356 c 0,30,31
 497.7 1356 497.7 1356 409.05 1320.5 c 128,-1,32
 320.4 1285 320.4 1285 226.8 1219 c 1,33,-1
 260.1 1407 l 1,4,5
EndSplineSet
EndChar
StartChar: at
Encoding: 64 64 64
Width: 1843
Flags: W
Fore
1127.7 238 m 1,0,1
 1065.6 164 1065.6 164 993.15 126 c 128,-1,2
 920.7 88 920.7 88 842.4 88 c 0,3,4
 710.1 88 710.1 88 623.25 187 c 128,-1,5
 536.4 286 536.4 286 536.4 438 c 0,6,7
 536.4 658 536.4 658 670.05 822.5 c 128,-1,8
 803.7 987 803.7 987 982.8 987 c 0,9,10
 1065.6 987 1065.6 987 1130.85 947 c 128,-1,11
 1196.1 907 1196.1 907 1231.2 836 c 1,12,-1
 1255.5 967 l 1,13,-1
 1384.2 967 l 1,14,-1
 1255.5 229 l 1,15,16
 1414.8 257 1414.8 257 1517.4 409 c 128,-1,17
 1620 561 1620 561 1620 770 c 0,18,19
 1620 1003 1620 1003 1471.5 1150.5 c 128,-1,20
 1323 1298 1323 1298 1087.2 1298 c 0,21,22
 927 1298 927 1298 777.6 1235.5 c 128,-1,23
 628.2 1173 628.2 1173 513.9 1059 c 1,24,25
 383.4 925 383.4 925 310.5 749 c 128,-1,26
 237.6 573 237.6 573 237.6 389 c 0,27,28
 237.6 128 237.6 128 394.65 -42.5 c 128,-1,29
 551.7 -213 551.7 -213 794.7 -213 c 0,30,31
 910.8 -213 910.8 -213 1023.3 -169.5 c 128,-1,32
 1135.8 -126 1135.8 -126 1259.1 -33 c 1,33,-1
 1332.9 -147 l 1,34,35
 1211.4 -249 1211.4 -249 1070.55 -301.5 c 128,-1,36
 929.7 -354 929.7 -354 781.2 -354 c 0,37,38
 491.4 -354 491.4 -354 299.25 -140 c 128,-1,39
 107.1 74 107.1 74 107.1 401 c 0,40,41
 107.1 626 107.1 626 201.15 836.5 c 128,-1,42
 295.2 1047 295.2 1047 464.4 1200 c 0,43,44
 589.5 1314 589.5 1314 751.5 1377 c 128,-1,45
 913.5 1440 913.5 1440 1083.6 1440 c 0,46,47
 1372.5 1440 1372.5 1440 1561.95 1251 c 128,-1,48
 1751.4 1062 1751.4 1062 1751.4 778 c 0,49,50
 1751.4 483 1751.4 483 1568.25 286.5 c 128,-1,51
 1385.1 90 1385.1 90 1100.7 84 c 1,52,-1
 1127.7 238 l 1,0,1
984.6 846 m 0,53,54
 857.7 846 857.7 846 769.05 734.5 c 128,-1,55
 680.4 623 680.4 623 680.4 467 c 0,56,57
 680.4 355 680.4 355 731.7 292 c 128,-1,58
 783 229 783 229 873.9 229 c 0,59,60
 1001.7 229 1001.7 229 1088.1 343 c 128,-1,61
 1174.5 457 1174.5 457 1174.5 623 c 0,62,63
 1174.5 725 1174.5 725 1122.75 785.5 c 128,-1,64
 1071 846 1071 846 984.6 846 c 0,53,54
EndSplineSet
EndChar
StartChar: A
Encoding: 65 65 65
Width: 1260
Flags: W
AnchorPoint: "below" 499.406 0 basechar 0
AnchorPoint: "above" 774.9 1520 basechar 0
Fore
678.6 1493 m 1,0,-1
 884.7 1493 l 1,1,-1
 1134 0 l 1,2,-1
 944.1 0 l 1,3,-1
 888.3 383 l 1,4,-1
 283.5 383 l 1,5,-1
 93.5996 0 l 1,6,-1
 -98.0996 0 l 1,7,-1
 678.6 1493 l 1,0,-1
744.3 1294 m 1,8,-1
 367.2 551 l 1,9,-1
 860.4 551 l 1,10,-1
 744.3 1294 l 1,8,-1
EndSplineSet
KernsSLIFO: 354 -149 0 0 538 -149 0 0 7812 -36 0 0 7810 -36 0 0 7808 -36 0 0 372 -36 0 0 356 -149 0 0 8217 -272 0 0 8221 -272 0 0 87 -36 0 0 86 -102 0 0 84 -149 0 0 59 38 0 0 58 38 0 0 46 38 0 0 44 38 0 0
EndChar
StartChar: B
Encoding: 66 66 66
Width: 1264
Flags: W
AnchorPoint: "above" 765.318 1520 basechar 0
AnchorPoint: "below" 499.406 0 basechar 0
Fore
311.4 1493 m 1,0,-1
 775.8 1493 l 2,1,2
 964.8 1493 964.8 1493 1058.4 1415 c 128,-1,3
 1152 1337 1152 1337 1152 1180 c 0,4,5
 1152 1036 1152 1036 1071.45 931.5 c 128,-1,6
 990.9 827 990.9 827 860.4 805 c 1,7,8
 972 777 972 777 1027.8 698 c 128,-1,9
 1083.6 619 1083.6 619 1083.6 487 c 0,10,11
 1083.6 262 1083.6 262 933.75 131 c 128,-1,12
 783.9 0 783.9 0 523.8 0 c 2,13,-1
 49.5 0 l 1,14,-1
 311.4 1493 l 1,0,-1
355.5 713 m 1,15,-1
 260.1 166 l 1,16,-1
 552.6 166 l 2,17,18
 717.3 166 717.3 166 806.4 250 c 128,-1,19
 895.5 334 895.5 334 895.5 487 c 0,20,21
 895.5 605 895.5 605 836.55 659 c 128,-1,22
 777.6 713 777.6 713 647.1 713 c 2,23,-1
 355.5 713 l 1,15,-1
462.6 1327 m 1,24,-1
 383.4 877 l 1,25,-1
 654.3 877 l 2,26,27
 799.2 877 799.2 877 880.65 947 c 128,-1,28
 962.1 1017 962.1 1017 962.1 1141 c 0,29,30
 962.1 1238 962.1 1238 907.2 1282.5 c 128,-1,31
 852.3 1327 852.3 1327 731.7 1327 c 2,32,-1
 462.6 1327 l 1,24,-1
EndSplineSet
KernsSLIFO: 7922 -36 0 0 562 -36 0 0 374 -36 0 0 221 -36 0 0 376 -36 0 0 89 -36 0 0 45 -36 0 0
EndChar
StartChar: C
Encoding: 67 67 67
Width: 1287
Flags: W
AnchorPoint: "below" 629.181 0 basechar 0
AnchorPoint: "above" 881.1 1520 basechar 0
Fore
1280.7 1378 m 1,0,-1
 1243.8 1165 l 1,1,2
 1157.4 1262 1157.4 1262 1060.65 1309 c 128,-1,3
 963.9 1356 963.9 1356 851.4 1356 c 0,4,5
 697.5 1356 697.5 1356 580.95 1274 c 128,-1,6
 464.4 1192 464.4 1192 379.8 1024 c 0,7,8
 325.8 916 325.8 916 297.45 795.5 c 128,-1,9
 269.1 675 269.1 675 269.1 553 c 0,10,11
 269.1 349 269.1 349 364.05 242 c 128,-1,12
 459 135 459 135 639.9 135 c 0,13,14
 765 135 765 135 880.2 179.5 c 128,-1,15
 995.4 224 995.4 224 1104.3 313 c 1,16,-1
 1062 74 l 1,17,18
 954.9 23 954.9 23 845.55 -3 c 128,-1,19
 736.2 -29 736.2 -29 626.4 -29 c 0,20,21
 368.1 -29 368.1 -29 222.75 127 c 128,-1,22
 77.4004 283 77.4004 283 77.4004 561 c 0,23,24
 77.4004 739 77.4004 739 132.75 911 c 128,-1,25
 188.1 1083 188.1 1083 291.6 1225 c 0,26,27
 401.4 1376 401.4 1376 542.25 1448 c 128,-1,28
 683.1 1520 683.1 1520 870.3 1520 c 0,29,30
 985.5 1520 985.5 1520 1088.55 1484.5 c 128,-1,31
 1191.6 1449 1191.6 1449 1280.7 1378 c 1,0,-1
EndSplineSet
KernsSLIFO: 536 38 0 0 348 38 0 0 346 38 0 0 350 38 0 0 352 38 0 0 8217 -45 0 0 8221 -45 0 0 83 38 0 0
EndChar
StartChar: D
Encoding: 68 68 68
Width: 1419
Flags: W
AnchorPoint: "below" 542.606 0 basechar 0
AnchorPoint: "above" 780.3 1520 basechar 0
Fore
311.4 1493 m 1,0,-1
 702 1493 l 2,1,2
 1013.4 1493 1013.4 1493 1172.25 1346.5 c 128,-1,3
 1331.1 1200 1331.1 1200 1331.1 911 c 0,4,5
 1331.1 720 1331.1 720 1270.8 543.5 c 128,-1,6
 1210.5 367 1210.5 367 1104.3 246 c 0,7,8
 997.2 122 997.2 122 832.5 61 c 128,-1,9
 667.8 0 667.8 0 442.8 0 c 2,10,-1
 49.5 0 l 1,11,-1
 311.4 1493 l 1,0,-1
464.4 1327 m 1,12,-1
 261.9 166 l 1,13,-1
 499.5 166 l 2,14,15
 804.6 166 804.6 166 972 361 c 128,-1,16
 1139.4 556 1139.4 556 1139.4 911 c 0,17,18
 1139.4 1126 1139.4 1126 1031.4 1226.5 c 128,-1,19
 923.4 1327 923.4 1327 693 1327 c 2,20,-1
 464.4 1327 l 1,12,-1
EndSplineSet
EndChar
StartChar: E
Encoding: 69 69 69
Width: 1164
Flags: W
AnchorPoint: "below" 542.606 0 basechar 0
AnchorPoint: "above" 723.6 1520 basechar 0
Fore
311.4 1493 m 1,0,-1
 1161 1493 l 1,1,-1
 1131.3 1323 l 1,2,-1
 462.6 1323 l 1,3,-1
 385.2 881 l 1,4,-1
 1026.9 881 l 1,5,-1
 997.2 711 l 1,6,-1
 355.5 711 l 1,7,-1
 261.9 170 l 1,8,-1
 945.9 170 l 1,9,-1
 916.2 0 l 1,10,-1
 49.5 0 l 1,11,-1
 311.4 1493 l 1,0,-1
EndSplineSet
EndChar
StartChar: F
Encoding: 70 70 70
Width: 1060
Flags: W
AnchorPoint: "above" 738.318 1520 basechar 0
AnchorPoint: "below" 472.406 0 basechar 0
Fore
311.4 1493 m 1,0,-1
 1081.8 1493 l 1,1,-1
 1052.1 1323 l 1,2,-1
 462.6 1323 l 1,3,-1
 385.2 883 l 1,4,-1
 918 883 l 1,5,-1
 888.3 713 l 1,6,-1
 355.5 713 l 1,7,-1
 230.4 0 l 1,8,-1
 49.5 0 l 1,9,-1
 311.4 1493 l 1,0,-1
EndSplineSet
KernsSLIFO: 371 -83 0 0 369 -83 0 0 365 -83 0 0 363 -83 0 0 361 -83 0 0 260 -120 0 0 258 -120 0 0 256 -120 0 0 367 -83 0 0 193 -120 0 0 194 -120 0 0 195 -120 0 0 192 -120 0 0 252 -83 0 0 251 -83 0 0 249 -83 0 0 250 -83 0 0 196 -120 0 0 117 -83 0 0 65 -120 0 0 59 -73 0 0 58 -73 0 0 46 -264 0 0 45 -112 0 0 44 -264 0 0
EndChar
StartChar: G
Encoding: 71 71 71
Width: 1428
Flags: W
AnchorPoint: "below" 644.63 0 basechar 0
AnchorPoint: "above" 884.7 1520 basechar 0
Fore
1006.2 223 m 1,0,-1
 1076.4 614 l 1,1,-1
 777.6 614 l 1,2,-1
 805.5 780 l 1,3,-1
 1282.5 780 l 1,4,-1
 1166.4 123 l 1,5,6
 1046.7 50 1046.7 50 905.4 10.5 c 128,-1,7
 764.1 -29 764.1 -29 621 -29 c 0,8,9
 368.1 -29 368.1 -29 225.45 127 c 128,-1,10
 82.7998 283 82.7998 283 82.7998 561 c 0,11,12
 82.7998 792 82.7998 792 169.65 1000.5 c 128,-1,13
 256.5 1209 256.5 1209 409.5 1348 c 0,14,15
 505.8 1435 505.8 1435 620.1 1477.5 c 128,-1,16
 734.4 1520 734.4 1520 873.9 1520 c 0,17,18
 999.9 1520 999.9 1520 1115.55 1484.5 c 128,-1,19
 1231.2 1449 1231.2 1449 1336.5 1378 c 1,20,-1
 1299.6 1163 l 1,21,22
 1218.6 1257 1218.6 1257 1109.7 1306.5 c 128,-1,23
 1000.8 1356 1000.8 1356 877.5 1356 c 0,24,25
 734.4 1356 734.4 1356 625.5 1295.5 c 128,-1,26
 516.6 1235 516.6 1235 431.1 1108 c 0,27,28
 358.2 1000 358.2 1000 316.35 853.5 c 128,-1,29
 274.5 707 274.5 707 274.5 555 c 0,30,31
 274.5 346 274.5 346 370.8 240.5 c 128,-1,32
 467.1 135 467.1 135 657.9 135 c 0,33,34
 753.3 135 753.3 135 842.4 157.5 c 128,-1,35
 931.5 180 931.5 180 1006.2 223 c 1,0,-1
EndSplineSet
EndChar
StartChar: H
Encoding: 72 72 72
Width: 1386
Flags: W
AnchorPoint: "below" 562.406 0 basechar 0
AnchorPoint: "above" 839.7 1520 basechar 0
Fore
311.4 1493 m 1,0,-1
 494.1 1493 l 1,1,-1
 387 881 l 1,2,-1
 1046.7 881 l 1,3,-1
 1153.8 1493 l 1,4,-1
 1336.5 1493 l 1,5,-1
 1074.6 0 l 1,6,-1
 891.9 0 l 1,7,-1
 1017 711 l 1,8,-1
 357.3 711 l 1,9,-1
 232.2 0 l 1,10,-1
 49.5 0 l 1,11,-1
 311.4 1493 l 1,0,-1
EndSplineSet
EndChar
StartChar: I
Encoding: 73 73 73
Width: 543
Flags: W
AnchorPoint: "below" 142.106 0 basechar 0
AnchorPoint: "above" 402.3 1520 basechar 0
Fore
311.4 1493 m 1,0,-1
 494.1 1493 l 1,1,-1
 232.2 0 l 1,2,-1
 49.5 0 l 1,3,-1
 311.4 1493 l 1,0,-1
EndSplineSet
EndChar
StartChar: J
Encoding: 74 74 74
Width: 543
Flags: W
AnchorPoint: "below" 101.843 -430 basechar 0
AnchorPoint: "above" 414.9 1520 basechar 0
Fore
307.8 1493 m 1,0,-1
 490.5 1493 l 1,1,-1
 246.6 104 l 2,2,3
 198.9 -167 198.9 -167 85.9502 -288.5 c 128,-1,4
 -27 -410 -27 -410 -230.4 -410 c 2,5,-1
 -302.4 -410 l 1,6,-1
 -272.7 -240 l 1,7,-1
 -216 -240 l 2,8,9
 -94.5 -240 -94.5 -240 -31.5 -163 c 128,-1,10
 31.5 -86 31.5 -86 64.7998 104 c 2,11,-1
 307.8 1493 l 1,0,-1
EndSplineSet
AlternateSubs: 0 2 'aalt' J.alt
Substitution: 0 2 'salt' J.alt
EndChar
StartChar: K
Encoding: 75 75 75
Width: 1208
Flags: W
AnchorPoint: "above" 738.318 1520 basechar 0
AnchorPoint: "below" 472.406 0 basechar 0
Fore
311.4 1493 m 1,0,-1
 494.1 1493 l 1,1,-1
 383.4 864 l 1,2,-1
 1089 1493 l 1,3,-1
 1331.1 1493 l 1,4,-1
 532.8 780 l 1,5,-1
 1116.9 0 l 1,6,-1
 895.5 0 l 1,7,-1
 359.1 727 l 1,8,-1
 232.2 0 l 1,9,-1
 49.5 0 l 1,10,-1
 311.4 1493 l 1,0,-1
EndSplineSet
KernsSLIFO: 367 -55 0 0 366 -36 0 0 283 -73 0 0 268 -55 0 0 262 -55 0 0 253 -55 0 0 217 -36 0 0 219 -36 0 0 218 -36 0 0 210 -55 0 0 212 -55 0 0 211 -55 0 0 255 -55 0 0 339 -92 0 0 338 -55 0 0 213 -55 0 0 248 -92 0 0 230 -36 0 0 216 -55 0 0 252 -55 0 0 251 -55 0 0 249 -55 0 0 250 -55 0 0 245 -73 0 0 246 -73 0 0 244 -73 0 0 242 -73 0 0 243 -73 0 0 235 -73 0 0 234 -73 0 0 232 -73 0 0 233 -73 0 0 229 -73 0 0 227 -73 0 0 228 -73 0 0 226 -73 0 0 224 -73 0 0 225 -73 0 0 220 -36 0 0 214 -55 0 0 199 -55 0 0 121 -55 0 0 117 -55 0 0 111 -73 0 0 101 -73 0 0 97 -73 0 0 85 -36 0 0 79 -55 0 0 67 -55 0 0 45 -206 0 0
EndChar
StartChar: L
Encoding: 76 76 76
Width: 1026
Flags: W
AnchorPoint: "above" 403.519 1520 basechar 0
AnchorPoint: "below" 467.906 0 basechar 0
Fore
309.6 1493 m 1,0,-1
 492.3 1493 l 1,1,-1
 261.9 168 l 1,2,-1
 916.2 168 l 1,3,-1
 886.5 0 l 1,4,-1
 49.5 0 l 1,5,-1
 309.6 1493 l 1,0,-1
EndSplineSet
KernsSLIFO: 356 -139 0 0 253 -73 0 0 221 -196 0 0 210 -63 0 0 212 -63 0 0 211 -63 0 0 376 -196 0 0 255 -73 0 0 8217 -368 0 0 8216 -188 0 0 8221 -368 0 0 8220 -188 0 0 338 -63 0 0 213 -63 0 0 216 -63 0 0 214 -63 0 0 121 -73 0 0 89 -196 0 0 87 -83 0 0 86 -149 0 0 84 -139 0 0 79 -63 0 0 45 -159 0 0
EndChar
StartChar: M
Encoding: 77 77 77
Width: 1590
Flags: W
AnchorPoint: "below" 664.106 0 basechar 0
AnchorPoint: "above" 930.015 1520 basechar 0
Fore
311.4 1493 m 1,0,-1
 584.1 1493 l 1,1,-1
 740.7 487 l 1,2,-1
 1260.9 1493 l 1,3,-1
 1540.8 1493 l 1,4,-1
 1278.9 0 l 1,5,-1
 1102.5 0 l 1,6,-1
 1331.1 1309 l 1,7,-1
 803.7 287 l 1,8,-1
 626.4 287 l 1,9,-1
 455.4 1313 l 1,10,-1
 226.8 0 l 1,11,-1
 49.5 0 l 1,12,-1
 311.4 1493 l 1,0,-1
EndSplineSet
EndChar
StartChar: N
Encoding: 78 78 78
Width: 1378
Flags: W
AnchorPoint: "below" 550.706 0 basechar 0
AnchorPoint: "above" 850.5 1520 basechar 0
Fore
311.4 1493 m 1,0,-1
 556.2 1493 l 1,1,-1
 927 213 l 1,2,-1
 1152 1493 l 1,3,-1
 1329.3 1493 l 1,4,-1
 1067.4 0 l 1,5,-1
 821.7 0 l 1,6,-1
 451.8 1288 l 1,7,-1
 226.8 0 l 1,8,-1
 49.5 0 l 1,9,-1
 311.4 1493 l 1,0,-1
EndSplineSet
EndChar
StartChar: O
Encoding: 79 79 79
Width: 1450
Flags: W
AnchorPoint: "below" 595.881 0 basechar 0
AnchorPoint: "above" 885.6 1520 basechar 0
Fore
840.6 1356 m 0,0,1
 691.2 1356 691.2 1356 576.9 1275.5 c 128,-1,2
 462.6 1195 462.6 1195 378 1030 c 0,3,4
 324 925 324 925 295.65 807 c 128,-1,5
 267.3 689 267.3 689 267.3 569 c 0,6,7
 267.3 361 267.3 361 356.85 248 c 128,-1,8
 446.4 135 446.4 135 610.2 135 c 0,9,10
 757.8 135 757.8 135 873.45 216.5 c 128,-1,11
 989.1 298 989.1 298 1071 459 c 0,12,13
 1125.9 567 1125.9 567 1154.7 685.5 c 128,-1,14
 1183.5 804 1183.5 804 1183.5 922 c 0,15,16
 1183.5 1129 1183.5 1129 1093.5 1242.5 c 128,-1,17
 1003.5 1356 1003.5 1356 840.6 1356 c 0,0,1
604.8 -29 m 0,18,19
 357.3 -29 357.3 -29 215.55 134 c 128,-1,20
 73.7998 297 73.7998 297 73.7998 580 c 0,21,22
 73.7998 742 73.7998 742 129.15 911 c 128,-1,23
 184.5 1080 184.5 1080 281.7 1212 c 0,24,25
 396 1367 396 1367 536.4 1443.5 c 128,-1,26
 676.8 1520 676.8 1520 846 1520 c 0,27,28
 1092.6 1520 1092.6 1520 1234.8 1358.5 c 128,-1,29
 1377 1197 1377 1197 1377 918 c 0,30,31
 1377 746 1377 746 1323 580 c 128,-1,32
 1269 414 1269 414 1168.2 279 c 0,33,34
 1053 123 1053 123 913.95 47 c 128,-1,35
 774.9 -29 774.9 -29 604.8 -29 c 0,18,19
EndSplineSet
KernsSLIFO: 88 -55 0 0 59 38 0 0 58 38 0 0 46 -83 0 0 44 -83 0 0
EndChar
StartChar: P
Encoding: 80 80 80
Width: 1111
Flags: W
AnchorPoint: "above" 738.318 1520 basechar 0
AnchorPoint: "below" 472.406 0 basechar 0
Fore
311.4 1493 m 1,0,-1
 731.7 1493 l 2,1,2
 915.3 1493 915.3 1493 1011.6 1398 c 128,-1,3
 1107.9 1303 1107.9 1303 1107.9 1120 c 0,4,5
 1107.9 874 1107.9 874 965.7 737 c 128,-1,6
 823.5 600 823.5 600 566.1 600 c 2,7,-1
 337.5 600 l 1,8,-1
 232.2 0 l 1,9,-1
 49.5 0 l 1,10,-1
 311.4 1493 l 1,0,-1
464.4 1327 m 1,11,-1
 367.2 766 l 1,12,-1
 595.8 766 l 2,13,14
 750.6 766 750.6 766 833.4 854 c 128,-1,15
 916.2 942 916.2 942 916.2 1106 c 0,16,17
 916.2 1211 916.2 1211 859.95 1269 c 128,-1,18
 803.7 1327 803.7 1327 702 1327 c 2,19,-1
 464.4 1327 l 1,11,-1
EndSplineSet
KernsSLIFO: 193 -102 0 0 194 -102 0 0 195 -102 0 0 192 -102 0 0 196 -102 0 0 65 -102 0 0 59 -36 0 0 58 -36 0 0 46 -282 0 0 45 -112 0 0 44 -282 0 0
EndChar
StartChar: Q
Encoding: 81 81 81
Width: 1450
Flags: W
AnchorPoint: "above" 882.349 1520 basechar 0
AnchorPoint: "below" 616.437 0 basechar 0
Fore
665.1 -27 m 1,0,1
 655.2 -28 655.2 -28 644.4 -28.5 c 128,-1,2
 633.6 -29 633.6 -29 612 -29 c 0,3,4
 360 -29 360 -29 217.8 131.5 c 128,-1,5
 75.5996 292 75.5996 292 75.5996 575 c 0,6,7
 75.5996 742 75.5996 742 130.05 910 c 128,-1,8
 184.5 1078 184.5 1078 281.7 1212 c 0,9,10
 394.2 1366 394.2 1366 535.05 1443 c 128,-1,11
 675.9 1520 675.9 1520 846 1520 c 0,12,13
 1092.6 1520 1092.6 1520 1234.8 1358.5 c 128,-1,14
 1377 1197 1377 1197 1377 918 c 0,15,16
 1377 617 1377 617 1228.5 367 c 128,-1,17
 1080 117 1080 117 840.6 14 c 1,18,-1
 1023.3 -264 l 1,19,-1
 819.9 -264 l 1,20,-1
 665.1 -27 l 1,0,1
840.6 1356 m 0,21,22
 691.2 1356 691.2 1356 576.9 1275.5 c 128,-1,23
 462.6 1195 462.6 1195 378 1030 c 0,24,25
 324 925 324 925 295.65 807 c 128,-1,26
 267.3 689 267.3 689 267.3 569 c 0,27,28
 267.3 361 267.3 361 356.85 248 c 128,-1,29
 446.4 135 446.4 135 610.2 135 c 0,30,31
 757.8 135 757.8 135 873.45 216.5 c 128,-1,32
 989.1 298 989.1 298 1071 459 c 0,33,34
 1125.9 567 1125.9 567 1154.7 685.5 c 128,-1,35
 1183.5 804 1183.5 804 1183.5 922 c 0,36,37
 1183.5 1129 1183.5 1129 1093.5 1242.5 c 128,-1,38
 1003.5 1356 1003.5 1356 840.6 1356 c 0,21,22
EndSplineSet
KernsSLIFO: 45 38 0 0
EndChar
StartChar: R
Encoding: 82 82 82
Width: 1280
Flags: W
AnchorPoint: "above" 706.169 1506 basechar 0
AnchorPoint: "below" 442.706 0 basechar 0
Fore
464.4 1327 m 1,0,-1
 372.6 797 l 1,1,-1
 606.6 797 l 2,2,3
 744.3 797 744.3 797 829.35 881.5 c 128,-1,4
 914.4 966 914.4 966 914.4 1102 c 0,5,6
 914.4 1211 914.4 1211 857.25 1269 c 128,-1,7
 800.1 1327 800.1 1327 693 1327 c 2,8,-1
 464.4 1327 l 1,0,-1
798.3 717 m 1,9,10
 855.9 702 855.9 702 894.15 643 c 128,-1,11
 932.4 584 932.4 584 982.8 408 c 1,12,-1
 1097.1 0 l 1,13,-1
 905.4 0 l 1,14,-1
 800.1 383 l 2,15,16
 759.6 531 759.6 531 706.5 581 c 128,-1,17
 653.4 631 653.4 631 543.6 631 c 2,18,-1
 342.9 631 l 1,19,-1
 232.2 0 l 1,20,-1
 49.5 0 l 1,21,-1
 311.4 1493 l 1,22,-1
 720.9 1493 l 2,23,24
 907.2 1493 907.2 1493 1006.65 1399.5 c 128,-1,25
 1106.1 1306 1106.1 1306 1106.1 1130 c 0,26,27
 1106.1 974 1106.1 974 1021.5 860 c 128,-1,28
 936.9 746 936.9 746 798.3 717 c 1,9,10
EndSplineSet
EndChar
StartChar: S
Encoding: 83 83 83
Width: 1170
Flags: W
AnchorPoint: "below" 462.681 0 basechar 0
AnchorPoint: "above" 716.4 1520 basechar 0
Fore
1111.5 1444 m 1,0,-1
 1076.4 1247 l 1,1,2
 985.5 1301 985.5 1301 895.95 1328.5 c 128,-1,3
 806.4 1356 806.4 1356 722.7 1356 c 0,4,5
 559.8 1356 559.8 1356 463.5 1277 c 128,-1,6
 367.2 1198 367.2 1198 367.2 1067 c 0,7,8
 367.2 995 367.2 995 402.75 956.5 c 128,-1,9
 438.3 918 438.3 918 585.9 874 c 1,10,-1
 694.8 844 l 2,11,12
 879.3 791 879.3 791 951.3 709.5 c 128,-1,13
 1023.3 628 1023.3 628 1023.3 481 c 0,14,15
 1023.3 255 1023.3 255 863.55 113 c 128,-1,16
 703.8 -29 703.8 -29 442.8 -29 c 0,17,18
 335.7 -29 335.7 -29 227.7 -5.5 c 128,-1,19
 119.7 18 119.7 18 10.7998 66 c 1,20,-1
 47.7002 274 l 1,21,22
 147.6 205 147.6 205 247.95 170 c 128,-1,23
 348.3 135 348.3 135 448.2 135 c 0,24,25
 618.3 135 618.3 135 720.9 219 c 128,-1,26
 823.5 303 823.5 303 823.5 438 c 0,27,28
 823.5 528 823.5 528 782.55 574.5 c 128,-1,29
 741.6 621 741.6 621 606.6 659 c 2,30,-1
 497.7 690 l 2,31,32
 311.4 744 311.4 744 243.45 814.5 c 128,-1,33
 175.5 885 175.5 885 175.5 1012 c 0,34,35
 175.5 1235 175.5 1235 329.85 1377.5 c 128,-1,36
 484.2 1520 484.2 1520 731.7 1520 c 0,37,38
 828 1520 828 1520 922.5 1501 c 128,-1,39
 1017 1482 1017 1482 1111.5 1444 c 1,0,-1
EndSplineSet
KernsSLIFO: 350 -73 0 0 352 -73 0 0 83 -73 0 0
EndChar
StartChar: T
Encoding: 84 84 84
Width: 1125
Flags: W
AnchorPoint: "below" 433.706 0 basechar 0
AnchorPoint: "above" 693.9 1520 basechar 0
Fore
108.9 1493 m 1,0,-1
 1245.6 1493 l 1,1,-1
 1216.8 1323 l 1,2,-1
 737.1 1323 l 1,3,-1
 506.7 0 l 1,4,-1
 324 0 l 1,5,-1
 554.4 1323 l 1,6,-1
 79.2002 1323 l 1,7,-1
 108.9 1493 l 1,0,-1
EndSplineSet
KernsSLIFO: 252 -206 0 0 229 -215 0 0 230 -253 0 0 59 -188 0 0 242 -253 0 0 45 -292 0 0 46 -243 0 0 367 -206 0 0 245 -253 0 0 235 -253 0 0 249 -206 0 0 58 -188 0 0 224 -215 0 0 195 -188 0 0 234 -253 0 0 231 -253 0 0 341 -159 0 0 232 -253 0 0 196 -188 0 0 193 -188 0 0 269 -253 0 0 251 -206 0 0 253 -178 0 0 227 -215 0 0 194 -188 0 0 248 -253 0 0 244 -253 0 0 353 -243 0 0 65 -188 0 0 283 -253 0 0 351 -243 0 0 228 -215 0 0 119 -167 0 0 246 -253 0 0 250 -206 0 0 263 -253 0 0 225 -215 0 0 345 -159 0 0 226 -215 0 0 233 -253 0 0 97 -215 0 0 99 -253 0 0 101 -253 0 0 339 -253 0 0 255 -178 0 0 111 -253 0 0 115 -243 0 0 114 -159 0 0 117 -206 0 0 192 -188 0 0 121 -178 0 0 44 -243 0 0 243 -253 0 0
EndChar
StartChar: U
Encoding: 85 85 85
Width: 1349
Flags: W
AnchorPoint: "below" 546.942 0 basechar 0
AnchorPoint: "above" 804.6 1520 basechar 0
Fore
285.3 1493 m 1,0,-1
 468 1493 l 1,1,-1
 309.6 586 l 1,2,3
 299.7 525 299.7 525 295.65 485.5 c 128,-1,4
 291.6 446 291.6 446 291.6 416 c 0,5,6
 291.6 278 291.6 278 360.9 206.5 c 128,-1,7
 430.2 135 430.2 135 564.3 135 c 0,8,9
 738 135 738 135 834.75 241 c 128,-1,10
 931.5 347 931.5 347 972.9 586 c 1,11,-1
 1131.3 1493 l 1,12,-1
 1314 1493 l 1,13,-1
 1152 561 l 1,14,15
 1098.9 259 1098.9 259 950.4 115 c 128,-1,16
 801.9 -29 801.9 -29 543.6 -29 c 0,17,18
 342 -29 342 -29 224.55 83.5 c 128,-1,19
 107.1 196 107.1 196 107.1 389 c 0,20,21
 107.1 424 107.1 424 111.6 467.5 c 128,-1,22
 116.1 511 116.1 511 125.1 561 c 1,23,-1
 285.3 1493 l 1,0,-1
EndSplineSet
EndChar
StartChar: V
Encoding: 86 86 86
Width: 1260
Flags: W
AnchorPoint: "above" 765.318 1520 basechar 0
AnchorPoint: "below" 499.406 0 basechar 0
Fore
379.8 0 m 1,0,-1
 144 1493 l 1,1,-1
 322.2 1493 l 1,2,-1
 517.5 209 l 1,3,-1
 1170 1493 l 1,4,-1
 1368 1493 l 1,5,-1
 591.3 0 l 1,6,-1
 379.8 0 l 1,0,-1
EndSplineSet
KernsSLIFO: 367 -36 0 0 283 -120 0 0 193 -139 0 0 194 -139 0 0 339 -120 0 0 195 -139 0 0 192 -139 0 0 248 -120 0 0 230 -149 0 0 252 -36 0 0 251 -36 0 0 249 -36 0 0 250 -36 0 0 245 -120 0 0 246 -120 0 0 244 -120 0 0 242 -120 0 0 243 -120 0 0 235 -120 0 0 234 -120 0 0 232 -120 0 0 233 -120 0 0 229 -131 0 0 227 -131 0 0 228 -131 0 0 226 -131 0 0 224 -131 0 0 225 -131 0 0 196 -139 0 0 117 -36 0 0 111 -120 0 0 101 -120 0 0 97 -131 0 0 65 -139 0 0 59 -55 0 0 58 -55 0 0 46 -235 0 0 45 -178 0 0 44 -235 0 0
EndChar
StartChar: W
Encoding: 87 87 87
Width: 1822
Flags: W
AnchorPoint: "below" 781.106 0 basechar 0
AnchorPoint: "above" 1044.9 1527 basechar 0
Fore
177.3 1493 m 1,0,-1
 353.7 1493 l 1,1,-1
 418.5 223 l 1,2,-1
 925.2 1493 l 1,3,-1
 1127.7 1493 l 1,4,-1
 1194.3 223 l 1,5,-1
 1695.6 1493 l 1,6,-1
 1880.1 1493 l 1,7,-1
 1282.5 0 l 1,8,-1
 1053.9 0 l 1,9,-1
 991.8 1245 l 1,10,-1
 488.7 0 l 1,11,-1
 260.1 0 l 1,12,-1
 177.3 1493 l 1,0,-1
EndSplineSet
KernsSLIFO: 229 -112 0 0 230 -112 0 0 45 -159 0 0 46 -167 0 0 44 -167 0 0 224 -112 0 0 195 -102 0 0 341 -36 0 0 8221 -36 0 0 196 -102 0 0 193 -102 0 0 8217 -36 0 0 227 -112 0 0 194 -102 0 0 65 -102 0 0 228 -112 0 0 225 -112 0 0 345 -36 0 0 226 -112 0 0 97 -112 0 0 114 -36 0 0 192 -102 0 0
EndChar
StartChar: X
Encoding: 88 88 88
Width: 1262
Flags: W
AnchorPoint: "above" 780.618 1520 basechar 0
AnchorPoint: "below" 514.706 0 basechar 0
Fore
252.9 1493 m 1,0,-1
 436.5 1493 l 1,1,-1
 666.9 954 l 1,2,-1
 1083.6 1493 l 1,3,-1
 1296 1493 l 1,4,-1
 742.5 780 l 1,5,-1
 1076.4 0 l 1,6,-1
 893.7 0 l 1,7,-1
 622.8 629 l 1,8,-1
 132.3 0 l 1,9,-1
 -79.2002 0 l 1,10,-1
 549 803 l 1,11,-1
 252.9 1493 l 1,0,-1
EndSplineSet
KernsSLIFO: 268 -36 0 0 262 -36 0 0 210 -73 0 0 212 -73 0 0 211 -73 0 0 338 -55 0 0 213 -73 0 0 216 -36 0 0 214 -73 0 0 199 -36 0 0 79 -73 0 0 67 -36 0 0 45 -188 0 0
EndChar
StartChar: Y
Encoding: 89 89 89
Width: 1125
Flags: W
AnchorPoint: "below" 432.807 0 basechar 0
AnchorPoint: "above" 690.3 1527 basechar 0
Fore
116.1 1493 m 1,0,-1
 311.4 1493 l 1,1,-1
 562.5 879 l 1,2,-1
 1041.3 1493 l 1,3,-1
 1245.6 1493 l 1,4,-1
 636.3 711 l 1,5,-1
 512.1 0 l 1,6,-1
 330.3 0 l 1,7,-1
 453.6 711 l 1,8,-1
 116.1 1493 l 1,0,-1
EndSplineSet
KernsSLIFO: 367 -188 0 0 283 -225 0 0 268 -36 0 0 262 -36 0 0 210 -36 0 0 212 -36 0 0 211 -36 0 0 193 -159 0 0 194 -159 0 0 8216 -45 0 0 8220 -45 0 0 339 -225 0 0 338 -36 0 0 213 -36 0 0 195 -159 0 0 192 -159 0 0 248 -225 0 0 230 -188 0 0 216 -36 0 0 252 -188 0 0 251 -188 0 0 249 -188 0 0 250 -188 0 0 245 -225 0 0 246 -225 0 0 244 -225 0 0 242 -225 0 0 243 -225 0 0 235 -225 0 0 234 -225 0 0 232 -225 0 0 233 -225 0 0 229 -188 0 0 227 -188 0 0 228 -188 0 0 226 -188 0 0 224 -188 0 0 225 -188 0 0 214 -36 0 0 199 -36 0 0 196 -159 0 0 117 -188 0 0 111 -225 0 0 105 -36 0 0 101 -225 0 0 97 -188 0 0 79 -36 0 0 67 -36 0 0 65 -159 0 0 59 -178 0 0 58 -178 0 0 46 -264 0 0 45 -282 0 0 44 -264 0 0
EndChar
StartChar: Z
Encoding: 90 90 90
Width: 1262
Flags: W
AnchorPoint: "below" 501.206 0 basechar 0
AnchorPoint: "above" 762.3 1520 basechar 0
Fore
241.2 1493 m 1,0,-1
 1296 1493 l 1,1,-1
 1269.9 1339 l 1,2,-1
 228.6 170 l 1,3,-1
 1085.4 170 l 1,4,-1
 1056.6 0 l 1,5,-1
 -40.5 0 l 1,6,-1
 -14.4004 154 l 1,7,-1
 1026.9 1323 l 1,8,-1
 212.4 1323 l 1,9,-1
 241.2 1493 l 1,0,-1
EndSplineSet
KernsSLIFO: 45 -102 0 0
EndChar
StartChar: bracketleft
Encoding: 91 91 91
Width: 719
Flags: W
Fore
392.4 1556 m 1,0,-1
 774 1556 l 1,1,-1
 747.9 1413 l 1,2,-1
 532.8 1413 l 1,3,-1
 263.7 -127 l 1,4,-1
 478.8 -127 l 1,5,-1
 455.4 -270 l 1,6,-1
 73.7998 -270 l 1,7,-1
 392.4 1556 l 1,0,-1
EndSplineSet
EndChar
StartChar: backslash
Encoding: 92 92 92
Width: 621
Flags: W
Fore
309.6 1493 m 1,0,-1
 483.3 -190 l 1,1,-1
 332.1 -190 l 1,2,-1
 156.6 1493 l 1,3,-1
 309.6 1493 l 1,0,-1
EndSplineSet
EndChar
StartChar: bracketright
Encoding: 93 93 93
Width: 719
Flags: W
Fore
630 1556 m 1,0,-1
 311.4 -270 l 1,1,-1
 -70.2002 -270 l 1,2,-1
 -45.9004 -127 l 1,3,-1
 169.2 -127 l 1,4,-1
 438.3 1413 l 1,5,-1
 225 1413 l 1,6,-1
 248.4 1556 l 1,7,-1
 630 1556 l 1,0,-1
EndSplineSet
EndChar
StartChar: asciicircum
Encoding: 94 94 94
Width: 1544
Flags: W
Fore
860.4 1493 m 1,0,-1
 1349.1 936 l 1,1,-1
 1168.2 936 l 1,2,-1
 772.2 1331 l 1,3,-1
 376.2 936 l 1,4,-1
 195.3 936 l 1,5,-1
 684 1493 l 1,6,-1
 860.4 1493 l 1,0,-1
EndSplineSet
EndChar
StartChar: underscore
Encoding: 95 95 95
Width: 921
Flags: W
Fore
939.6 -340 m 1,0,-1
 939.6 -483 l 1,1,-1
 -18 -483 l 1,2,-1
 -18 -340 l 1,3,-1
 939.6 -340 l 1,0,-1
EndSplineSet
EndChar
StartChar: grave
Encoding: 96 96 96
Width: 921
Flags: W
Fore
527.4 1638 m 1,0,-1
 715.5 1264 l 1,1,-1
 576.9 1264 l 1,2,-1
 350.1 1638 l 1,3,-1
 527.4 1638 l 1,0,-1
EndSplineSet
EndChar
StartChar: a
Encoding: 97 97 97
Width: 1129
Flags: W
AnchorPoint: "below" 450 0 basechar 0
AnchorPoint: "above" 646.2 1147 basechar 0
Fore
990 639 m 1,0,-1
 877.5 0 l 1,1,-1
 711.9 0 l 1,2,-1
 742.5 170 l 1,3,4
 669.6 70 669.6 70 576.45 20.5 c 128,-1,5
 483.3 -29 483.3 -29 369 -29 c 0,6,7
 240.3 -29 240.3 -29 157.95 58.5 c 128,-1,8
 75.5996 146 75.5996 146 75.5996 283 c 0,9,10
 75.5996 479 75.5996 479 216.45 593 c 128,-1,11
 357.3 707 357.3 707 604.8 707 c 2,12,-1
 835.2 707 l 1,13,-1
 844.2 756 l 1,14,15
 846 764 846 764 846.9 773.5 c 128,-1,16
 847.8 783 847.8 783 847.8 803 c 0,17,18
 847.8 892 847.8 892 782.55 941.5 c 128,-1,19
 717.3 991 717.3 991 599.4 991 c 0,20,21
 518.4 991 518.4 991 433.35 968 c 128,-1,22
 348.3 945 348.3 945 258.3 899 c 1,23,-1
 287.1 1069 l 1,24,25
 380.7 1108 380.7 1108 470.25 1127.5 c 128,-1,26
 559.8 1147 559.8 1147 643.5 1147 c 0,27,28
 821.7 1147 821.7 1147 914.85 1061 c 128,-1,29
 1008 975 1008 975 1008 811 c 0,30,31
 1008 778 1008 778 1003.5 733.5 c 128,-1,32
 999 689 999 689 990 639 c 1,0,-1
810.9 563 m 1,33,-1
 645.3 563 l 2,34,35
 441.9 563 441.9 563 344.25 502.5 c 128,-1,36
 246.6 442 246.6 442 246.6 315 c 0,37,38
 246.6 227 246.6 227 296.55 177 c 128,-1,39
 346.5 127 346.5 127 434.7 127 c 0,40,41
 569.7 127 569.7 127 670.5 234.5 c 128,-1,42
 771.3 342 771.3 342 803.7 522 c 2,43,-1
 810.9 563 l 1,33,-1
EndSplineSet
Substitution: 0 2 'salt' uni0251
Substitution: 0 2 'aalt' uni0251
EndChar
StartChar: b
Encoding: 98 98 98
Width: 1170
Flags: W
AnchorPoint: "above" 418.544 1520 basechar 0
AnchorPoint: "below" 527.932 0 basechar 0
Fore
912.6 684 m 0,0,1
 912.6 829 912.6 829 852.75 911 c 128,-1,2
 792.9 993 792.9 993 687.6 993 c 0,3,4
 611.1 993 611.1 993 544.05 951.5 c 128,-1,5
 477 910 477 910 427.5 831 c 0,6,7
 375.3 748 375.3 748 345.15 638.5 c 128,-1,8
 315 529 315 529 315 420 c 0,9,10
 315 282 315 282 373.95 203.5 c 128,-1,11
 432.9 125 432.9 125 536.4 125 c 0,12,13
 614.7 125 614.7 125 681.3 165.5 c 128,-1,14
 747.9 206 747.9 206 798.3 285 c 0,15,16
 849.6 367 849.6 367 881.1 476 c 128,-1,17
 912.6 585 912.6 585 912.6 684 c 0,0,1
397.8 950 m 1,18,19
 459 1042 459 1042 551.25 1094.5 c 128,-1,20
 643.5 1147 643.5 1147 744.3 1147 c 0,21,22
 899.1 1147 899.1 1147 990.45 1031 c 128,-1,23
 1081.8 915 1081.8 915 1081.8 717 c 0,24,25
 1081.8 555 1081.8 555 1028.25 403 c 128,-1,26
 974.7 251 974.7 251 875.7 133 c 0,27,28
 810.9 55 810.9 55 726.3 13 c 128,-1,29
 641.7 -29 641.7 -29 549 -29 c 0,30,31
 450.9 -29 450.9 -29 378.9 21 c 128,-1,32
 306.9 71 306.9 71 261.9 170 c 1,33,-1
 232.2 0 l 1,34,-1
 66.5996 0 l 1,35,-1
 339.3 1556 l 1,36,-1
 504.9 1556 l 1,37,-1
 397.8 950 l 1,18,19
EndSplineSet
EndChar
StartChar: c
Encoding: 99 99 99
Width: 1013
Flags: W
AnchorPoint: "below" 505.8 0 basechar 0
AnchorPoint: "above" 693 1147 basechar 0
Fore
988.2 1077 m 1,0,-1
 954.9 895 l 1,1,2
 895.5 943 895.5 943 828.45 967 c 128,-1,3
 761.4 991 761.4 991 689.4 991 c 0,4,5
 610.2 991 610.2 991 538.65 960 c 128,-1,6
 467.1 929 467.1 929 418.5 872 c 1,7,8
 341.1 785 341.1 785 298.8 668 c 128,-1,9
 256.5 551 256.5 551 256.5 426 c 0,10,11
 256.5 275 256.5 275 324.45 201 c 128,-1,12
 392.4 127 392.4 127 531 127 c 0,13,14
 599.4 127 599.4 127 676.35 150 c 128,-1,15
 753.3 173 753.3 173 837 219 c 1,16,-1
 805.5 37 l 1,17,18
 733.5 4 733.5 4 657.45 -12.5 c 128,-1,19
 581.4 -29 581.4 -29 501.3 -29 c 0,20,21
 300.6 -29 300.6 -29 192.6 82.5 c 128,-1,22
 84.5996 194 84.5996 194 84.5996 401 c 0,23,24
 84.5996 575 84.5996 575 140.85 721.5 c 128,-1,25
 197.1 868 197.1 868 307.8 985 c 0,26,27
 383.4 1065 383.4 1065 485.1 1106 c 128,-1,28
 586.8 1147 586.8 1147 707.4 1147 c 0,29,30
 777.6 1147 777.6 1147 846.9 1129.5 c 128,-1,31
 916.2 1112 916.2 1112 988.2 1077 c 1,0,-1
EndSplineSet
EndChar
StartChar: d
Encoding: 100 100 100
Width: 1170
Flags: W
AnchorPoint: "above" 1077.34 1520 basechar 0
AnchorPoint: "below" 444.231 0 basechar 0
Fore
770.4 168 m 1,0,1
 703.8 71 703.8 71 612.9 21 c 128,-1,2
 522 -29 522 -29 411.3 -29 c 0,3,4
 260.1 -29 260.1 -29 172.35 85.5 c 128,-1,5
 84.5996 200 84.5996 200 84.5996 399 c 0,6,7
 84.5996 565 84.5996 565 137.7 715.5 c 128,-1,8
 190.8 866 190.8 866 291.6 985 c 0,9,10
 358.2 1064 358.2 1064 441.9 1105.5 c 128,-1,11
 525.6 1147 525.6 1147 617.4 1147 c 0,12,13
 714.6 1147 714.6 1147 788.85 1095 c 128,-1,14
 863.1 1043 863.1 1043 903.6 946 c 1,15,-1
 1011.6 1556 l 1,16,-1
 1178.1 1556 l 1,17,-1
 905.4 0 l 1,18,-1
 738.9 0 l 1,19,-1
 770.4 168 l 1,0,1
256.5 432 m 0,20,21
 256.5 287 256.5 287 315.45 206 c 128,-1,22
 374.4 125 374.4 125 478.8 125 c 0,23,24
 556.2 125 556.2 125 622.35 166.5 c 128,-1,25
 688.5 208 688.5 208 738.9 289 c 0,26,27
 792 373 792 373 822.6 483 c 128,-1,28
 853.2 593 853.2 593 853.2 700 c 0,29,30
 853.2 839 853.2 839 794.25 917 c 128,-1,31
 735.3 995 735.3 995 631.8 995 c 0,32,33
 553.5 995 553.5 995 486 954 c 128,-1,34
 418.5 913 418.5 913 370.8 836 c 0,35,36
 318.6 753 318.6 753 287.55 643 c 128,-1,37
 256.5 533 256.5 533 256.5 432 c 0,20,21
EndSplineSet
EndChar
StartChar: e
Encoding: 101 101 101
Width: 1134
Flags: W
AnchorPoint: "below" 482.4 0 basechar 0
AnchorPoint: "above" 656.1 1147 basechar 0
Fore
886.5 660 m 1,0,1
 889.2 676 889.2 676 890.55 693 c 128,-1,2
 891.9 710 891.9 710 891.9 727 c 0,3,4
 891.9 849 891.9 849 827.55 920 c 128,-1,5
 763.2 991 763.2 991 652.5 991 c 0,6,7
 529.2 991 529.2 991 434.7 904.5 c 128,-1,8
 340.2 818 340.2 818 291.6 659 c 1,9,-1
 886.5 660 l 1,0,1
1030.5 516 m 1,10,-1
 260.1 516 l 1,11,12
 254.7 478 254.7 478 252.9 456 c 128,-1,13
 251.1 434 251.1 434 251.1 418 c 0,14,15
 251.1 279 251.1 279 328.05 203 c 128,-1,16
 405 127 405 127 545.4 127 c 0,17,18
 653.4 127 653.4 127 749.7 154 c 128,-1,19
 846 181 846 181 928.8 233 c 1,20,-1
 897.3 51 l 1,21,22
 808.2 11 808.2 11 713.25 -9 c 128,-1,23
 618.3 -29 618.3 -29 520.2 -29 c 0,24,25
 310.5 -29 310.5 -29 197.55 82.5 c 128,-1,26
 84.5996 194 84.5996 194 84.5996 399 c 0,27,28
 84.5996 574 84.5996 574 140.85 724.5 c 128,-1,29
 197.1 875 197.1 875 306 993 c 1,30,31
 376.2 1067 376.2 1067 472.95 1107 c 128,-1,32
 569.7 1147 569.7 1147 678.6 1147 c 0,33,34
 849.6 1147 849.6 1147 950.85 1033 c 128,-1,35
 1052.1 919 1052.1 919 1052.1 727 c 0,36,37
 1052.1 681 1052.1 681 1046.7 628.5 c 128,-1,38
 1041.3 576 1041.3 576 1030.5 516 c 1,10,-1
EndSplineSet
EndChar
StartChar: f
Encoding: 102 102 102
Width: 648
Flags: W
AnchorPoint: "above" 474.507 1520 basechar 0
AnchorPoint: "below" 208.595 0 basechar 0
Fore
881.1 1556 m 1,0,-1
 855 1403 l 1,1,-1
 696.6 1403 l 2,2,3
 606.6 1403 606.6 1403 565.65 1363.5 c 128,-1,4
 524.7 1324 524.7 1324 504.9 1219 c 1,5,-1
 486.9 1120 l 1,6,-1
 759.6 1120 l 1,7,-1
 735.3 977 l 1,8,-1
 462.6 977 l 1,9,-1
 291.6 0 l 1,10,-1
 125.1 0 l 1,11,-1
 297 977 l 1,12,-1
 138.6 977 l 1,13,-1
 162 1120 l 1,14,-1
 320.4 1120 l 1,15,-1
 333.9 1198 l 2,16,17
 368.1 1396 368.1 1396 454.05 1476 c 128,-1,18
 540 1556 540 1556 724.5 1556 c 2,19,-1
 881.1 1556 l 1,0,-1
EndSplineSet
KernsSLIFO: 8217 94 0 0 8216 141 0 0 8221 94 0 0 8220 141 0 0 46 -36 0 0 45 -36 0 0 44 -36 0 0
EndChar
StartChar: g
Encoding: 103 103 103
Width: 1170
Flags: W
AnchorPoint: "below" 448.2 -430 basechar 0
AnchorPoint: "above" 681.3 1147 basechar 0
Fore
1098.9 1120 m 1,0,-1
 927 139 l 1,1,2
 877.5 -146 877.5 -146 737.55 -286 c 128,-1,3
 597.6 -426 597.6 -426 360.9 -426 c 0,4,5
 273.6 -426 273.6 -426 198.9 -411.5 c 128,-1,6
 124.2 -397 124.2 -397 59.4004 -367 c 1,7,-1
 90 -188 l 1,8,9
 151.2 -232 151.2 -232 219.6 -253 c 128,-1,10
 288 -274 288 -274 365.4 -274 c 0,11,12
 522.9 -274 522.9 -274 624.15 -178.5 c 128,-1,13
 725.4 -83 725.4 -83 757.8 96 c 1,14,-1
 772.2 180 l 1,15,16
 702.9 92 702.9 92 611.1 46 c 128,-1,17
 519.3 0 519.3 0 413.1 0 c 0,18,19
 260.1 0 260.1 0 172.35 112.5 c 128,-1,20
 84.5996 225 84.5996 225 84.5996 422 c 0,21,22
 84.5996 577 84.5996 577 137.7 725.5 c 128,-1,23
 190.8 874 190.8 874 287.1 989 c 0,24,25
 351 1065 351 1065 436.05 1106 c 128,-1,26
 521.1 1147 521.1 1147 613.8 1147 c 0,27,28
 715.5 1147 715.5 1147 791.1 1094.5 c 128,-1,29
 866.7 1042 866.7 1042 903.6 946 c 1,30,-1
 932.4 1120 l 1,31,-1
 1098.9 1120 l 1,0,-1
849.6 709 m 0,32,33
 849.6 845 849.6 845 792 919 c 128,-1,34
 734.4 993 734.4 993 628.2 993 c 0,35,36
 562.5 993 562.5 993 503.1 964 c 128,-1,37
 443.7 935 443.7 935 401.4 883 c 0,38,39
 333 797 333 797 294.75 680.5 c 128,-1,40
 256.5 564 256.5 564 256.5 440 c 0,41,42
 256.5 302 256.5 302 314.55 228 c 128,-1,43
 372.6 154 372.6 154 481.5 154 c 0,44,45
 639 154 639 154 744.3 312.5 c 128,-1,46
 849.6 471 849.6 471 849.6 709 c 0,32,33
EndSplineSet
EndChar
StartChar: h
Encoding: 104 104 104
Width: 1168
Flags: W
AnchorPoint: "below" 474.095 0 basechar 0
AnchorPoint: "above" 408.6 1520 basechar 0
Fore
1026.9 676 m 1,0,-1
 909 0 l 1,1,-1
 742.5 0 l 1,2,-1
 860.4 669 l 2,3,4
 868.5 716 868.5 716 873 752 c 128,-1,5
 877.5 788 877.5 788 877.5 809 c 0,6,7
 877.5 893 877.5 893 829.8 940 c 128,-1,8
 782.1 987 782.1 987 696.6 987 c 0,9,10
 563.4 987 563.4 987 465.75 887 c 128,-1,11
 368.1 787 368.1 787 339.3 621 c 1,12,-1
 230.4 0 l 1,13,-1
 64.7998 0 l 1,14,-1
 337.5 1556 l 1,15,-1
 503.1 1556 l 1,16,-1
 396 944 l 1,17,18
 459 1038 459 1038 557.1 1092.5 c 128,-1,19
 655.2 1147 655.2 1147 763.2 1147 c 0,20,21
 896.4 1147 896.4 1147 969.75 1067 c 128,-1,22
 1043.1 987 1043.1 987 1043.1 842 c 0,23,24
 1043.1 806 1043.1 806 1039.05 765 c 128,-1,25
 1035 724 1035 724 1026.9 676 c 1,0,-1
EndSplineSet
EndChar
StartChar: i
Encoding: 105 105 105
Width: 512
Flags: W
AnchorPoint: "below" 140.194 0 basechar 0
AnchorPoint: "above" 415.476 1567 basechar 0
Fore
337.5 1556 m 1,0,-1
 503.1 1556 l 1,1,-1
 462.6 1323 l 1,2,-1
 297 1323 l 1,3,-1
 337.5 1556 l 1,0,-1
261.9 1120 m 1,4,-1
 427.5 1120 l 1,5,-1
 230.4 0 l 1,6,-1
 64.7998 0 l 1,7,-1
 261.9 1120 l 1,4,-1
EndSplineSet
Substitution: 0 65534 's001' dotlessi
EndChar
StartChar: j
Encoding: 106 106 106
Width: 512
Flags: W
AnchorPoint: "below" 84.2324 -430 basechar 0
AnchorPoint: "above" 417.725 1585 basechar 0
Fore
267.3 1120 m 1,0,-1
 432.9 1120 l 1,1,-1
 234 -20 l 1,2,-1
 233.1 -25 l 2,3,4
 199.8 -216 199.8 -216 156.6 -287 c 0,5,6
 116.1 -354 116.1 -354 38.25 -390 c 128,-1,7
 -39.5996 -426 -39.5996 -426 -145.8 -426 c 2,8,-1
 -207.9 -426 l 1,9,-1
 -180.9 -270 l 1,10,-1
 -138.6 -270 l 2,11,12
 -41.4004 -270 -41.4004 -270 -0.450195 -225 c 128,-1,13
 40.5 -180 40.5 -180 68.4004 -20 c 2,14,-1
 267.3 1120 l 1,0,-1
344.7 1556 m 1,15,-1
 510.3 1556 l 1,16,-1
 469.8 1323 l 1,17,-1
 304.2 1323 l 1,18,-1
 344.7 1556 l 1,15,-1
EndSplineSet
Substitution: 0 65534 's001' dotlessj
EndChar
StartChar: k
Encoding: 107 107 107
Width: 1067
Flags: W
AnchorPoint: "above" 407.007 1520 basechar 0
AnchorPoint: "below" 501.095 0 basechar 0
Fore
337.5 1556 m 1,0,-1
 503.1 1556 l 1,1,-1
 344.7 649 l 1,2,-1
 912.6 1120 l 1,3,-1
 1127.7 1120 l 1,4,-1
 494.1 584 l 1,5,-1
 956.7 0 l 1,6,-1
 756 0 l 1,7,-1
 325.8 547 l 1,8,-1
 230.4 0 l 1,9,-1
 64.7998 0 l 1,10,-1
 337.5 1556 l 1,0,-1
EndSplineSet
EndChar
StartChar: l
Encoding: 108 108 108
Width: 512
Flags: W
AnchorPoint: "above" 407.007 1520 basechar 0
AnchorPoint: "below" 141.095 0 basechar 0
Fore
337.5 1556 m 1,0,-1
 503.1 1556 l 1,1,-1
 230.4 0 l 1,2,-1
 64.7998 0 l 1,3,-1
 337.5 1556 l 1,0,-1
EndSplineSet
AlternateSubs: 0 2 'aalt' l.alt
Substitution: 0 2 'salt' l.alt
EndChar
StartChar: m
Encoding: 109 109 109
Width: 1795
Flags: W
AnchorPoint: "above" 1001.23 1147 basechar 0
AnchorPoint: "below" 800.57 0 basechar 0
Fore
1655.1 676 m 2,0,-1
 1537.2 0 l 1,1,-1
 1371.6 0 l 1,2,-1
 1487.7 670 l 1,3,4
 1494.9 713 1494.9 713 1498.5 744 c 128,-1,5
 1502.1 775 1502.1 775 1502.1 797 c 0,6,7
 1502.1 887 1502.1 887 1457.1 937 c 128,-1,8
 1412.1 987 1412.1 987 1331.1 987 c 0,9,10
 1210.5 987 1210.5 987 1116 886.5 c 128,-1,11
 1021.5 786 1021.5 786 993.6 625 c 1,12,-1
 882.9 0 l 1,13,-1
 717.3 0 l 1,14,-1
 835.2 670 l 1,15,16
 842.4 707 842.4 707 846 738.5 c 128,-1,17
 849.6 770 849.6 770 849.6 795 c 0,18,19
 849.6 886 849.6 886 804.6 936.5 c 128,-1,20
 759.6 987 759.6 987 680.4 987 c 0,21,22
 558 987 558 987 463.5 886.5 c 128,-1,23
 369 786 369 786 341.1 625 c 1,24,-1
 230.4 0 l 1,25,-1
 64.7998 0 l 1,26,-1
 261.9 1120 l 1,27,-1
 427.5 1120 l 1,28,-1
 396 946 l 1,29,30
 463.5 1044 463.5 1044 553.95 1095.5 c 128,-1,31
 644.4 1147 644.4 1147 747.9 1147 c 0,32,33
 857.7 1147 857.7 1147 928.35 1083 c 128,-1,34
 999 1019 999 1019 1013.4 905 c 1,35,36
 1089 1023 1089 1023 1188.45 1085 c 128,-1,37
 1287.9 1147 1287.9 1147 1398.6 1147 c 0,38,39
 1528.2 1147 1528.2 1147 1598.85 1064 c 128,-1,40
 1669.5 981 1669.5 981 1669.5 829 c 0,41,42
 1669.5 796 1669.5 796 1665.9 756.5 c 128,-1,43
 1662.3 717 1662.3 717 1655.1 676 c 2,0,-1
EndSplineSet
EndChar
StartChar: n
Encoding: 110 110 110
Width: 1168
Flags: W
AnchorPoint: "below" 509.87 0 basechar 0
AnchorPoint: "above" 674.1 1147 basechar 0
Fore
1026.9 676 m 1,0,-1
 909 0 l 1,1,-1
 742.5 0 l 1,2,-1
 860.4 669 l 2,3,4
 868.5 716 868.5 716 873 752 c 128,-1,5
 877.5 788 877.5 788 877.5 809 c 0,6,7
 877.5 893 877.5 893 829.8 940 c 128,-1,8
 782.1 987 782.1 987 696.6 987 c 0,9,10
 563.4 987 563.4 987 467.1 888.5 c 128,-1,11
 370.8 790 370.8 790 341.1 621 c 1,12,-1
 230.4 0 l 1,13,-1
 64.7998 0 l 1,14,-1
 260.1 1120 l 1,15,-1
 425.7 1120 l 1,16,-1
 392.4 944 l 1,17,18
 461.7 1041 461.7 1041 558.9 1094 c 128,-1,19
 656.1 1147 656.1 1147 763.2 1147 c 0,20,21
 896.4 1147 896.4 1147 969.75 1067 c 128,-1,22
 1043.1 987 1043.1 987 1043.1 842 c 0,23,24
 1043.1 806 1043.1 806 1039.05 765 c 128,-1,25
 1035 724 1035 724 1026.9 676 c 1,0,-1
EndSplineSet
EndChar
StartChar: o
Encoding: 111 111 111
Width: 1127
Flags: W
AnchorPoint: "below" 475.508 0 basechar 0
AnchorPoint: "above" 659.7 1147 basechar 0
Fore
468 -29 m 0,0,1
 290.7 -29 290.7 -29 187.65 92.5 c 128,-1,2
 84.5996 214 84.5996 214 84.5996 424 c 0,3,4
 84.5996 546 84.5996 546 120.15 672.5 c 128,-1,5
 155.7 799 155.7 799 212.4 885 c 0,6,7
 301.5 1019 301.5 1019 411.3 1083 c 128,-1,8
 521.1 1147 521.1 1147 659.7 1147 c 0,9,10
 831.6 1147 831.6 1147 937.35 1028 c 128,-1,11
 1043.1 909 1043.1 909 1043.1 717 c 0,12,13
 1043.1 584 1043.1 584 1008 452 c 128,-1,14
 972.9 320 972.9 320 916.2 233 c 0,15,16
 828 99 828 99 718.2 35 c 128,-1,17
 608.4 -29 608.4 -29 468 -29 c 0,0,1
256.5 430 m 0,18,19
 256.5 278 256.5 278 313.65 202.5 c 128,-1,20
 370.8 127 370.8 127 486.9 127 c 0,21,22
 653.4 127 653.4 127 762.75 288.5 c 128,-1,23
 872.1 450 872.1 450 872.1 698 c 0,24,25
 872.1 843 872.1 843 813.6 917 c 128,-1,26
 755.1 991 755.1 991 641.7 991 c 0,27,28
 548.1 991 548.1 991 475.2 942.5 c 128,-1,29
 402.3 894 402.3 894 344.7 795 c 0,30,31
 302.4 721 302.4 721 279.45 626 c 128,-1,32
 256.5 531 256.5 531 256.5 430 c 0,18,19
EndSplineSet
EndChar
StartChar: p
Encoding: 112 112 112
Width: 1170
Flags: W
AnchorPoint: "above" 747.792 1147 basechar 0
AnchorPoint: "below" 471.909 -430 basechar 0
Fore
914.4 690 m 0,0,1
 914.4 837 914.4 837 856.8 915 c 128,-1,2
 799.2 993 799.2 993 691.2 993 c 0,3,4
 617.4 993 617.4 993 550.35 951 c 128,-1,5
 483.3 909 483.3 909 431.1 829 c 0,6,7
 379.8 750 379.8 750 349.2 638 c 128,-1,8
 318.6 526 318.6 526 318.6 416 c 0,9,10
 318.6 276 318.6 276 376.2 200.5 c 128,-1,11
 433.8 125 433.8 125 540 125 c 0,12,13
 618.3 125 618.3 125 685.35 166 c 128,-1,14
 752.4 207 752.4 207 800.1 285 c 0,15,16
 851.4 367 851.4 367 882.9 478 c 128,-1,17
 914.4 589 914.4 589 914.4 690 c 0,0,1
401.4 950 m 1,18,19
 468 1047 468 1047 558.45 1097 c 128,-1,20
 648.9 1147 648.9 1147 759.6 1147 c 0,21,22
 914.4 1147 914.4 1147 999.9 1034.5 c 128,-1,23
 1085.4 922 1085.4 922 1085.4 719 c 0,24,25
 1085.4 553 1085.4 553 1032.3 402.5 c 128,-1,26
 979.2 252 979.2 252 879.3 133 c 0,27,28
 812.7 54 812.7 54 729 12.5 c 128,-1,29
 645.3 -29 645.3 -29 552.6 -29 c 0,30,31
 445.5 -29 445.5 -29 372.6 20.5 c 128,-1,32
 299.7 70 299.7 70 263.7 168 c 1,33,-1
 160.2 -426 l 1,34,-1
 -5.40039 -426 l 1,35,-1
 265.5 1120 l 1,36,-1
 431.1 1120 l 1,37,-1
 401.4 950 l 1,18,19
EndSplineSet
EndChar
StartChar: q
Encoding: 113 113 113
Width: 1170
Flags: W
AnchorPoint: "above" 697.942 1147 basechar 0
AnchorPoint: "below" 444.558 -430 basechar 0
Fore
768.6 168 m 1,0,1
 702 71 702 71 611.55 21 c 128,-1,2
 521.1 -29 521.1 -29 411.3 -29 c 0,3,4
 258.3 -29 258.3 -29 171.45 85.5 c 128,-1,5
 84.5996 200 84.5996 200 84.5996 401 c 0,6,7
 84.5996 563 84.5996 563 138.15 714 c 128,-1,8
 191.7 865 191.7 865 291.6 985 c 0,9,10
 356.4 1063 356.4 1063 440.55 1105 c 128,-1,11
 524.7 1147 524.7 1147 617.4 1147 c 0,12,13
 729 1147 729 1147 801 1098 c 128,-1,14
 873 1049 873 1049 905.4 950 c 1,15,-1
 934.2 1118 l 1,16,-1
 1100.7 1118 l 1,17,-1
 831.6 -422 l 1,18,-1
 665.1 -422 l 1,19,-1
 768.6 168 l 1,0,1
256.5 428 m 0,20,21
 256.5 280 256.5 280 312.3 202.5 c 128,-1,22
 368.1 125 368.1 125 473.4 125 c 0,23,24
 630 125 630 125 740.7 291.5 c 128,-1,25
 851.4 458 851.4 458 851.4 696 c 0,26,27
 851.4 840 851.4 840 794.25 916.5 c 128,-1,28
 737.1 993 737.1 993 630 993 c 0,29,30
 551.7 993 551.7 993 485.1 952.5 c 128,-1,31
 418.5 912 418.5 912 369 834 c 0,32,33
 316.8 752 316.8 752 286.65 642 c 128,-1,34
 256.5 532 256.5 532 256.5 428 c 0,20,21
EndSplineSet
EndChar
StartChar: r
Encoding: 114 114 114
Width: 757
Flags: W
AnchorPoint: "below" 381.17 0 basechar 0
AnchorPoint: "above" 529.2 1147 basechar 0
Fore
821.7 950 m 1,0,1
 796.5 965 796.5 965 764.1 973 c 128,-1,2
 731.7 981 731.7 981 694.8 981 c 0,3,4
 562.5 981 562.5 981 463.5 869.5 c 128,-1,5
 364.5 758 364.5 758 332.1 571 c 1,6,-1
 230.4 0 l 1,7,-1
 64.7998 0 l 1,8,-1
 261.9 1120 l 1,9,-1
 427.5 1120 l 1,10,-1
 396 946 l 1,11,12
 461.7 1043 461.7 1043 553.05 1095 c 128,-1,13
 644.4 1147 644.4 1147 747.9 1147 c 0,14,15
 774.9 1147 774.9 1147 801 1143.5 c 128,-1,16
 827.1 1140 827.1 1140 853.2 1132 c 1,17,-1
 821.7 950 l 1,0,1
EndSplineSet
KernsSLIFO: 46 -188 0 0 45 -112 0 0 44 -188 0 0
EndChar
StartChar: s
Encoding: 115 115 115
Width: 960
Flags: W
AnchorPoint: "below" 398.107 0 basechar 0
AnchorPoint: "above" 594 1147 basechar 0
Fore
921.6 1087 m 1,0,-1
 890.1 913 l 1,1,2
 824.4 953 824.4 953 751.5 973 c 128,-1,3
 678.6 993 678.6 993 601.2 993 c 0,4,5
 470.7 993 470.7 993 395.55 943.5 c 128,-1,6
 320.4 894 320.4 894 320.4 809 c 0,7,8
 320.4 710 320.4 710 495 657 c 0,9,10
 508.5 653 508.5 653 514.8 651 c 2,11,-1
 567.9 633 l 1,12,13
 733.5 582 733.5 582 788.85 526 c 128,-1,14
 844.2 470 844.2 470 844.2 373 c 0,15,16
 844.2 195 844.2 195 716.85 83 c 128,-1,17
 589.5 -29 589.5 -29 383.4 -29 c 0,18,19
 303.3 -29 303.3 -29 215.1 -12 c 128,-1,20
 126.9 5 126.9 5 20.7002 41 c 1,21,-1
 53.0996 231 l 1,22,23
 144 179 144 179 232.2 152 c 128,-1,24
 320.4 125 320.4 125 401.4 125 c 0,25,26
 522.9 125 522.9 125 598.95 183 c 128,-1,27
 675 241 675 241 675 330 c 0,28,29
 675 426 675 426 475.2 485 c 2,30,-1
 458.1 490 l 1,31,-1
 401.4 506 l 2,32,33
 275.4 543 275.4 543 216.9 603.5 c 128,-1,34
 158.4 664 158.4 664 158.4 758 c 0,35,36
 158.4 937 158.4 937 279.45 1042 c 128,-1,37
 400.5 1147 400.5 1147 608.4 1147 c 0,38,39
 690.3 1147 690.3 1147 768.15 1132 c 128,-1,40
 846 1117 846 1117 921.6 1087 c 1,0,-1
EndSplineSet
EndChar
StartChar: t
Encoding: 116 116 116
Width: 722
Flags: W
AnchorPoint: "above" 434.428 1520 basechar 0
AnchorPoint: "below" 364.716 0 basechar 0
Fore
779.4 1120 m 1,0,-1
 754.2 977 l 1,1,-1
 423.9 977 l 1,2,-1
 316.8 369 l 1,3,4
 311.4 335 311.4 335 308.7 312 c 128,-1,5
 306 289 306 289 306 276 c 0,6,7
 306 212 306 212 340.65 183 c 128,-1,8
 375.3 154 375.3 154 451.8 154 c 2,9,-1
 619.2 154 l 1,10,-1
 591.3 0 l 1,11,-1
 432.9 0 l 2,12,13
 285.3 0 285.3 0 212.85 64 c 128,-1,14
 140.4 128 140.4 128 140.4 258 c 0,15,16
 140.4 281 140.4 281 143.1 308.5 c 128,-1,17
 145.8 336 145.8 336 151.2 369 c 1,18,-1
 258.3 977 l 1,19,-1
 117.9 977 l 1,20,-1
 144 1120 l 1,21,-1
 281.7 1120 l 1,22,-1
 337.5 1438 l 1,23,-1
 503.1 1438 l 1,24,-1
 448.2 1120 l 1,25,-1
 779.4 1120 l 1,0,-1
EndSplineSet
EndChar
StartChar: u
Encoding: 117 117 117
Width: 1168
Flags: W
AnchorPoint: "below" 514.77 0 basechar 0
AnchorPoint: "above" 651.6 1147 basechar 0
Fore
123.3 444 m 1,0,-1
 241.2 1120 l 1,1,-1
 407.7 1120 l 1,2,-1
 289.8 451 l 1,3,4
 280.8 402 280.8 402 276.75 367 c 128,-1,5
 272.7 332 272.7 332 272.7 309 c 0,6,7
 272.7 224 272.7 224 319.5 177.5 c 128,-1,8
 366.3 131 366.3 131 451.8 131 c 0,9,10
 585 131 585 131 682.2 231 c 128,-1,11
 779.4 331 779.4 331 809.1 500 c 1,12,-1
 919.8 1120 l 1,13,-1
 1085.4 1120 l 1,14,-1
 890.1 0 l 1,15,-1
 724.5 0 l 1,16,-1
 757.8 176 l 1,17,18
 687.6 78 687.6 78 590.85 24.5 c 128,-1,19
 494.1 -29 494.1 -29 385.2 -29 c 0,20,21
 252.9 -29 252.9 -29 179.1 51.5 c 128,-1,22
 105.3 132 105.3 132 105.3 276 c 0,23,24
 105.3 306 105.3 306 109.8 351 c 128,-1,25
 114.3 396 114.3 396 123.3 444 c 1,0,-1
EndSplineSet
EndChar
StartChar: v
Encoding: 118 118 118
Width: 1090
Flags: W
AnchorPoint: "above" 648.092 1147 basechar 0
AnchorPoint: "below" 447.433 0 basechar 0
Fore
132.3 1120 m 1,0,-1
 307.8 1120 l 1,1,-1
 455.4 168 l 1,2,-1
 937.8 1120 l 1,3,-1
 1113.3 1120 l 1,4,-1
 540 0 l 1,5,-1
 316.8 0 l 1,6,-1
 132.3 1120 l 1,0,-1
EndSplineSet
KernsSLIFO: 46 -167 0 0 44 -167 0 0
EndChar
StartChar: w
Encoding: 119 119 119
Width: 1507
Flags: W
AnchorPoint: "below" 657.132 0 basechar 0
AnchorPoint: "above" 823.5 1147 basechar 0
Fore
156.6 1120 m 1,0,-1
 320.4 1120 l 1,1,-1
 362.7 219 l 1,2,-1
 738.9 1120 l 1,3,-1
 930.6 1120 l 1,4,-1
 986.4 219 l 1,5,-1
 1343.7 1120 l 1,6,-1
 1509.3 1120 l 1,7,-1
 1048.5 0 l 1,8,-1
 855 0 l 1,9,-1
 805.5 928 l 1,10,-1
 420.3 0 l 1,11,-1
 225 0 l 1,12,-1
 156.6 1120 l 1,0,-1
EndSplineSet
KernsSLIFO: 46 -131 0 0 44 -131 0 0
EndChar
StartChar: x
Encoding: 120 120 120
Width: 1090
Flags: W
AnchorPoint: "above" 651.691 1147 basechar 0
AnchorPoint: "below" 451.032 0 basechar 0
Fore
1106.1 1120 m 1,0,-1
 643.5 571 l 1,1,-1
 927 0 l 1,2,-1
 737.1 0 l 1,3,-1
 523.8 444 l 1,4,-1
 153 0 l 1,5,-1
 -47.7002 0 l 1,6,-1
 448.2 590 l 1,7,-1
 184.5 1120 l 1,8,-1
 374.4 1120 l 1,9,-1
 567.9 715 l 1,10,-1
 905.4 1120 l 1,11,-1
 1106.1 1120 l 1,0,-1
EndSplineSet
EndChar
StartChar: y
Encoding: 121 121 121
Width: 1090
Flags: W
AnchorPoint: "below" 411.271 -430 basechar 0
AnchorPoint: "above" 612 1147 basechar 0
Fore
457.2 -104 m 2,0,1
 342 -319 342 -319 269.55 -372.5 c 128,-1,2
 197.1 -426 197.1 -426 84.5996 -426 c 2,3,-1
 -45.9004 -426 l 1,4,-1
 -18 -272 l 1,5,-1
 77.4004 -272 l 2,6,7
 146.7 -272 146.7 -272 195.3 -230 c 128,-1,8
 243.9 -188 243.9 -188 304.2 -66 c 1,9,-1
 355.5 41 l 1,10,-1
 132.3 1120 l 1,11,-1
 307.8 1120 l 1,12,-1
 475.2 262 l 1,13,-1
 937.8 1120 l 1,14,-1
 1111.5 1120 l 1,15,-1
 457.2 -104 l 2,0,1
EndSplineSet
KernsSLIFO: 46 -159 0 0 45 -73 0 0 44 -159 0 0
EndChar
StartChar: z
Encoding: 122 122 122
Width: 967
Flags: W
AnchorPoint: "above" 584.191 1147 basechar 0
AnchorPoint: "below" 383.532 0 basechar 0
Fore
214.2 1120 m 1,0,-1
 1000.8 1120 l 1,1,-1
 971.1 952 l 1,2,-1
 212.4 147 l 1,3,-1
 838.8 147 l 1,4,-1
 812.7 0 l 1,5,-1
 -5.40039 0 l 1,6,-1
 24.2998 168 l 1,7,-1
 783 973 l 1,8,-1
 188.1 973 l 1,9,-1
 214.2 1120 l 1,0,-1
EndSplineSet
EndChar
StartChar: braceleft
Encoding: 123 123 123
Width: 1172
Flags: W
Fore
1115.1 1556 m 1,0,-1
 1089 1413 l 1,1,-1
 1019.7 1413 l 2,2,3
 897.3 1413 897.3 1413 855 1373.5 c 128,-1,4
 812.7 1334 812.7 1334 784.8 1184 c 1,5,-1
 738.9 932 l 1,6,7
 710.1 772 710.1 772 655.65 699.5 c 128,-1,8
 601.2 627 601.2 627 501.3 606 c 1,9,10
 567 588 567 588 603.45 536.5 c 128,-1,11
 639.9 485 639.9 485 639.9 410 c 0,12,13
 639.9 386 639.9 386 636.3 353 c 128,-1,14
 632.7 320 632.7 320 626.4 282 c 1,15,-1
 584.1 38 l 1,16,17
 579.6 7 579.6 7 577.35 -19.5 c 128,-1,18
 575.1 -46 575.1 -46 575.1 -70 c 0,19,20
 575.1 -133 575.1 -133 613.35 -161.5 c 128,-1,21
 651.6 -190 651.6 -190 738.9 -190 c 2,22,-1
 809.1 -190 l 1,23,-1
 783 -334 l 1,24,-1
 719.1 -334 l 2,25,26
 549.9 -334 549.9 -334 477 -279.5 c 128,-1,27
 404.1 -225 404.1 -225 404.1 -102 c 0,28,29
 404.1 -70 404.1 -70 407.25 -36 c 128,-1,30
 410.4 -2 410.4 -2 416.7 35 c 2,31,-1
 457.2 270 l 1,32,33
 457.2 273 457.2 273 459 282 c 0,34,35
 468 332 468 332 468 377 c 0,36,37
 468 462 468 462 423.9 499.5 c 128,-1,38
 379.8 537 379.8 537 278.1 537 c 2,39,-1
 223.2 537 l 1,40,-1
 248.4 684 l 1,41,-1
 304.2 684 l 2,42,43
 433.8 684 433.8 684 490.95 738.5 c 128,-1,44
 548.1 793 548.1 793 576.9 944 c 1,45,-1
 619.2 1188 l 1,46,47
 642.6 1311 642.6 1311 674.55 1382.5 c 128,-1,48
 706.5 1454 706.5 1454 756 1493 c 0,49,50
 797.4 1527 797.4 1527 859.5 1541.5 c 128,-1,51
 921.6 1556 921.6 1556 1041.3 1556 c 2,52,-1
 1115.1 1556 l 1,0,-1
EndSplineSet
EndChar
StartChar: bar
Encoding: 124 124 124
Width: 621
Flags: W
Fore
387 1565 m 1,0,-1
 387 -483 l 1,1,-1
 234 -483 l 1,2,-1
 234 1565 l 1,3,-1
 387 1565 l 1,0,-1
EndSplineSet
EndChar
StartChar: braceright
Encoding: 125 125 125
Width: 1172
Flags: W
Fore
12.5996 -334 m 1,0,-1
 38.7002 -190 l 1,1,-1
 108.9 -190 l 2,2,3
 231.3 -190 231.3 -190 273.6 -150.5 c 128,-1,4
 315.9 -111 315.9 -111 342.9 39 c 1,5,-1
 388.8 291 l 1,6,7
 418.5 451 418.5 451 472.5 523.5 c 128,-1,8
 526.5 596 526.5 596 626.4 616 c 1,9,10
 560.7 635 560.7 635 524.7 686 c 128,-1,11
 488.7 737 488.7 737 488.7 813 c 0,12,13
 488.7 838 488.7 838 491.85 870 c 128,-1,14
 495 902 495 902 501.3 940 c 1,15,-1
 543.6 1183 l 1,16,17
 549 1217 549 1217 550.8 1242 c 128,-1,18
 552.6 1267 552.6 1267 552.6 1292 c 0,19,20
 552.6 1356 552.6 1356 514.35 1384.5 c 128,-1,21
 476.1 1413 476.1 1413 388.8 1413 c 2,22,-1
 318.6 1413 l 1,23,-1
 342.9 1556 l 1,24,-1
 409.5 1556 l 2,25,26
 577.8 1556 577.8 1556 651.15 1502 c 128,-1,27
 724.5 1448 724.5 1448 724.5 1325 c 0,28,29
 724.5 1294 724.5 1294 721.35 1260 c 128,-1,30
 718.2 1226 718.2 1226 711 1187 c 1,31,-1
 670.5 952 l 1,32,33
 670.5 949 670.5 949 668.7 940 c 0,34,35
 659.7 891 659.7 891 659.7 846 c 0,36,37
 659.7 760 659.7 760 703.8 723 c 128,-1,38
 747.9 686 747.9 686 849.6 686 c 2,39,-1
 905.4 686 l 1,40,-1
 879.3 539 l 1,41,-1
 823.5 539 l 2,42,43
 693.9 539 693.9 539 637.2 484 c 128,-1,44
 580.5 429 580.5 429 554.4 279 c 1,45,-1
 506.7 35 l 1,46,47
 483.3 -91 483.3 -91 451.8 -161.5 c 128,-1,48
 420.3 -232 420.3 -232 372.6 -270 c 0,49,50
 330.3 -304 330.3 -304 268.2 -319 c 128,-1,51
 206.1 -334 206.1 -334 86.4004 -334 c 2,52,-1
 12.5996 -334 l 1,0,-1
EndSplineSet
EndChar
StartChar: asciitilde
Encoding: 126 126 126
Width: 1544
Flags: W
Fore
1349.1 817 m 1,0,-1
 1349.1 639 l 1,1,2
 1254.6 560 1254.6 560 1174.05 526 c 128,-1,3
 1093.5 492 1093.5 492 1006.2 492 c 0,4,5
 907.2 492 907.2 492 775.8 551 c 0,6,7
 765.9 555 765.9 555 761.4 557 c 0,8,9
 755.1 560 755.1 560 741.6 565 c 0,10,11
 602.1 627 602.1 627 517.5 627 c 0,12,13
 438.3 627 438.3 627 360.9 588.5 c 128,-1,14
 283.5 550 283.5 550 195.3 467 c 1,15,-1
 195.3 645 l 1,16,17
 289.8 724 289.8 724 370.35 758.5 c 128,-1,18
 450.9 793 450.9 793 538.2 793 c 0,19,20
 637.2 793 637.2 793 769.5 733 c 0,21,22
 778.5 729 778.5 729 783 727 c 0,23,24
 790.2 724 790.2 724 802.8 719 c 0,25,26
 942.3 657 942.3 657 1026.9 657 c 0,27,28
 1104.3 657 1104.3 657 1180.35 695 c 128,-1,29
 1256.4 733 1256.4 733 1349.1 817 c 1,0,-1
EndSplineSet
EndChar
StartChar: exclamdown
Encoding: 161 161 161
Width: 738
Flags: W
Fore
339.3 0 m 1,0,-1
 156.6 0 l 1,1,-1
 270.9 655 l 1,2,-1
 351.9 1012 l 1,3,-1
 497.7 1012 l 1,4,-1
 453.6 655 l 1,5,-1
 339.3 0 l 1,0,-1
554.4 1239 m 1,6,-1
 372.6 1239 l 1,7,-1
 416.7 1493 l 1,8,-1
 601.2 1493 l 1,9,-1
 554.4 1239 l 1,6,-1
EndSplineSet
EndChar
StartChar: cent
Encoding: 162 162 162
Width: 1172
Flags: W
Fore
682.2 985 m 1,0,1
 522 962 522 962 414 801.5 c 128,-1,2
 306 641 306 641 306 426 c 0,3,4
 306 292 306 292 360.9 218.5 c 128,-1,5
 415.8 145 415.8 145 531 125 c 1,6,-1
 682.2 985 l 1,0,1
800.1 1145 m 1,7,8
 865.8 1138 865.8 1138 923.85 1121.5 c 128,-1,9
 981.9 1105 981.9 1105 1037.7 1077 c 1,10,-1
 1006.2 895 l 1,11,12
 963.9 932 963.9 932 908.1 954.5 c 128,-1,13
 852.3 977 852.3 977 772.2 989 c 1,14,-1
 621 127 l 1,15,16
 680.4 132 680.4 132 747 154.5 c 128,-1,17
 813.6 177 813.6 177 888.3 219 c 1,18,-1
 856.8 37 l 1,19,20
 798.3 9 798.3 9 732.6 -7.5 c 128,-1,21
 666.9 -24 666.9 -24 597.6 -29 c 1,22,-1
 543.6 -313 l 1,23,-1
 453.6 -313 l 1,24,-1
 506.7 -29 l 1,25,26
 329.4 -16 329.4 -16 233.1 95.5 c 128,-1,27
 136.8 207 136.8 207 136.8 401 c 0,28,29
 136.8 707 136.8 707 296.1 914.5 c 128,-1,30
 455.4 1122 455.4 1122 709.2 1145 c 1,31,-1
 759.6 1430 l 1,32,-1
 849.6 1430 l 1,33,-1
 800.1 1145 l 1,7,8
EndSplineSet
EndChar
StartChar: sterling
Encoding: 163 163 163
Width: 1172
Flags: W
Fore
1174.5 1460 m 1,0,-1
 1143 1278 l 1,1,2
 1088.1 1318 1088.1 1318 1029.15 1339 c 128,-1,3
 970.2 1360 970.2 1360 912.6 1360 c 0,4,5
 780.3 1360 780.3 1360 713.7 1280.5 c 128,-1,6
 647.1 1201 647.1 1201 610.2 993 c 1,7,-1
 573.3 778 l 1,8,-1
 925.2 778 l 1,9,-1
 899.1 635 l 1,10,-1
 547.2 635 l 1,11,-1
 466.2 170 l 1,12,-1
 949.5 170 l 1,13,-1
 919.8 0 l 1,14,-1
 44.0996 0 l 1,15,-1
 73.7998 170 l 1,16,-1
 285.3 170 l 1,17,-1
 367.2 635 l 1,18,-1
 188.1 635 l 1,19,-1
 214.2 778 l 1,20,-1
 392.4 778 l 1,21,-1
 432.9 1016 l 1,22,23
 479.7 1278 479.7 1278 597.15 1399 c 128,-1,24
 714.6 1520 714.6 1520 923.4 1520 c 0,25,26
 986.4 1520 986.4 1520 1049.4 1505 c 128,-1,27
 1112.4 1490 1112.4 1490 1174.5 1460 c 1,0,-1
EndSplineSet
EndChar
StartChar: currency
Encoding: 164 164 164
Width: 1172
Flags: W
Fore
801.9 993 m 1,0,-1
 988.2 1202 l 1,1,-1
 1090.8 1087 l 1,2,-1
 905.4 881 l 1,3,4
 938.7 822 938.7 822 954.9 762.5 c 128,-1,5
 971.1 703 971.1 703 971.1 641 c 0,6,7
 971.1 578 971.1 578 954 520.5 c 128,-1,8
 936.9 463 936.9 463 900.9 406 c 1,9,-1
 1089 199 l 1,10,-1
 986.4 86 l 1,11,-1
 800.1 293 l 1,12,13
 747 253 747 253 694.8 234 c 128,-1,14
 642.6 215 642.6 215 587.7 215 c 0,15,16
 535.5 215 535.5 215 481.5 233.5 c 128,-1,17
 427.5 252 427.5 252 372.6 289 c 1,18,-1
 186.3 82 l 1,19,-1
 84.5996 197 l 1,20,-1
 270.9 403 l 1,21,22
 237.6 465 237.6 465 220.95 524 c 128,-1,23
 204.3 583 204.3 583 204.3 641 c 0,24,25
 204.3 705 204.3 705 221.4 763 c 128,-1,26
 238.5 821 238.5 821 272.7 877 c 1,27,-1
 86.4004 1083 l 1,28,-1
 189.9 1198 l 1,29,-1
 376.2 991 l 1,30,31
 425.7 1030 425.7 1030 477.9 1048.5 c 128,-1,32
 530.1 1067 530.1 1067 587.7 1067 c 0,33,34
 641.7 1067 641.7 1067 694.35 1049 c 128,-1,35
 747 1031 747 1031 801.9 993 c 1,0,-1
829.8 643 m 0,36,37
 829.8 755 829.8 755 760.05 832 c 128,-1,38
 690.3 909 690.3 909 587.7 909 c 0,39,40
 486.9 909 486.9 909 415.8 832 c 128,-1,41
 344.7 755 344.7 755 344.7 643 c 0,42,43
 344.7 529 344.7 529 415.35 451 c 128,-1,44
 486 373 486 373 587.7 373 c 0,45,46
 689.4 373 689.4 373 759.6 451.5 c 128,-1,47
 829.8 530 829.8 530 829.8 643 c 0,36,37
EndSplineSet
EndChar
StartChar: yen
Encoding: 165 165 165
Width: 1172
Flags: W
Fore
1009.8 455 m 1,0,-1
 639.9 455 l 1,1,-1
 560.7 0 l 1,2,-1
 378 0 l 1,3,-1
 457.2 455 l 1,4,-1
 82.7998 455 l 1,5,-1
 103.5 578 l 1,6,-1
 478.8 578 l 1,7,-1
 488.7 629 l 1,8,-1
 440.1 784 l 1,9,-1
 140.4 784 l 1,10,-1
 162 907 l 1,11,-1
 401.4 907 l 1,12,-1
 217.8 1493 l 1,13,-1
 388.8 1493 l 1,14,-1
 604.8 793 l 1,15,-1
 1065.6 1493 l 1,16,-1
 1240.2 1493 l 1,17,-1
 853.2 907 l 1,18,-1
 1089 907 l 1,19,-1
 1067.4 784 l 1,20,-1
 772.2 784 l 1,21,-1
 670.5 629 l 1,22,-1
 661.5 578 l 1,23,-1
 1030.5 578 l 1,24,-1
 1009.8 455 l 1,0,-1
EndSplineSet
EndChar
StartChar: brokenbar
Encoding: 166 166 166
Width: 621
Flags: W
Fore
387 408 m 1,0,-1
 387 -350 l 1,1,-1
 234 -350 l 1,2,-1
 234 408 l 1,3,-1
 387 408 l 1,0,-1
387 1432 m 1,4,-1
 387 674 l 1,5,-1
 234 674 l 1,6,-1
 234 1432 l 1,7,-1
 387 1432 l 1,4,-1
EndSplineSet
EndChar
StartChar: section
Encoding: 167 167 167
Width: 921
Flags: W
Fore
541.8 410 m 1,0,1
 615.6 459 615.6 459 654.3 514.5 c 128,-1,2
 693 570 693 570 693 627 c 0,3,4
 693 681 693 681 644.85 737.5 c 128,-1,5
 596.7 794 596.7 794 468 885 c 2,6,-1
 396 936 l 1,7,8
 323.1 885 323.1 885 284.85 829 c 128,-1,9
 246.6 773 246.6 773 246.6 717 c 0,10,11
 246.6 667 246.6 667 284.85 618.5 c 128,-1,12
 323.1 570 323.1 570 436.5 487 c 2,13,-1
 541.8 410 l 1,0,1
893.7 1462 m 1,14,-1
 864.9 1298 l 1,15,16
 800.1 1337 800.1 1337 738.45 1356.5 c 128,-1,17
 676.8 1376 676.8 1376 624.6 1376 c 0,18,19
 531.9 1376 531.9 1376 472.5 1327.5 c 128,-1,20
 413.1 1279 413.1 1279 413.1 1206 c 0,21,22
 413.1 1127 413.1 1127 534.6 1037 c 0,23,24
 561.6 1017 561.6 1017 576.9 1006 c 2,25,-1
 656.1 946 l 2,26,27
 765.9 861 765.9 861 804.15 802.5 c 128,-1,28
 842.4 744 842.4 744 842.4 674 c 0,29,30
 842.4 573 842.4 573 783 483 c 128,-1,31
 723.6 393 723.6 393 621 340 c 1,32,33
 657.9 305 657.9 305 676.35 260 c 128,-1,34
 694.8 215 694.8 215 694.8 160 c 0,35,36
 694.8 3 694.8 3 585.45 -96 c 128,-1,37
 476.1 -195 476.1 -195 297 -195 c 0,38,39
 234.9 -195 234.9 -195 165.6 -180.5 c 128,-1,40
 96.2998 -166 96.2998 -166 22.5 -137 c 1,41,-1
 51.2998 27 l 1,42,43
 119.7 -11 119.7 -11 184.5 -31 c 128,-1,44
 249.3 -51 249.3 -51 302.4 -51 c 0,45,46
 403.2 -51 403.2 -51 463.5 -3.5 c 128,-1,47
 523.8 44 523.8 44 523.8 123 c 0,48,49
 523.8 221 523.8 221 361.8 342 c 2,50,-1
 348.3 352 l 1,51,-1
 279.9 403 l 2,52,53
 169.2 487 169.2 487 132.3 543.5 c 128,-1,54
 95.4004 600 95.4004 600 95.4004 674 c 0,55,56
 95.4004 770 95.4004 770 153 856.5 c 128,-1,57
 210.6 943 210.6 943 316.8 1006 c 1,58,59
 278.1 1044 278.1 1044 260.55 1084.5 c 128,-1,60
 243 1125 243 1125 243 1176 c 0,61,62
 243 1323 243 1323 352.35 1421.5 c 128,-1,63
 461.7 1520 461.7 1520 630 1520 c 0,64,65
 693.9 1520 693.9 1520 759.15 1505.5 c 128,-1,66
 824.4 1491 824.4 1491 893.7 1462 c 1,14,-1
EndSplineSet
EndChar
StartChar: dieresis
Encoding: 168 168 168
Width: 921
Flags: W
Fore
374.4 1552 m 1,0,-1
 558.9 1552 l 1,1,-1
 522 1350 l 1,2,-1
 339.3 1350 l 1,3,-1
 374.4 1552 l 1,0,-1
726.3 1552 m 1,4,-1
 909 1552 l 1,5,-1
 873.9 1350 l 1,6,-1
 691.2 1350 l 1,7,-1
 726.3 1552 l 1,4,-1
EndSplineSet
Ligature: 0 1 'liga' space uni0308
EndChar
StartChar: copyright
Encoding: 169 169 169
Width: 1843
Flags: W
Fore
921.6 1485 m 0,0,1
 1058.4 1485 1058.4 1485 1176.75 1430 c 128,-1,2
 1295.1 1375 1295.1 1375 1393.2 1266 c 0,3,4
 1491.3 1157 1491.3 1157 1539.9 1026 c 128,-1,5
 1588.5 895 1588.5 895 1588.5 741 c 0,6,7
 1588.5 589 1588.5 589 1539.9 458.5 c 128,-1,8
 1491.3 328 1491.3 328 1393.2 219 c 0,9,10
 1295.1 110 1295.1 110 1176.75 55 c 128,-1,11
 1058.4 0 1058.4 0 921.6 0 c 0,12,13
 784.8 0 784.8 0 666.45 55 c 128,-1,14
 548.1 110 548.1 110 450 219 c 0,15,16
 351.9 328 351.9 328 303.3 458.5 c 128,-1,17
 254.7 589 254.7 589 254.7 741 c 0,18,19
 254.7 895 254.7 895 303.3 1026 c 128,-1,20
 351.9 1157 351.9 1157 450 1266 c 0,21,22
 548.1 1375 548.1 1375 666.45 1430 c 128,-1,23
 784.8 1485 784.8 1485 921.6 1485 c 0,0,1
921.6 1382 m 0,24,25
 803.7 1382 803.7 1382 702 1335 c 128,-1,26
 600.3 1288 600.3 1288 515.7 1194 c 0,27,28
 431.1 1100 431.1 1100 387.9 985.5 c 128,-1,29
 344.7 871 344.7 871 344.7 741 c 0,30,31
 344.7 612 344.7 612 387.9 498.5 c 128,-1,32
 431.1 385 431.1 385 515.7 291 c 0,33,34
 600.3 197 600.3 197 702 149.5 c 128,-1,35
 803.7 102 803.7 102 921.6 102 c 0,36,37
 1040.4 102 1040.4 102 1142.55 149.5 c 128,-1,38
 1244.7 197 1244.7 197 1329.3 291 c 0,39,40
 1413 384 1413 384 1454.85 497 c 128,-1,41
 1496.7 610 1496.7 610 1496.7 741 c 0,42,43
 1496.7 874 1496.7 874 1454.4 987.5 c 128,-1,44
 1412.1 1101 1412.1 1101 1329.3 1194 c 0,45,46
 1244.7 1288 1244.7 1288 1142.55 1335 c 128,-1,47
 1040.4 1382 1040.4 1382 921.6 1382 c 0,24,25
1190.7 1137 m 1,48,-1
 1190.7 1008 l 1,49,50
 1131.3 1041 1131.3 1041 1072.8 1057 c 128,-1,51
 1014.3 1073 1014.3 1073 954.9 1073 c 0,52,53
 820.8 1073 820.8 1073 745.65 985.5 c 128,-1,54
 670.5 898 670.5 898 670.5 741 c 0,55,56
 670.5 582 670.5 582 747.45 495 c 128,-1,57
 824.4 408 824.4 408 963.9 408 c 0,58,59
 1021.5 408 1021.5 408 1076.4 423.5 c 128,-1,60
 1131.3 439 1131.3 439 1190.7 473 c 1,61,-1
 1190.7 346 l 1,62,63
 1130.4 317 1130.4 317 1068.75 303 c 128,-1,64
 1007.1 289 1007.1 289 944.1 289 c 0,65,66
 749.7 289 749.7 289 636.75 411 c 128,-1,67
 523.8 533 523.8 533 523.8 741 c 0,68,69
 523.8 950 523.8 950 636.75 1071 c 128,-1,70
 749.7 1192 749.7 1192 944.1 1192 c 0,71,72
 1009.8 1192 1009.8 1192 1071 1178 c 128,-1,73
 1132.2 1164 1132.2 1164 1190.7 1137 c 1,48,-1
EndSplineSet
EndChar
StartChar: ordfeminine
Encoding: 170 170 170
Width: 868
Flags: W
Fore
534.6 1104 m 2,0,1
 393.3 1104 393.3 1104 329.4 1066.5 c 128,-1,2
 265.5 1029 265.5 1029 265.5 946 c 0,3,4
 265.5 887 265.5 887 299.7 852 c 128,-1,5
 333.9 817 333.9 817 392.4 817 c 0,6,7
 495.9 817 495.9 817 566.55 884.5 c 128,-1,8
 637.2 952 637.2 952 661.5 1075 c 1,9,-1
 666.9 1104 l 1,10,-1
 534.6 1104 l 2,0,1
812.7 1165 m 1,11,-1
 733.5 717 l 1,12,-1
 599.4 717 l 1,13,-1
 619.2 829 l 1,14,15
 567 764 567 764 498.15 731 c 128,-1,16
 429.3 698 429.3 698 342.9 698 c 0,17,18
 246.6 698 246.6 698 187.65 759 c 128,-1,19
 128.7 820 128.7 820 128.7 920 c 0,20,21
 128.7 1060 128.7 1060 232.65 1139.5 c 128,-1,22
 336.6 1219 336.6 1219 523.8 1219 c 2,23,-1
 687.6 1219 l 1,24,-1
 687.6 1223 l 1,25,26
 689.4 1242 689.4 1242 690.3 1252.5 c 128,-1,27
 691.2 1263 691.2 1263 691.2 1270 c 0,28,29
 691.2 1340 691.2 1340 649.35 1372.5 c 128,-1,30
 607.5 1405 607.5 1405 517.5 1405 c 0,31,32
 454.5 1405 454.5 1405 389.25 1388 c 128,-1,33
 324 1371 324 1371 258.3 1337 c 1,34,-1
 279.9 1464 l 1,35,36
 351 1492 351 1492 419.4 1506 c 128,-1,37
 487.8 1520 487.8 1520 549 1520 c 0,38,39
 684 1520 684 1520 752.85 1458 c 128,-1,40
 821.7 1396 821.7 1396 821.7 1276 c 0,41,42
 821.7 1249 821.7 1249 819.45 1221.5 c 128,-1,43
 817.2 1194 817.2 1194 812.7 1165 c 1,11,-1
93.5996 592 m 1,44,-1
 713.7 592 l 1,45,-1
 693 469 l 1,46,-1
 73.7998 469 l 1,47,-1
 93.5996 592 l 1,44,-1
EndSplineSet
EndChar
StartChar: guillemotleft
Encoding: 171 171 171
Width: 1137
Flags: W
Fore
622.8 1059 m 1,0,-1
 587.7 858 l 1,1,-1
 269.1 588 l 1,2,-1
 495.9 322 l 1,3,-1
 462.6 141 l 1,4,-1
 114.3 559 l 1,5,-1
 128.7 641 l 1,6,-1
 622.8 1059 l 1,0,-1
1023.3 1059 m 1,7,-1
 988.2 858 l 1,8,-1
 668.7 588 l 1,9,-1
 895.5 322 l 1,10,-1
 862.2 141 l 1,11,-1
 513.9 559 l 1,12,-1
 529.2 641 l 1,13,-1
 1023.3 1059 l 1,7,-1
EndSplineSet
EndChar
StartChar: logicalnot
Encoding: 172 172 172
Width: 1544
Flags: W
Fore
195.3 862 m 1,0,-1
 1349.1 862 l 1,1,-1
 1349.1 287 l 1,2,-1
 1197.9 287 l 1,3,-1
 1197.9 692 l 1,4,-1
 195.3 692 l 1,5,-1
 195.3 862 l 1,0,-1
EndSplineSet
EndChar
StartChar: sfthyphen
Encoding: 173 173 173
Width: 665
Flags: W
Fore
112.5 643 m 1,0,-1
 597.6 643 l 1,1,-1
 569.7 479 l 1,2,-1
 82.7998 479 l 1,3,-1
 112.5 643 l 1,0,-1
EndSplineSet
EndChar
StartChar: registered
Encoding: 174 174 174
Width: 1843
Flags: W
Fore
921.6 1382 m 0,0,1
 803.7 1382 803.7 1382 702 1335 c 128,-1,2
 600.3 1288 600.3 1288 515.7 1194 c 0,3,4
 431.1 1100 431.1 1100 387.9 985.5 c 128,-1,5
 344.7 871 344.7 871 344.7 741 c 0,6,7
 344.7 612 344.7 612 387.9 498.5 c 128,-1,8
 431.1 385 431.1 385 515.7 291 c 0,9,10
 600.3 197 600.3 197 702 149.5 c 128,-1,11
 803.7 102 803.7 102 921.6 102 c 0,12,13
 1040.4 102 1040.4 102 1142.55 149.5 c 128,-1,14
 1244.7 197 1244.7 197 1329.3 291 c 0,15,16
 1413 384 1413 384 1454.85 497 c 128,-1,17
 1496.7 610 1496.7 610 1496.7 741 c 0,18,19
 1496.7 874 1496.7 874 1454.4 987.5 c 128,-1,20
 1412.1 1101 1412.1 1101 1329.3 1194 c 0,21,22
 1244.7 1288 1244.7 1288 1142.55 1335 c 128,-1,23
 1040.4 1382 1040.4 1382 921.6 1382 c 0,0,1
921.6 1485 m 0,24,25
 1058.4 1485 1058.4 1485 1176.75 1430 c 128,-1,26
 1295.1 1375 1295.1 1375 1393.2 1266 c 0,27,28
 1491.3 1157 1491.3 1157 1539.9 1026 c 128,-1,29
 1588.5 895 1588.5 895 1588.5 741 c 0,30,31
 1588.5 589 1588.5 589 1539.9 458.5 c 128,-1,32
 1491.3 328 1491.3 328 1393.2 219 c 0,33,34
 1295.1 110 1295.1 110 1176.75 55 c 128,-1,35
 1058.4 0 1058.4 0 921.6 0 c 0,36,37
 784.8 0 784.8 0 666.45 55 c 128,-1,38
 548.1 110 548.1 110 450 219 c 0,39,40
 351.9 328 351.9 328 303.3 458.5 c 128,-1,41
 254.7 589 254.7 589 254.7 741 c 0,42,43
 254.7 895 254.7 895 303.3 1026 c 128,-1,44
 351.9 1157 351.9 1157 450 1266 c 0,45,46
 548.1 1375 548.1 1375 666.45 1430 c 128,-1,47
 784.8 1485 784.8 1485 921.6 1485 c 0,24,25
897.3 1071 m 2,48,-1
 786.6 1071 l 1,49,-1
 786.6 795 l 1,50,-1
 897.3 795 l 2,51,52
 996.3 795 996.3 795 1035.45 826 c 128,-1,53
 1074.6 857 1074.6 857 1074.6 932 c 0,54,55
 1074.6 1008 1074.6 1008 1035 1039.5 c 128,-1,56
 995.4 1071 995.4 1071 897.3 1071 c 2,48,-1
903.6 1174 m 2,57,58
 1062 1174 1062 1174 1140.3 1114.5 c 128,-1,59
 1218.6 1055 1218.6 1055 1218.6 934 c 0,60,61
 1218.6 848 1218.6 848 1171.35 792 c 128,-1,62
 1124.1 736 1124.1 736 1037.7 719 c 1,63,64
 1059.3 711 1059.3 711 1089.45 672.5 c 128,-1,65
 1119.6 634 1119.6 634 1161 561 c 1,66,-1
 1284.3 338 l 1,67,-1
 1129.5 338 l 1,68,-1
 1013.4 547 l 2,69,70
 960.3 643 960.3 643 927.45 668.5 c 128,-1,71
 894.6 694 894.6 694 846 694 c 2,72,-1
 786.6 694 l 1,73,-1
 786.6 338 l 1,74,-1
 647.1 338 l 1,75,-1
 647.1 1174 l 1,76,-1
 903.6 1174 l 2,57,58
EndSplineSet
EndChar
StartChar: macron
Encoding: 175 175 175
Width: 921
Flags: W
Fore
369 1526 m 1,0,-1
 907.2 1526 l 1,1,-1
 881.1 1378 l 1,2,-1
 342.9 1378 l 1,3,-1
 369 1526 l 1,0,-1
EndSplineSet
LCarets: 0 65535 '    ' 1 0 
Ligature: 0 1 'liga' space uni0304
EndChar
StartChar: degree
Encoding: 176 176 176
Width: 921
Flags: W
Fore
460.8 1391 m 0,0,1
 388.8 1391 388.8 1391 339.3 1335.5 c 128,-1,2
 289.8 1280 289.8 1280 289.8 1200 c 0,3,4
 289.8 1121 289.8 1121 339.3 1066.5 c 128,-1,5
 388.8 1012 388.8 1012 460.8 1012 c 0,6,7
 532.8 1012 532.8 1012 582.3 1066.5 c 128,-1,8
 631.8 1121 631.8 1121 631.8 1200 c 0,9,10
 631.8 1279 631.8 1279 581.85 1335 c 128,-1,11
 531.9 1391 531.9 1391 460.8 1391 c 0,0,1
460.8 1520 m 0,12,13
 518.4 1520 518.4 1520 571.5 1495.5 c 128,-1,14
 624.6 1471 624.6 1471 663.3 1425 c 1,15,16
 704.7 1380 704.7 1380 725.4 1323 c 128,-1,17
 746.1 1266 746.1 1266 746.1 1200 c 0,18,19
 746.1 1068 746.1 1068 662.85 976.5 c 128,-1,20
 579.6 885 579.6 885 459 885 c 0,21,22
 337.5 885 337.5 885 256.5 975 c 128,-1,23
 175.5 1065 175.5 1065 175.5 1200 c 0,24,25
 175.5 1334 175.5 1334 258.3 1427 c 128,-1,26
 341.1 1520 341.1 1520 460.8 1520 c 0,12,13
EndSplineSet
EndChar
StartChar: plusminus
Encoding: 177 177 177
Width: 1544
Flags: W
Fore
847.8 1284 m 1,0,-1
 847.8 897 l 1,1,-1
 1349.1 897 l 1,2,-1
 1349.1 727 l 1,3,-1
 847.8 727 l 1,4,-1
 847.8 340 l 1,5,-1
 696.6 340 l 1,6,-1
 696.6 727 l 1,7,-1
 195.3 727 l 1,8,-1
 195.3 897 l 1,9,-1
 696.6 897 l 1,10,-1
 696.6 1284 l 1,11,-1
 847.8 1284 l 1,0,-1
195.3 170 m 1,12,-1
 1349.1 170 l 1,13,-1
 1349.1 0 l 1,14,-1
 195.3 0 l 1,15,-1
 195.3 170 l 1,12,-1
EndSplineSet
EndChar
StartChar: twosuperior
Encoding: 178 178 178
Width: 738
Flags: W
Fore
593.1 1090 m 2,0,-1
 246.6 782 l 1,1,-1
 643.5 782 l 1,2,-1
 622.8 668 l 1,3,-1
 66.5996 668 l 1,4,-1
 86.4004 778 l 1,5,-1
 466.2 1118 l 1,6,7
 519.3 1164 519.3 1164 545.4 1207 c 128,-1,8
 571.5 1250 571.5 1250 571.5 1290 c 0,9,10
 571.5 1344 571.5 1344 533.7 1377.5 c 128,-1,11
 495.9 1411 495.9 1411 432.9 1411 c 0,12,13
 383.4 1411 383.4 1411 324 1394 c 128,-1,14
 264.6 1377 264.6 1377 189.9 1341 c 1,15,-1
 212.4 1464 l 1,16,17
 280.8 1492 280.8 1492 342 1506 c 128,-1,18
 403.2 1520 403.2 1520 460.8 1520 c 0,19,20
 571.5 1520 571.5 1520 640.35 1463 c 128,-1,21
 709.2 1406 709.2 1406 709.2 1317 c 0,22,23
 709.2 1255 709.2 1255 680.4 1198.5 c 128,-1,24
 651.6 1142 651.6 1142 593.1 1090 c 2,0,-1
EndSplineSet
EndChar
StartChar: threesuperior
Encoding: 179 179 179
Width: 738
Flags: W
Fore
193.5 1485 m 1,0,1
 268.2 1503 268.2 1503 324.9 1511.5 c 128,-1,2
 381.6 1520 381.6 1520 431.1 1520 c 0,3,4
 543.6 1520 543.6 1520 611.1 1467.5 c 128,-1,5
 678.6 1415 678.6 1415 678.6 1329 c 0,6,7
 678.6 1252 678.6 1252 627.3 1195 c 128,-1,8
 576 1138 576 1138 488.7 1120 c 1,9,10
 556.2 1104 556.2 1104 592.2 1057 c 128,-1,11
 628.2 1010 628.2 1010 628.2 938 c 0,12,13
 628.2 811 628.2 811 527.85 732 c 128,-1,14
 427.5 653 427.5 653 261.9 653 c 0,15,16
 204.3 653 204.3 653 145.8 663.5 c 128,-1,17
 87.2998 674 87.2998 674 29.7002 694 c 1,18,-1
 51.2998 815 l 1,19,20
 99 788 99 788 149.4 775 c 128,-1,21
 199.8 762 199.8 762 256.5 762 c 0,22,23
 367.2 762 367.2 762 429.75 808 c 128,-1,24
 492.3 854 492.3 854 492.3 936 c 0,25,26
 492.3 998 492.3 998 448.65 1029.5 c 128,-1,27
 405 1061 405 1061 316.8 1061 c 2,28,-1
 239.4 1061 l 1,29,-1
 260.1 1169 l 1,30,-1
 342.9 1169 l 2,31,32
 434.7 1169 434.7 1169 486.45 1205 c 128,-1,33
 538.2 1241 538.2 1241 538.2 1305 c 0,34,35
 538.2 1358 538.2 1358 501.3 1384.5 c 128,-1,36
 464.4 1411 464.4 1411 390.6 1411 c 0,37,38
 340.2 1411 340.2 1411 284.4 1400.5 c 128,-1,39
 228.6 1390 228.6 1390 173.7 1370 c 1,40,-1
 193.5 1485 l 1,0,1
EndSplineSet
EndChar
StartChar: acute
Encoding: 180 180 180
Width: 921
Flags: W
Fore
783 1638 m 1,0,-1
 962.1 1638 l 1,1,-1
 603 1262 l 1,2,-1
 464.4 1262 l 1,3,-1
 783 1638 l 1,0,-1
EndSplineSet
LCarets: 0 65535 '    ' 1 0 
Ligature: 0 1 'liga' space acutecomb
EndChar
StartChar: mu
Encoding: 181 181 181
Width: 1172
Flags: W
Fore
-24.2998 -426 m 1,0,-1
 246.6 1120 l 1,1,-1
 413.1 1120 l 1,2,-1
 290.7 423 l 2,3,4
 287.1 402 287.1 402 284.4 376 c 128,-1,5
 281.7 350 281.7 350 281.7 324 c 0,6,7
 281.7 231 281.7 231 334.35 181 c 128,-1,8
 387 131 387 131 485.1 131 c 0,9,10
 618.3 131 618.3 131 700.2 215 c 128,-1,11
 782.1 299 782.1 299 810.9 467 c 1,12,-1
 925.2 1120 l 1,13,-1
 1090.8 1120 l 1,14,-1
 940.5 259 l 1,15,16
 936.9 240 936.9 240 935.55 226 c 128,-1,17
 934.2 212 934.2 212 934.2 201 c 0,18,19
 934.2 170 934.2 170 945.45 155.5 c 128,-1,20
 956.7 141 956.7 141 981 141 c 0,21,22
 990 141 990 141 1005.75 146 c 128,-1,23
 1021.5 151 1021.5 151 1050.3 164 c 1,24,-1
 1025.1 16 l 1,25,26
 985.5 -6 985.5 -6 949.5 -17.5 c 128,-1,27
 913.5 -29 913.5 -29 879.3 -29 c 0,28,29
 819.9 -29 819.9 -29 786.15 13 c 128,-1,30
 752.4 55 752.4 55 752.4 129 c 1,31,32
 702 49 702 49 632.25 10 c 128,-1,33
 562.5 -29 562.5 -29 468 -29 c 0,34,35
 384.3 -29 384.3 -29 321.75 14 c 128,-1,36
 259.2 57 259.2 57 239.4 127 c 1,37,-1
 142.2 -426 l 1,38,-1
 -24.2998 -426 l 1,0,-1
EndSplineSet
EndChar
StartChar: paragraph
Encoding: 182 182 182
Width: 1172
Flags: W
Fore
691.2 1493 m 2,0,-1
 1056.6 1493 l 1,1,-1
 761.4 -197 l 1,2,-1
 636.3 -197 l 1,3,-1
 910.8 1370 l 1,4,-1
 738.9 1370 l 1,5,-1
 464.4 -197 l 1,6,-1
 337.5 -197 l 1,7,-1
 485.1 649 l 1,8,9
 324.9 655 324.9 655 234.45 749 c 128,-1,10
 144 843 144 843 144 1001 c 0,11,12
 144 1212 144 1212 298.8 1352.5 c 128,-1,13
 453.6 1493 453.6 1493 691.2 1493 c 2,0,-1
EndSplineSet
EndChar
StartChar: periodcentered
Encoding: 183 183 183
Width: 585
Flags: W
Fore
254.7 838 m 1,0,-1
 444.6 838 l 1,1,-1
 399.6 584 l 1,2,-1
 209.7 584 l 1,3,-1
 254.7 838 l 1,0,-1
EndSplineSet
EndChar
StartChar: cedilla
Encoding: 184 184 184
Width: 921
Flags: W
Fore
429.3 0 m 1,0,1
 461.7 -51 461.7 -51 477 -94.5 c 128,-1,2
 492.3 -138 492.3 -138 492.3 -180 c 0,3,4
 492.3 -280 492.3 -280 426.15 -337.5 c 128,-1,5
 360 -395 360 -395 244.8 -395 c 0,6,7
 206.1 -395 206.1 -395 167.4 -389 c 128,-1,8
 128.7 -383 128.7 -383 90 -371 c 1,9,-1
 110.7 -240 l 1,10,11
 145.8 -256 145.8 -256 181.35 -264 c 128,-1,12
 216.9 -272 216.9 -272 254.7 -272 c 0,13,14
 308.7 -272 308.7 -272 340.65 -241.5 c 128,-1,15
 372.6 -211 372.6 -211 372.6 -158 c 0,16,17
 372.6 -129 372.6 -129 361.35 -93 c 128,-1,18
 350.1 -57 350.1 -57 322.2 0 c 1,19,-1
 429.3 0 l 1,0,1
EndSplineSet
Ligature: 0 1 'liga' space uni0327
EndChar
StartChar: onesuperior
Encoding: 185 185 185
Width: 738
Flags: W
Fore
140.4 778 m 1,0,-1
 324 778 l 1,1,-1
 431.1 1389 l 1,2,-1
 225 1348 l 1,3,-1
 244.8 1464 l 1,4,-1
 451.8 1503 l 1,5,-1
 582.3 1503 l 1,6,-1
 455.4 778 l 1,7,-1
 639.9 778 l 1,8,-1
 619.2 668 l 1,9,-1
 121.5 668 l 1,10,-1
 140.4 778 l 1,0,-1
EndSplineSet
EndChar
StartChar: ordmasculine
Encoding: 186 186 186
Width: 868
Flags: W
Fore
709.2 1180 m 0,0,1
 709.2 1290 709.2 1290 664.65 1347.5 c 128,-1,2
 620.1 1405 620.1 1405 532.8 1405 c 0,3,4
 428.4 1405 428.4 1405 352.35 1298 c 128,-1,5
 276.3 1191 276.3 1191 276.3 1040 c 0,6,7
 276.3 931 276.3 931 320.85 872 c 128,-1,8
 365.4 813 365.4 813 448.2 813 c 0,9,10
 558 813 558 813 633.6 918.5 c 128,-1,11
 709.2 1024 709.2 1024 709.2 1180 c 0,0,1
558.9 1520 m 0,12,13
 692.1 1520 692.1 1520 771.75 1434 c 128,-1,14
 851.4 1348 851.4 1348 851.4 1204 c 0,15,16
 851.4 984 851.4 984 731.7 841 c 128,-1,17
 612 698 612 698 429.3 698 c 0,18,19
 294.3 698 294.3 698 215.55 788 c 128,-1,20
 136.8 878 136.8 878 136.8 1032 c 0,21,22
 136.8 1100 136.8 1100 153.9 1166.5 c 128,-1,23
 171 1233 171 1233 204.3 1296 c 0,24,25
 260.1 1402 260.1 1402 353.7 1461 c 128,-1,26
 447.3 1520 447.3 1520 558.9 1520 c 0,12,13
93.5996 592 m 1,27,-1
 713.7 592 l 1,28,-1
 693 469 l 1,29,-1
 73.7998 469 l 1,30,-1
 93.5996 592 l 1,27,-1
EndSplineSet
EndChar
StartChar: guillemotright
Encoding: 187 187 187
Width: 1137
Flags: W
Fore
512.1 141 m 1,0,-1
 547.2 342 l 1,1,-1
 866.7 612 l 1,2,-1
 639.9 879 l 1,3,-1
 675 1059 l 1,4,-1
 1021.5 641 l 1,5,-1
 1008 559 l 1,6,-1
 512.1 141 l 1,0,-1
114.3 141 m 1,7,-1
 149.4 342 l 1,8,-1
 466.2 612 l 1,9,-1
 241.2 879 l 1,10,-1
 274.5 1059 l 1,11,-1
 621 641 l 1,12,-1
 608.4 559 l 1,13,-1
 114.3 141 l 1,7,-1
EndSplineSet
EndChar
StartChar: questiondown
Encoding: 191 191 191
Width: 978
Flags: W
Fore
550.8 1239 m 1,0,-1
 595.8 1493 l 1,1,-1
 777.6 1493 l 1,2,-1
 733.5 1239 l 1,3,-1
 550.8 1239 l 1,0,-1
750.6 86 m 1,4,5
 657.9 29 657.9 29 567 1 c 128,-1,6
 476.1 -27 476.1 -27 379.8 -27 c 0,7,8
 234.9 -27 234.9 -27 151.65 48 c 128,-1,9
 68.4004 123 68.4004 123 68.4004 252 c 0,10,11
 68.4004 355 68.4004 355 116.55 445 c 128,-1,12
 164.7 535 164.7 535 272.7 633 c 2,13,-1
 365.4 717 l 2,14,15
 441.9 785 441.9 785 467.55 832 c 128,-1,16
 493.2 879 493.2 879 508.5 969 c 1,17,-1
 531 1092 l 1,18,-1
 702 1092 l 1,19,-1
 675 938 l 1,20,21
 657.9 844 657.9 844 622.8 778.5 c 128,-1,22
 587.7 713 587.7 713 488.7 621 c 2,23,-1
 392.4 532 l 2,24,25
 316.8 462 316.8 462 286.65 409 c 128,-1,26
 256.5 356 256.5 356 256.5 299 c 0,27,28
 256.5 223 256.5 223 305.55 180 c 128,-1,29
 354.6 137 354.6 137 440.1 137 c 0,30,31
 513 137 513 137 601.2 172.5 c 128,-1,32
 689.4 208 689.4 208 783 274 c 1,33,-1
 750.6 86 l 1,4,5
EndSplineSet
EndChar
StartChar: Aring
Encoding: 197 197 197
Width: 1260
Flags: W
Fore
918 1626 m 0,0,1
 918 1689 918 1689 877.95 1733.5 c 128,-1,2
 837.9 1778 837.9 1778 781.2 1778 c 0,3,4
 723.6 1778 723.6 1778 684.45 1734.5 c 128,-1,5
 645.3 1691 645.3 1691 645.3 1626 c 0,6,7
 645.3 1563 645.3 1563 684.45 1519 c 128,-1,8
 723.6 1475 723.6 1475 781.2 1475 c 0,9,10
 837.9 1475 837.9 1475 877.95 1519 c 128,-1,11
 918 1563 918 1563 918 1626 c 0,0,1
634.5 1407 m 1,12,13
 585.9 1444 585.9 1444 560.25 1500.5 c 128,-1,14
 534.6 1557 534.6 1557 534.6 1626 c 0,15,16
 534.6 1740 534.6 1740 606.6 1820.5 c 128,-1,17
 678.6 1901 678.6 1901 781.2 1901 c 0,18,19
 883.8 1901 883.8 1901 956.25 1820.5 c 128,-1,20
 1028.7 1740 1028.7 1740 1028.7 1626 c 0,21,22
 1028.7 1547 1028.7 1547 995.85 1486 c 128,-1,23
 963 1425 963 1425 900.9 1389 c 1,24,-1
 1134 0 l 1,25,-1
 944.1 0 l 1,26,-1
 888.3 383 l 1,27,-1
 283.5 383 l 1,28,-1
 93.5996 0 l 1,29,-1
 -98.0996 0 l 1,30,-1
 634.5 1407 l 1,12,13
744.3 1294 m 1,31,-1
 367.2 551 l 1,32,-1
 860.4 551 l 1,33,-1
 744.3 1294 l 1,31,-1
EndSplineSet
Ligature: 0 0 'liga' A uni030A
EndChar
StartChar: AE
Encoding: 198 198 198
Width: 1795
Flags: W
Fore
838.8 1335 m 1,0,-1
 404.1 551 l 1,1,-1
 816.3 551 l 1,2,-1
 954.9 1335 l 1,3,-1
 838.8 1335 l 1,0,-1
1832.4 1493 m 1,4,-1
 1802.7 1323 l 1,5,-1
 1135.8 1323 l 1,6,-1
 1056.6 881 l 1,7,-1
 1697.4 881 l 1,8,-1
 1667.7 711 l 1,9,-1
 1026.9 711 l 1,10,-1
 932.4 170 l 1,11,-1
 1616.4 170 l 1,12,-1
 1586.7 0 l 1,13,-1
 720.9 0 l 1,14,-1
 786.6 383 l 1,15,-1
 313.2 383 l 1,16,-1
 101.7 0 l 1,17,-1
 -82.7998 0 l 1,18,-1
 740.7 1493 l 1,19,-1
 1832.4 1493 l 1,4,-1
EndSplineSet
KernsSLIFO: 45 -36 0 0
EndChar
StartChar: Eth
Encoding: 208 208 208
Width: 1428
Flags: W
Fore
320.4 1493 m 1,0,-1
 711.9 1493 l 2,1,2
 1022.4 1493 1022.4 1493 1181.25 1346.5 c 128,-1,3
 1340.1 1200 1340.1 1200 1340.1 911 c 0,4,5
 1340.1 721 1340.1 721 1279.35 544.5 c 128,-1,6
 1218.6 368 1218.6 368 1111.5 246 c 0,7,8
 1004.4 122 1004.4 122 840.6 61 c 128,-1,9
 676.8 0 676.8 0 451.8 0 c 2,10,-1
 59.4004 0 l 1,11,-1
 180.9 700 l 1,12,-1
 0 700 l 1,13,-1
 26.0996 844 l 1,14,-1
 206.1 844 l 1,15,-1
 320.4 1493 l 1,0,-1
473.4 1327 m 1,16,-1
 388.8 844 l 1,17,-1
 691.2 844 l 1,18,-1
 665.1 700 l 1,19,-1
 362.7 700 l 1,20,-1
 270.9 166 l 1,21,-1
 508.5 166 l 2,22,23
 814.5 166 814.5 166 981.45 361 c 128,-1,24
 1148.4 556 1148.4 556 1148.4 911 c 0,25,26
 1148.4 1126 1148.4 1126 1040.4 1226.5 c 128,-1,27
 932.4 1327 932.4 1327 702 1327 c 2,28,-1
 473.4 1327 l 1,16,-1
EndSplineSet
KernsSLIFO: 45 38 0 0
EndChar
StartChar: multiply
Encoding: 215 215 215
Width: 1544
Flags: W
Fore
1292.4 1100 m 1,0,-1
 881.1 641 l 1,1,-1
 1292.4 184 l 1,2,-1
 1185.3 63 l 1,3,-1
 772.2 522 l 1,4,-1
 359.1 63 l 1,5,-1
 252.9 184 l 1,6,-1
 663.3 641 l 1,7,-1
 252.9 1100 l 1,8,-1
 359.1 1221 l 1,9,-1
 772.2 762 l 1,10,-1
 1185.3 1221 l 1,11,-1
 1292.4 1100 l 1,0,-1
EndSplineSet
EndChar
StartChar: Oslash
Encoding: 216 216 216
Width: 1450
Flags: W
AnchorPoint: "above" 885.6 1520 basechar 0
Fore
1100.7 1235 m 1,0,1
 1060.2 1295 1060.2 1295 994.5 1325.5 c 128,-1,2
 928.8 1356 928.8 1356 840.6 1356 c 0,3,4
 692.1 1356 692.1 1356 577.35 1275 c 128,-1,5
 462.6 1194 462.6 1194 379.8 1032 c 0,6,7
 324 923 324 923 294.75 804 c 128,-1,8
 265.5 685 265.5 685 265.5 571 c 0,9,10
 265.5 526 265.5 526 270.9 482.5 c 128,-1,11
 276.3 439 276.3 439 287.1 395 c 1,12,-1
 1100.7 1235 l 1,0,1
1159.2 1116 m 1,13,-1
 342.9 270 l 1,14,15
 388.8 202 388.8 202 454.95 168.5 c 128,-1,16
 521.1 135 521.1 135 610.2 135 c 0,17,18
 757.8 135 757.8 135 873.45 216.5 c 128,-1,19
 989.1 298 989.1 298 1071 459 c 0,20,21
 1126.8 571 1126.8 571 1155.15 688.5 c 128,-1,22
 1183.5 806 1183.5 806 1183.5 928 c 0,23,24
 1183.5 984 1183.5 984 1177.65 1030.5 c 128,-1,25
 1171.8 1077 1171.8 1077 1159.2 1116 c 1,13,-1
144 246 m 1,26,27
 108.9 326 108.9 326 91.3496 408 c 128,-1,28
 73.7998 490 73.7998 490 73.7998 575 c 0,29,30
 73.7998 741 73.7998 741 128.7 909 c 128,-1,31
 183.6 1077 183.6 1077 281.7 1212 c 0,32,33
 394.2 1366 394.2 1366 535.05 1443 c 128,-1,34
 675.9 1520 675.9 1520 846 1520 c 0,35,36
 963 1520 963 1520 1057.5 1481.5 c 128,-1,37
 1152 1443 1152 1443 1227.6 1366 c 1,38,-1
 1410.3 1559 l 1,39,-1
 1491.3 1460 l 1,40,-1
 1303.2 1262 l 1,41,42
 1339.2 1189 1339.2 1189 1357.2 1104.5 c 128,-1,43
 1375.2 1020 1375.2 1020 1375.2 922 c 0,44,45
 1375.2 745 1375.2 745 1322.1 579.5 c 128,-1,46
 1269 414 1269 414 1168.2 279 c 0,47,48
 1053 123 1053 123 913.95 47 c 128,-1,49
 774.9 -29 774.9 -29 604.8 -29 c 0,50,51
 479.7 -29 479.7 -29 382.05 13 c 128,-1,52
 284.4 55 284.4 55 216 137 c 1,53,-1
 18 -66 l 1,54,-1
 -63 33 l 1,55,-1
 144 246 l 1,26,27
EndSplineSet
KernsSLIFO: 88 -36 0 0 59 38 0 0 58 38 0 0 46 -83 0 0 45 38 0 0 44 -83 0 0
EndChar
StartChar: Thorn
Encoding: 222 222 222
Width: 1120
Flags: W
Fore
522 338 m 2,0,-1
 291.6 338 l 1,1,-1
 232.2 0 l 1,2,-1
 49.5 0 l 1,3,-1
 311.4 1493 l 1,4,-1
 494.1 1493 l 1,5,-1
 448.2 1229 l 1,6,-1
 687.6 1229 l 2,7,8
 871.2 1229 871.2 1229 967.5 1134 c 128,-1,9
 1063.8 1039 1063.8 1039 1063.8 856 c 0,10,11
 1063.8 610 1063.8 610 921.6 474 c 128,-1,12
 779.4 338 779.4 338 522 338 c 2,0,-1
420.3 1063 m 1,13,-1
 322.2 504 l 1,14,-1
 550.8 504 l 2,15,16
 705.6 504 705.6 504 788.85 591.5 c 128,-1,17
 872.1 679 872.1 679 872.1 844 c 0,18,19
 872.1 948 872.1 948 816.3 1005.5 c 128,-1,20
 760.5 1063 760.5 1063 657.9 1063 c 2,21,-1
 420.3 1063 l 1,13,-1
EndSplineSet
KernsSLIFO: 46 -149 0 0 45 75 0 0 44 -149 0 0
EndChar
StartChar: germandbls
Encoding: 223 223 223
Width: 1161
Flags: W
Fore
285.3 1137 m 1,0,1
 319.5 1334 319.5 1334 438.75 1445 c 128,-1,2
 558 1556 558 1556 735.3 1556 c 0,3,4
 891.9 1556 891.9 1556 989.55 1463 c 128,-1,5
 1087.2 1370 1087.2 1370 1087.2 1223 c 0,6,7
 1087.2 1198 1087.2 1198 1084.5 1167.5 c 128,-1,8
 1081.8 1137 1081.8 1137 1076.4 1100 c 1,9,10
 930.6 1092 930.6 1092 840.6 1024.5 c 128,-1,11
 750.6 957 750.6 957 750.6 860 c 0,12,13
 750.6 820 750.6 820 769.5 784 c 128,-1,14
 788.4 748 788.4 748 831.6 711 c 2,15,-1
 875.7 672 l 2,16,17
 982.8 578 982.8 578 1019.7 512.5 c 128,-1,18
 1056.6 447 1056.6 447 1056.6 367 c 0,19,20
 1056.6 195 1056.6 195 931.5 83 c 128,-1,21
 806.4 -29 806.4 -29 610.2 -29 c 0,22,23
 541.8 -29 541.8 -29 478.8 -16.5 c 128,-1,24
 415.8 -4 415.8 -4 359.1 20 c 1,25,-1
 387 184 l 1,26,27
 445.5 155 445.5 155 508.05 140 c 128,-1,28
 570.6 125 570.6 125 634.5 125 c 0,29,30
 746.1 125 746.1 125 815.4 182 c 128,-1,31
 884.7 239 884.7 239 884.7 330 c 0,32,33
 884.7 375 884.7 375 863.55 414 c 128,-1,34
 842.4 453 842.4 453 772.2 520 c 2,35,-1
 726.3 563 l 2,36,37
 639 645 639 645 608.85 700.5 c 128,-1,38
 578.7 756 578.7 756 578.7 823 c 0,39,40
 578.7 949 578.7 949 674.1 1050 c 128,-1,41
 769.5 1151 769.5 1151 925.2 1188 c 1,42,43
 927 1196 927 1196 927.9 1206 c 128,-1,44
 928.8 1216 928.8 1216 928.8 1235 c 0,45,46
 928.8 1313 928.8 1313 877.95 1358 c 128,-1,47
 827.1 1403 827.1 1403 737.1 1403 c 0,48,49
 617.4 1403 617.4 1403 545.4 1335 c 128,-1,50
 473.4 1267 473.4 1267 450 1133 c 2,51,-1
 252.9 0 l 1,52,-1
 86.4004 0 l 1,53,-1
 285.3 1137 l 1,0,1
EndSplineSet
EndChar
StartChar: ae
Encoding: 230 230 230
Width: 1834
Flags: W
AnchorPoint: "above" 998.37 1147 basechar 0
AnchorPoint: "below" 797.708 0 basechar 0
Fore
1586.7 660 m 1,0,1
 1589.4 676 1589.4 676 1590.75 693 c 128,-1,2
 1592.1 710 1592.1 710 1592.1 727 c 0,3,4
 1592.1 849 1592.1 849 1528.2 920 c 128,-1,5
 1464.3 991 1464.3 991 1352.7 991 c 0,6,7
 1229.4 991 1229.4 991 1134.9 904.5 c 128,-1,8
 1040.4 818 1040.4 818 991.8 659 c 1,9,-1
 1586.7 660 l 1,0,1
287.1 1069 m 1,10,11
 380.7 1108 380.7 1108 470.25 1127.5 c 128,-1,12
 559.8 1147 559.8 1147 643.5 1147 c 0,13,14
 773.1 1147 773.1 1147 856.8 1102 c 128,-1,15
 940.5 1057 940.5 1057 981 965 c 1,16,17
 1058.4 1055 1058.4 1055 1159.2 1101 c 128,-1,18
 1260 1147 1260 1147 1378.8 1147 c 0,19,20
 1549.8 1147 1549.8 1147 1651.5 1033 c 128,-1,21
 1753.2 919 1753.2 919 1753.2 727 c 0,22,23
 1753.2 681 1753.2 681 1747.35 628.5 c 128,-1,24
 1741.5 576 1741.5 576 1730.7 516 c 1,25,-1
 960.3 516 l 1,26,27
 954.9 478 954.9 478 953.1 456 c 128,-1,28
 951.3 434 951.3 434 951.3 418 c 0,29,30
 951.3 279 951.3 279 1028.25 203 c 128,-1,31
 1105.2 127 1105.2 127 1245.6 127 c 0,32,33
 1353.6 127 1353.6 127 1450.35 154 c 128,-1,34
 1547.1 181 1547.1 181 1629 233 c 1,35,-1
 1598.4 51 l 1,36,37
 1508.4 11 1508.4 11 1413.45 -9 c 128,-1,38
 1318.5 -29 1318.5 -29 1220.4 -29 c 0,39,40
 1069.2 -29 1069.2 -29 967.05 28.5 c 128,-1,41
 864.9 86 864.9 86 814.5 199 c 1,42,43
 722.7 81 722.7 81 623.7 26 c 128,-1,44
 524.7 -29 524.7 -29 405.9 -29 c 0,45,46
 249.3 -29 249.3 -29 162.45 53 c 128,-1,47
 75.5996 135 75.5996 135 75.5996 283 c 0,48,49
 75.5996 479 75.5996 479 216.45 593 c 128,-1,50
 357.3 707 357.3 707 604.8 707 c 2,51,-1
 835.2 707 l 1,52,-1
 844.2 756 l 1,53,54
 846 764 846 764 846.9 773.5 c 128,-1,55
 847.8 783 847.8 783 847.8 803 c 0,56,57
 847.8 892 847.8 892 782.55 941.5 c 128,-1,58
 717.3 991 717.3 991 599.4 991 c 0,59,60
 518.4 991 518.4 991 433.35 968 c 128,-1,61
 348.3 945 348.3 945 258.3 899 c 1,62,-1
 287.1 1069 l 1,10,11
810.9 563 m 1,63,-1
 645.3 563 l 2,64,65
 441.9 563 441.9 563 344.25 502.5 c 128,-1,66
 246.6 442 246.6 442 246.6 315 c 0,67,68
 246.6 227 246.6 227 296.55 177 c 128,-1,69
 346.5 127 346.5 127 434.7 127 c 0,70,71
 569.7 127 569.7 127 670.5 234.5 c 128,-1,72
 771.3 342 771.3 342 803.7 522 c 2,73,-1
 810.9 563 l 1,63,-1
EndSplineSet
EndChar
StartChar: eth
Encoding: 240 240 240
Width: 1127
Flags: W
AnchorPoint: "below" 439.731 0 basechar 0
AnchorPoint: "above" 705.645 1520 basechar 0
Fore
914.4 1141 m 1,0,1
 975.6 1039 975.6 1039 1006.65 928.5 c 128,-1,2
 1037.7 818 1037.7 818 1037.7 700 c 0,3,4
 1037.7 564 1037.7 564 1002.15 437.5 c 128,-1,5
 966.6 311 966.6 311 899.1 211 c 1,6,7
 823.5 95 823.5 95 713.25 33 c 128,-1,8
 603 -29 603 -29 473.4 -29 c 0,9,10
 295.2 -29 295.2 -29 189 88.5 c 128,-1,11
 82.7998 206 82.7998 206 82.7998 401 c 0,12,13
 82.7998 521 82.7998 521 119.7 639 c 128,-1,14
 156.6 757 156.6 757 225 858 c 0,15,16
 304.2 974 304.2 974 413.1 1036 c 128,-1,17
 522 1098 522 1098 647.1 1098 c 0,18,19
 665.1 1098 665.1 1098 691.2 1095.5 c 128,-1,20
 717.3 1093 717.3 1093 753.3 1088 c 1,21,-1
 641.7 1268 l 1,22,-1
 325.8 1161 l 1,23,-1
 297 1255 l 1,24,-1
 591.3 1352 l 1,25,-1
 466.2 1556 l 1,26,-1
 661.5 1556 l 1,27,-1
 747.9 1411 l 1,28,-1
 1050.3 1520 l 1,29,-1
 1081.8 1425 l 1,30,-1
 800.1 1327 l 1,31,-1
 914.4 1141 l 1,0,1
821.7 915 m 1,32,33
 783 932 783 932 743.85 940 c 128,-1,34
 704.7 948 704.7 948 665.1 948 c 0,35,36
 483.3 948 483.3 948 369 797.5 c 128,-1,37
 254.7 647 254.7 647 254.7 408 c 0,38,39
 254.7 270 254.7 270 313.65 198.5 c 128,-1,40
 372.6 127 372.6 127 486.9 127 c 0,41,42
 650.7 127 650.7 127 760.5 288.5 c 128,-1,43
 870.3 450 870.3 450 870.3 694 c 0,44,45
 870.3 762 870.3 762 858.6 816 c 128,-1,46
 846.9 870 846.9 870 821.7 915 c 1,32,33
EndSplineSet
EndChar
StartChar: divide
Encoding: 247 247 247
Width: 1544
Flags: W
Fore
661.5 1135 m 1,0,-1
 882.9 1135 l 1,1,-1
 882.9 889 l 1,2,-1
 661.5 889 l 1,3,-1
 661.5 1135 l 1,0,-1
661.5 395 m 1,4,-1
 882.9 395 l 1,5,-1
 882.9 150 l 1,6,-1
 661.5 150 l 1,7,-1
 661.5 395 l 1,4,-1
195.3 727 m 1,8,-1
 1349.1 727 l 1,9,-1
 1349.1 557 l 1,10,-1
 195.3 557 l 1,11,-1
 195.3 727 l 1,8,-1
EndSplineSet
EndChar
StartChar: oslash
Encoding: 248 248 248
Width: 1127
Flags: W
AnchorPoint: "above" 676.517 1147 basechar 0
AnchorPoint: "below" 475.857 0 basechar 0
Fore
810.9 922 m 1,0,1
 777.6 957 777.6 957 735.75 974 c 128,-1,2
 693.9 991 693.9 991 641.7 991 c 0,3,4
 474.3 991 474.3 991 366.3 830.5 c 128,-1,5
 258.3 670 258.3 670 258.3 420 c 0,6,7
 258.3 373 258.3 373 259.65 352.5 c 128,-1,8
 261 332 261 332 265.5 315 c 1,9,-1
 810.9 922 l 1,0,1
138.6 172 m 1,10,11
 111.6 221 111.6 221 98.0996 284 c 128,-1,12
 84.5996 347 84.5996 347 84.5996 422 c 0,13,14
 84.5996 544 84.5996 544 120.15 671.5 c 128,-1,15
 155.7 799 155.7 799 212.4 885 c 0,16,17
 300.6 1019 300.6 1019 409.95 1083 c 128,-1,18
 519.3 1147 519.3 1147 659.7 1147 c 0,19,20
 738 1147 738 1147 804.6 1121 c 128,-1,21
 871.2 1095 871.2 1095 923.4 1044 c 1,22,-1
 1069.2 1208 l 1,23,-1
 1146.6 1122 l 1,24,-1
 991.8 950 l 1,25,26
 1017 895 1017 895 1030.05 832.5 c 128,-1,27
 1043.1 770 1043.1 770 1043.1 702 c 0,28,29
 1043.1 578 1043.1 578 1007.55 448.5 c 128,-1,30
 972 319 972 319 916.2 233 c 0,31,32
 828.9 99 828.9 99 719.55 35 c 128,-1,33
 610.2 -29 610.2 -29 468 -29 c 0,34,35
 389.7 -29 389.7 -29 323.55 -2.5 c 128,-1,36
 257.4 24 257.4 24 206.1 76 c 1,37,-1
 51.2998 -94 l 1,38,-1
 -26.0996 -10 l 1,39,-1
 138.6 172 l 1,10,11
864.9 809 m 1,40,-1
 316.8 199 l 1,41,42
 351.9 162 351.9 162 392.85 144.5 c 128,-1,43
 433.8 127 433.8 127 486.9 127 c 0,44,45
 657 127 657 127 764.55 290.5 c 128,-1,46
 872.1 454 872.1 454 872.1 717 c 0,47,48
 872.1 756 872.1 756 870.3 775 c 128,-1,49
 868.5 794 868.5 794 864.9 809 c 1,40,-1
EndSplineSet
EndChar
StartChar: thorn
Encoding: 254 254 254
Width: 1170
Flags: W
Fore
914.4 690 m 0,0,1
 914.4 837 914.4 837 856.8 915 c 128,-1,2
 799.2 993 799.2 993 691.2 993 c 0,3,4
 617.4 993 617.4 993 550.35 951 c 128,-1,5
 483.3 909 483.3 909 431.1 829 c 0,6,7
 379.8 750 379.8 750 349.2 638 c 128,-1,8
 318.6 526 318.6 526 318.6 416 c 0,9,10
 318.6 276 318.6 276 376.2 200.5 c 128,-1,11
 433.8 125 433.8 125 540 125 c 0,12,13
 618.3 125 618.3 125 685.35 166 c 128,-1,14
 752.4 207 752.4 207 800.1 285 c 0,15,16
 851.4 367 851.4 367 882.9 478 c 128,-1,17
 914.4 589 914.4 589 914.4 690 c 0,0,1
401.4 950 m 1,18,19
 468 1047 468 1047 558.45 1097 c 128,-1,20
 648.9 1147 648.9 1147 759.6 1147 c 0,21,22
 914.4 1147 914.4 1147 999.9 1034.5 c 128,-1,23
 1085.4 922 1085.4 922 1085.4 719 c 0,24,25
 1085.4 553 1085.4 553 1032.3 402.5 c 128,-1,26
 979.2 252 979.2 252 879.3 133 c 0,27,28
 812.7 54 812.7 54 729 12.5 c 128,-1,29
 645.3 -29 645.3 -29 552.6 -29 c 0,30,31
 445.5 -29 445.5 -29 372.6 20.5 c 128,-1,32
 299.7 70 299.7 70 263.7 168 c 1,33,-1
 160.2 -426 l 1,34,-1
 -5.40039 -426 l 1,35,-1
 337.5 1556 l 1,36,-1
 503.1 1556 l 1,37,-1
 401.4 950 l 1,18,19
EndSplineSet
EndChar
StartChar: dcroat
Encoding: 273 273 273
Width: 1170
Flags: W
Fore
770.4 168 m 1,0,1
 703.8 71 703.8 71 612.9 21 c 128,-1,2
 522 -29 522 -29 411.3 -29 c 0,3,4
 260.1 -29 260.1 -29 172.35 85.5 c 128,-1,5
 84.5996 200 84.5996 200 84.5996 399 c 0,6,7
 84.5996 565 84.5996 565 137.7 715.5 c 128,-1,8
 190.8 866 190.8 866 291.6 985 c 0,9,10
 358.2 1064 358.2 1064 441.9 1105.5 c 128,-1,11
 525.6 1147 525.6 1147 617.4 1147 c 0,12,13
 714.6 1147 714.6 1147 788.85 1095 c 128,-1,14
 863.1 1043 863.1 1043 903.6 946 c 1,15,-1
 963.9 1284 l 1,16,-1
 670.5 1284 l 1,17,-1
 694.8 1407 l 1,18,-1
 988.2 1407 l 1,19,-1
 1011.6 1556 l 1,20,-1
 1178.1 1556 l 1,21,-1
 1153.8 1407 l 1,22,-1
 1292.4 1407 l 1,23,-1
 1268.1 1284 l 1,24,-1
 1129.5 1284 l 1,25,-1
 905.4 0 l 1,26,-1
 738.9 0 l 1,27,-1
 770.4 168 l 1,0,1
256.5 432 m 0,28,29
 256.5 287 256.5 287 315.45 206 c 128,-1,30
 374.4 125 374.4 125 478.8 125 c 0,31,32
 556.2 125 556.2 125 622.35 166.5 c 128,-1,33
 688.5 208 688.5 208 738.9 289 c 0,34,35
 792 373 792 373 822.6 483 c 128,-1,36
 853.2 593 853.2 593 853.2 700 c 0,37,38
 853.2 839 853.2 839 794.25 917 c 128,-1,39
 735.3 995 735.3 995 631.8 995 c 0,40,41
 553.5 995 553.5 995 486 954 c 128,-1,42
 418.5 913 418.5 913 370.8 836 c 0,43,44
 318.6 753 318.6 753 287.55 643 c 128,-1,45
 256.5 533 256.5 533 256.5 432 c 0,28,29
EndSplineSet
EndChar
StartChar: Hbar
Encoding: 294 294 294
Width: 1688
Flags: W
AnchorPoint: "above" 990.9 1520 basechar 0
Fore
462.6 1493 m 1,0,-1
 644.4 1493 l 1,1,-1
 605.7 1269 l 1,2,-1
 1266.3 1269 l 1,3,-1
 1305 1493 l 1,4,-1
 1486.8 1493 l 1,5,-1
 1448.1 1269 l 1,6,-1
 1599.3 1269 l 1,7,-1
 1570.5 1105 l 1,8,-1
 1419.3 1105 l 1,9,-1
 1225.8 0 l 1,10,-1
 1044 0 l 1,11,-1
 1168.2 711 l 1,12,-1
 507.6 711 l 1,13,-1
 383.4 0 l 1,14,-1
 201.6 0 l 1,15,-1
 395.1 1105 l 1,16,-1
 243.9 1105 l 1,17,-1
 272.7 1269 l 1,18,-1
 423.9 1269 l 1,19,-1
 462.6 1493 l 1,0,-1
576.9 1105 m 1,20,-1
 537.3 881 l 1,21,-1
 1197.9 881 l 1,22,-1
 1237.5 1105 l 1,23,-1
 576.9 1105 l 1,20,-1
EndSplineSet
EndChar
StartChar: hbar
Encoding: 295 295 295
Width: 1280
Flags: W
AnchorPoint: "below" 511.895 0 basechar 0
AnchorPoint: "above" 428.4 1520 basechar 0
Fore
1046.7 676 m 2,0,-1
 928.8 0 l 1,1,-1
 763.2 0 l 1,2,-1
 880.2 670 l 17,3,4
 891 733 891 733 891 784 c 0,5,6
 891 860.5 891 860.5 866.25 908 c 0,7,8
 823.95 987 823.95 987 712.35 987 c 0,9,10
 578.7 987 578.7 987 484.2 892 c 0,11,12
 390.6 797 390.6 797 361.8 633 c 9,13,-1
 251.1 0 l 1,14,-1
 84.5996 0 l 1,15,-1
 306.9 1270 l 1,16,-1
 194.4 1270 l 1,17,-1
 223.2 1434 l 1,18,-1
 335.7 1434 l 1,19,-1
 356.4 1556 l 1,20,-1
 522.9 1556 l 1,21,-1
 502.2 1434 l 1,22,-1
 819 1434 l 1,23,-1
 790.2 1270 l 1,24,-1
 473.4 1270 l 1,25,-1
 416.7 946 l 1,26,27
 493.2 1047 493.2 1047 582.75 1097 c 0,28,29
 671.85 1147 671.85 1147 777.15 1147 c 0,30,31
 950.85 1147 950.85 1147 1019.25 1027.5 c 0,32,33
 1062 952.5 1062 952.5 1062 833.5 c 0,34,35
 1062 762.5 1062 762.5 1046.7 676 c 2,0,-1
EndSplineSet
EndChar
StartChar: dotlessi
Encoding: 305 305 305
Width: 512
Flags: W
AnchorPoint: "above" 324 1147 basechar 0
Fore
261.9 1120 m 1,0,-1
 427.5 1120 l 1,1,-1
 230.4 0 l 1,2,-1
 64.7998 0 l 1,3,-1
 261.9 1120 l 1,0,-1
EndSplineSet
EndChar
StartChar: kgreenlandic
Encoding: 312 312 312
Width: 1067
Flags: W
Fore
265.5 1120 m 1,0,-1
 432 1120 l 1,1,-1
 347.4 635 l 1,2,-1
 926.1 1120 l 1,3,-1
 1137.6 1120 l 1,4,-1
 511.2 594 l 1,5,-1
 963.9 0 l 1,6,-1
 747.9 0 l 1,7,-1
 331.2 545 l 1,8,-1
 235.8 0 l 1,9,-1
 69.2998 0 l 1,10,-1
 265.5 1120 l 1,0,-1
EndSplineSet
EndChar
StartChar: Lslash
Encoding: 321 321 321
Width: 1035
Flags: W
Fore
318.6 1493 m 1,0,-1
 501.3 1493 l 1,1,-1
 388.8 860 l 1,2,-1
 705.6 1016 l 1,3,-1
 756 891 l 1,4,-1
 360.9 698 l 1,5,-1
 270.9 168 l 1,6,-1
 925.2 168 l 1,7,-1
 895.5 0 l 1,8,-1
 59.4004 0 l 1,9,-1
 162 600 l 1,10,-1
 14.4004 524 l 1,11,-1
 -36.9004 647 l 1,12,-1
 189.9 760 l 1,13,-1
 318.6 1493 l 1,0,-1
EndSplineSet
KernsSLIFO: 356 -139 0 0 253 -73 0 0 221 -196 0 0 210 -63 0 0 212 -63 0 0 211 -63 0 0 376 -196 0 0 255 -73 0 0 8217 -368 0 0 8216 -188 0 0 8221 -368 0 0 8220 -188 0 0 338 -63 0 0 213 -63 0 0 216 -63 0 0 214 -63 0 0 121 -73 0 0 89 -196 0 0 87 -83 0 0 86 -149 0 0 84 -139 0 0 79 -63 0 0 45 -159 0 0
EndChar
StartChar: lslash
Encoding: 322 322 322
Width: 529
Flags: W
Fore
350.1 1556 m 1,0,-1
 515.7 1556 l 1,1,-1
 411.3 950 l 1,2,-1
 538.2 1014 l 1,3,-1
 585.9 895 l 1,4,-1
 385.2 793 l 1,5,-1
 243 0 l 1,6,-1
 77.4004 0 l 1,7,-1
 200.7 700 l 1,8,-1
 79.2002 639 l 1,9,-1
 31.5 758 l 1,10,-1
 228.6 856 l 1,11,-1
 350.1 1556 l 1,0,-1
EndSplineSet
EndChar
StartChar: Eng
Encoding: 330 330 330
Width: 1378
Flags: W
AnchorPoint: "above" 850.5 1520 basechar 0
Fore
331.2 1493 m 1,0,-1
 496.8 1493 l 1,1,-1
 959.4 344 l 1,2,-1
 1161 1493 l 1,3,-1
 1326.6 1493 l 1,4,-1
 1062 -20 l 18,5,6
 1024.2 -234 1024.2 -234 933.3 -330 c 0,7,8
 844.2 -426 844.2 -426 680.4 -426 c 2,9,-1
 451.8 -426 l 1,10,-1
 478.8 -270 l 1,11,-1
 689.4 -270 l 2,12,13
 783 -270 783 -270 826.2 -222 c 0,14,15
 873.9 -157 873.9 -157 899.1 0 c 1,16,-1
 436.5 1149 l 1,17,-1
 234.9 0 l 1,18,-1
 69.2998 0 l 1,19,-1
 331.2 1493 l 1,0,-1
EndSplineSet
Substitution: 0 2 'salt' Eng.alt
Substitution: 0 4 'locl' Eng.alt
Substitution: 0 2 'aalt' Eng.alt
EndChar
StartChar: eng
Encoding: 331 331 331
Width: 1168
Flags: W
AnchorPoint: "above" 674.1 1147 basechar 0
AnchorPoint: "below" 434.645 -430 basechar 0
Fore
1026.9 676 m 1,0,-1
 905.067 -25 l 2,1,2
 871.898 -215.859 871.898 -215.859 828.568 -287 c 0,3,4
 788.068 -354 788.068 -354 710.219 -390 c 128,-1,5
 632.369 -426 632.369 -426 526.169 -426 c 2,6,-1
 293.4 -426 l 1,7,-1
 320.4 -270 l 1,8,-1
 533.369 -270 l 2,9,10
 630.568 -270 630.568 -270 671.519 -225 c 128,-1,11
 712.501 -179.964 712.501 -179.964 740.369 -20 c 2,12,-1
 860.4 669 l 2,13,14
 868.5 716 868.5 716 873 752 c 128,-1,15
 877.5 788 877.5 788 877.5 809 c 0,16,17
 877.5 893 877.5 893 829.8 940 c 128,-1,18
 782.1 987 782.1 987 696.6 987 c 0,19,20
 563.4 987 563.4 987 467.1 888.5 c 128,-1,21
 370.8 790 370.8 790 341.1 621 c 1,22,-1
 230.4 0 l 1,23,-1
 64.7998 0 l 1,24,-1
 260.1 1120 l 1,25,-1
 425.7 1120 l 1,26,-1
 392.4 944 l 1,27,28
 461.7 1041 461.7 1041 558.9 1094 c 128,-1,29
 656.1 1147 656.1 1147 763.2 1147 c 0,30,31
 896.4 1147 896.4 1147 969.75 1067 c 128,-1,32
 1043.1 987 1043.1 987 1043.1 842 c 0,33,34
 1043.1 806 1043.1 806 1039.05 765 c 128,-1,35
 1035 724 1035 724 1026.9 676 c 1,0,-1
EndSplineSet
EndChar
StartChar: OE
Encoding: 338 338 338
Width: 1971
Flags: W
Fore
1089 1323 m 1,0,-1
 981 1323 l 2,1,2
 831.6 1323 831.6 1323 715.05 1285 c 128,-1,3
 598.5 1247 598.5 1247 520.2 1174 c 0,4,5
 400.5 1064 400.5 1064 338.4 913.5 c 128,-1,6
 276.3 763 276.3 763 276.3 582 c 0,7,8
 276.3 379 276.3 379 390.15 274.5 c 128,-1,9
 504 170 504 170 726.3 170 c 2,10,-1
 770.4 170 l 1,11,-1
 886.5 170 l 1,12,-1
 1089 1323 l 1,0,-1
1966.5 1493 m 1,13,-1
 1936.8 1323 l 1,14,-1
 1271.7 1323 l 1,15,-1
 1192.5 881 l 1,16,-1
 1832.4 881 l 1,17,-1
 1802.7 711 l 1,18,-1
 1162.8 711 l 1,19,-1
 1069.2 170 l 1,20,-1
 1753.2 170 l 1,21,-1
 1723.5 0 l 1,22,-1
 742.5 0 l 2,23,24
 596.7 0 596.7 0 517.05 15.5 c 128,-1,25
 437.4 31 437.4 31 367.2 66 c 0,26,27
 225.9 136 225.9 136 155.25 265 c 128,-1,28
 84.5996 394 84.5996 394 84.5996 582 c 0,29,30
 84.5996 791 84.5996 791 167.85 977 c 128,-1,31
 251.1 1163 251.1 1163 405.9 1298 c 0,32,33
 516.6 1396 516.6 1396 674.1 1444.5 c 128,-1,34
 831.6 1493 831.6 1493 1034.1 1493 c 2,35,-1
 1966.5 1493 l 1,13,-1
EndSplineSet
EndChar
StartChar: oe
Encoding: 339 339 339
Width: 1894
Flags: W
Fore
1791.9 516 m 1,0,-1
 1021.5 516 l 1,1,2
 1017.9 489 1017.9 489 1015.65 464 c 128,-1,3
 1013.4 439 1013.4 439 1013.4 418 c 0,4,5
 1013.4 279 1013.4 279 1089.9 203 c 128,-1,6
 1166.4 127 1166.4 127 1306.8 127 c 0,7,8
 1414.8 127 1414.8 127 1512.45 154 c 128,-1,9
 1610.1 181 1610.1 181 1692 233 c 1,10,-1
 1658.7 51 l 1,11,12
 1569.6 12 1569.6 12 1475.1 -8.5 c 128,-1,13
 1380.6 -29 1380.6 -29 1282.5 -29 c 0,14,15
 1137.6 -29 1137.6 -29 1034.1 26 c 128,-1,16
 930.6 81 930.6 81 888.3 180 c 1,17,18
 797.4 75 797.4 75 693.45 23 c 128,-1,19
 589.5 -29 589.5 -29 468 -29 c 0,20,21
 296.1 -29 296.1 -29 190.35 90 c 128,-1,22
 84.5996 209 84.5996 209 84.5996 401 c 0,23,24
 84.5996 538 84.5996 538 118.8 667.5 c 128,-1,25
 153 797 153 797 212.4 885 c 0,26,27
 301.5 1019 301.5 1019 411.3 1083 c 128,-1,28
 521.1 1147 521.1 1147 659.7 1147 c 0,29,30
 776.7 1147 776.7 1147 866.25 1088.5 c 128,-1,31
 955.8 1030 955.8 1030 1004.4 922 c 1,32,33
 1093.5 1034 1093.5 1034 1202.4 1090.5 c 128,-1,34
 1311.3 1147 1311.3 1147 1439.1 1147 c 0,35,36
 1611 1147 1611 1147 1712.25 1033 c 128,-1,37
 1813.5 919 1813.5 919 1813.5 727 c 0,38,39
 1813.5 681 1813.5 681 1808.1 628.5 c 128,-1,40
 1802.7 576 1802.7 576 1791.9 516 c 1,0,-1
1647.9 660 m 1,41,42
 1650.6 676 1650.6 676 1651.95 693 c 128,-1,43
 1653.3 710 1653.3 710 1653.3 727 c 0,44,45
 1653.3 849 1653.3 849 1588.95 920 c 128,-1,46
 1524.6 991 1524.6 991 1413.9 991 c 0,47,48
 1289.7 991 1289.7 991 1195.65 904.5 c 128,-1,49
 1101.6 818 1101.6 818 1052.1 659 c 1,50,-1
 1647.9 660 l 1,41,42
256.5 430 m 0,51,52
 256.5 278 256.5 278 313.65 202.5 c 128,-1,53
 370.8 127 370.8 127 486.9 127 c 0,54,55
 653.4 127 653.4 127 762.75 287 c 128,-1,56
 872.1 447 872.1 447 872.1 696 c 0,57,58
 872.1 843 872.1 843 814.05 917 c 128,-1,59
 756 991 756 991 641.7 991 c 0,60,61
 548.1 991 548.1 991 475.2 942.5 c 128,-1,62
 402.3 894 402.3 894 344.7 795 c 0,63,64
 302.4 721 302.4 721 279.45 626 c 128,-1,65
 256.5 531 256.5 531 256.5 430 c 0,51,52
EndSplineSet
EndChar
StartChar: Tbar
Encoding: 358 358 358
Width: 1125
Flags: W
TeX: 0 0 0 0
AnchorPoint: "above" 693.9 1520 basechar 0
Fore
125.1 1493 m 1,0,-1
 1261.8 1493 l 1,1,-1
 1232.1 1323 l 1,2,-1
 755.1 1323 l 1,3,-1
 654.3 747 l 1,4,-1
 892.8 747 l 1,5,-1
 863.1 577 l 1,6,-1
 624.6 577 l 1,7,-1
 523.8 0 l 1,8,-1
 341.1 0 l 1,9,-1
 441.9 577 l 1,10,-1
 199.8 577 l 1,11,-1
 229.5 747 l 1,12,-1
 471.6 747 l 1,13,-1
 572.4 1323 l 1,14,-1
 95.4004 1323 l 1,15,-1
 125.1 1493 l 1,0,-1
EndSplineSet
EndChar
StartChar: tbar
Encoding: 359 359 359
Width: 722
Flags: W
TeX: 0 0 0 0
Fore
463.5 1438 m 1,0,-1
 407.7 1120 l 1,1,-1
 748.8 1120 l 1,2,-1
 723.6 977 l 1,3,-1
 382.5 977 l 1,4,-1
 342 744 l 1,5,-1
 513 744 l 1,6,-1
 487.8 602 l 1,7,-1
 316.8 602 l 1,8,-1
 276.3 369 l 2,9,10
 264.6 304 264.6 304 264.6 261 c 0,11,12
 264.6 214 264.6 214 279 193 c 0,13,14
 306 154 306 154 409.5 154 c 2,15,-1
 579.6 154 l 1,16,-1
 552.6 0 l 1,17,-1
 382.5 0 l 2,18,19
 190.8 0 190.8 0 132.3 80 c 0,20,21
 95.4004 129 95.4004 129 95.4004 227 c 0,22,23
 95.4004 289 95.4004 289 109.8 369 c 2,24,-1
 150.3 602 l 1,25,-1
 28.7998 602 l 1,26,-1
 54 744 l 1,27,-1
 175.5 744 l 1,28,-1
 216 977 l 1,29,-1
 94.5 977 l 1,30,-1
 119.7 1120 l 1,31,-1
 241.2 1120 l 1,32,-1
 297 1438 l 1,33,-1
 463.5 1438 l 1,0,-1
EndSplineSet
EndChar
StartChar: longs
Encoding: 383 383 383
Width: 648
Flags: W
TeX: 0 0 0 0
Fore
291.6 0 m 1,0,-1
 125.1 0 l 1,1,-1
 297 977 l 1,2,-1
 138.6 977 l 1,3,-1
 162 1120 l 1,4,-1
 320.4 1120 l 1,5,-1
 333.9 1198 l 2,6,7
 368.1 1396 368.1 1396 453.6 1476 c 0,8,9
 540 1556 540 1556 724.5 1556 c 2,10,-1
 881.1 1556 l 1,11,-1
 855 1403 l 1,12,-1
 696.6 1403 l 2,13,14
 606.6 1403 606.6 1403 565.2 1364 c 0,15,16
 524.7 1324 524.7 1324 504.9 1219 c 1,17,-1
 291.6 0 l 1,0,-1
EndSplineSet
EndChar
StartChar: uni0180
Encoding: 384 384 384
Width: 1170
Flags: W
TeX: 117 0 0 0
AnchorPoint: "above" 382.544 1520 basechar 0
Fore
861.3 559 m 0,0,1
 897.3 762 897.3 762 842.4 878 c 0,2,3
 787.5 993 787.5 993 656.1 993 c 0,4,5
 524.7 993 524.7 993 429.3 878 c 0,6,7
 333.9 762 333.9 762 297.9 559 c 0,8,9
 262.8 356 262.8 356 317.7 240 c 0,10,11
 372.6 125 372.6 125 504 125 c 0,12,13
 635.4 125 635.4 125 730.8 240 c 0,14,15
 826.2 356 826.2 356 861.3 559 c 0,0,1
366.3 950 m 1,16,17
 436.5 1050 436.5 1050 524.7 1098 c 0,18,19
 612.9 1147 612.9 1147 723.6 1147 c 0,20,21
 907.2 1147 907.2 1147 993.6 985 c 0,22,23
 1080 823 1080 823 1033.2 559 c 0,24,25
 987.3 295 987.3 295 844.2 133 c 0,26,27
 701.1 -29 701.1 -29 517.5 -29 c 0,28,29
 406.8 -29 406.8 -29 335.7 20 c 0,30,31
 264.6 68 264.6 68 229.5 168 c 1,32,-1
 200.7 0 l 1,33,-1
 34.2002 0 l 1,34,-1
 258.3 1284 l 1,35,-1
 119.7 1284 l 1,36,-1
 141.3 1409 l 1,37,-1
 279.9 1409 l 1,38,-1
 306 1556 l 1,39,-1
 472.5 1556 l 1,40,-1
 446.4 1409 l 1,41,-1
 738.9 1409 l 1,42,-1
 717.3 1284 l 1,43,-1
 424.8 1284 l 1,44,-1
 366.3 950 l 1,16,17
EndSplineSet
EndChar
StartChar: uni0181
Encoding: 385 385 385
Width: 1354
Flags: W
TeX: 117 0 0 0
Fore
577.8 713 m 1,0,-1
 481.5 166 l 1,1,-1
 773.1 166 l 2,2,3
 919.8 166 919.8 166 1002.6 234 c 128,-1,5
 1085.4 301 1085.4 301 1109.7 440 c 0,6,7
 1134 580 1134 580 1074.6 646 c 128,-1,9
 1016.1 713 1016.1 713 869.4 713 c 2,10,-1
 577.8 713 l 1,0,-1
996.3 1493 m 2,11,12
 1204.2 1493 1204.2 1493 1300.5 1397 c 128,-1,14
 1395.9 1301 1395.9 1301 1364.4 1124 c 0,15,16
 1341 987 1341 987 1269 906 c 128,-1,18
 1197 825 1197 825 1081.8 805 c 1,19,20
 1210.5 773 1210.5 773 1267.2 672 c 128,-1,22
 1323.9 570 1323.9 570 1296.9 418 c 0,23,24
 1261.8 218 1261.8 218 1120.5 109 c 128,-1,26
 979.2 0 979.2 0 753.3 0 c 2,27,-1
 270.9 0 l 1,28,-1
 503.1 1327 l 1,29,30
 375.3 1327 375.3 1327 313.2 1280 c 0,31,32
 262.8 1242 262.8 1242 243 1128 c 2,33,-1
 234.9 1079 l 1,34,-1
 94.5 1079 l 1,35,-1
 106.2 1149 l 2,36,37
 138.6 1330 138.6 1330 238.5 1412 c 128,-1,39
 339.3 1493 339.3 1493 531.9 1493 c 2,40,-1
 996.3 1493 l 2,11,12
684.9 1327 m 1,41,-1
 605.7 877 l 1,42,-1
 874.8 877 l 2,43,44
 1008 877 1008 877 1083.6 932 c 128,-1,46
 1158.3 988 1158.3 988 1178.1 1102 c 0,47,48
 1197.9 1215 1197.9 1215 1143 1271 c 128,-1,50
 1087.2 1327 1087.2 1327 954 1327 c 2,51,-1
 684.9 1327 l 1,41,-1
EndSplineSet
EndChar
StartChar: uni0183
Encoding: 387 387 387
Width: 1170
Flags: W
TeX: 117 0 0 0
Fore
366.3 950 m 1,0,1
 436.5 1050 436.5 1050 524.7 1098 c 0,2,3
 612.9 1147 612.9 1147 723.6 1147 c 0,4,5
 907.2 1147 907.2 1147 993.6 985 c 0,6,7
 1080 823 1080 823 1033.2 559 c 0,8,9
 987.3 295 987.3 295 844.2 133 c 0,10,11
 701.1 -29 701.1 -29 517.5 -29 c 0,12,13
 406.8 -29 406.8 -29 335.7 20 c 0,14,15
 264.6 68 264.6 68 229.5 168 c 1,16,-1
 200.7 0 l 1,17,-1
 34.2002 0 l 1,18,-1
 306 1556 l 1,19,-1
 1067.4 1556 l 1,20,-1
 1038.6 1390 l 1,21,-1
 443.7 1391 l 1,22,-1
 366.3 950 l 1,0,1
861.3 559 m 0,23,24
 897.3 762 897.3 762 842.4 878 c 0,25,26
 787.5 993 787.5 993 656.1 993 c 0,27,28
 524.7 993 524.7 993 429.3 878 c 0,29,30
 333.9 762 333.9 762 297.9 559 c 0,31,32
 262.8 356 262.8 356 317.7 240 c 0,33,34
 372.6 125 372.6 125 504 125 c 0,35,36
 635.4 125 635.4 125 730.8 240 c 0,37,38
 826.2 356 826.2 356 861.3 559 c 0,23,24
EndSplineSet
EndChar
StartChar: uni0184
Encoding: 388 388 388
Width: 1264
Flags: W
TeX: 117 0 0 0
Fore
916.2 439 m 0,0,1
 940.5 578 940.5 578 882 646 c 0,2,3
 823.5 713 823.5 713 676.8 713 c 2,4,-1
 385.2 713 l 1,5,-1
 288.9 166 l 1,6,-1
 580.5 166 l 2,7,8
 727.2 166 727.2 166 809.1 234 c 0,9,10
 892.8 301 892.8 301 916.2 439 c 0,0,1
521.1 1493 m 1,11,-1
 414 879 l 1,12,-1
 714.6 879 l 2,13,14
 940.5 879 940.5 879 1044 770 c 128,-1,15
 1146.6 661 1146.6 661 1107.9 439 c 0,16,17
 1069.2 218 1069.2 218 927.9 109 c 128,-1,18
 786.6 0 786.6 0 560.7 0 c 2,19,-1
 78.2998 0 l 1,20,-1
 269.1 1092 l 1,21,-1
 88.2002 1092 l 1,22,-1
 439.2 1493 l 1,23,-1
 521.1 1493 l 1,11,-1
EndSplineSet
EndChar
StartChar: uni0185
Encoding: 389 389 389
Width: 1170
Flags: W
TeX: 117 0 0 0
Fore
397.8 950 m 1,0,1
 467.1 1050 467.1 1050 555.3 1098 c 128,-1,2
 643.5 1147 643.5 1147 754.2 1147 c 0,3,4
 937.8 1147 937.8 1147 1024.2 985 c 128,-1,5
 1110.6 823 1110.6 823 1064.7 559 c 128,-1,6
 1017.9 295 1017.9 295 874.8 133 c 128,-1,7
 731.7 -29 731.7 -29 548.1 -29 c 0,8,9
 437.4 -29 437.4 -29 366.3 20 c 128,-1,10
 295.2 68 295.2 68 261 168 c 1,11,-1
 231.3 0 l 1,12,-1
 64.7998 0 l 1,13,-1
 255.6 1092 l 1,14,-1
 88.2002 1092 l 1,15,-1
 431.1 1557 l 1,16,-1
 504 1557 l 1,17,-1
 397.8 950 l 1,0,1
892.8 559 m 128,-1,19
 927.9 762 927.9 762 873 878 c 128,-1,20
 818.1 993 818.1 993 686.7 993 c 128,-1,21
 555.3 993 555.3 993 459.9 878 c 128,-1,22
 364.5 762 364.5 762 329.4 559 c 128,-1,23
 293.4 356 293.4 356 348.3 240 c 128,-1,24
 403.2 125 403.2 125 534.6 125 c 128,-1,25
 666 125 666 125 761.4 240 c 128,-1,18
 856.8 356 856.8 356 892.8 559 c 128,-1,19
EndSplineSet
EndChar
StartChar: uni0186
Encoding: 390 390 390
Width: 1296
Flags: W
TeX: 117 0 0 0
AnchorPoint: "above" 809.512 1520 basechar 0
Fore
115.2 113 m 1,0,-1
 152.1 326 l 1,1,2
 238.5 229 238.5 229 335.25 182 c 128,-1,3
 432 135 432 135 544.5 135 c 0,4,5
 698.4 135 698.4 135 814.95 217 c 128,-1,6
 931.5 299 931.5 299 1016.1 467 c 0,7,8
 1070.1 575 1070.1 575 1098.45 695.5 c 128,-1,9
 1126.8 816 1126.8 816 1126.8 938 c 0,10,11
 1126.8 1142 1126.8 1142 1031.85 1249 c 128,-1,12
 936.9 1356 936.9 1356 756 1356 c 0,13,14
 630.9 1356 630.9 1356 515.7 1311.5 c 128,-1,15
 400.5 1267 400.5 1267 291.6 1178 c 1,16,-1
 333.9 1417 l 1,17,18
 441 1468 441 1468 550.35 1494 c 128,-1,19
 659.7 1520 659.7 1520 769.5 1520 c 0,20,21
 1027.8 1520 1027.8 1520 1173.15 1364 c 128,-1,22
 1318.5 1208 1318.5 1208 1318.5 930 c 0,23,24
 1318.5 752 1318.5 752 1263.15 580 c 128,-1,25
 1207.8 408 1207.8 408 1104.3 266 c 0,26,27
 994.5 115 994.5 115 853.65 43 c 128,-1,28
 712.8 -29 712.8 -29 525.6 -29 c 0,29,30
 410.4 -29 410.4 -29 307.35 6.5 c 128,-1,31
 204.3 42 204.3 42 115.2 113 c 1,0,-1
EndSplineSet
EndChar
StartChar: uni0187
Encoding: 391 391 391
Width: 1287
Flags: W
TeX: 117 0 0 0
AnchorPoint: "above" 862.554 1520 basechar 0
Fore
1104.3 1477 m 1,0,1
 1152.9 1672 1152.9 1672 1243.8 1770 c 0,2,3
 1358.1 1892 1358.1 1892 1562.4 1892 c 2,4,-1
 1631.7 1892 l 1,5,-1
 1602 1722 l 1,6,-1
 1545.3 1722 l 2,7,8
 1424.7 1722 1424.7 1722 1361.7 1647 c 0,9,10
 1299.6 1572 1299.6 1572 1265.4 1378 c 2,11,-1
 1227.6 1165 l 1,12,13
 1152.9 1260 1152.9 1260 1056.6 1307 c 0,14,15
 961.2 1354 961.2 1354 844.2 1354 c 0,16,17
 637.2 1354 637.2 1354 495 1227 c 2,18,19
 494.1 1226 l 1,20,21
 493.2 1225 l 1,22,23
 492.3 1225 l 1,24,25
 491.4 1224 l 1,26,27
 490.5 1223 l 1,28,29
 489.6 1222 l 1,30,31
 488.7 1221 l 1,32,33
 487.8 1220 l 1,34,35
 486 1220 l 1,36,37
 485.1 1219 l 1,38,39
 484.2 1218 l 1,40,41
 483.3 1217 l 1,42,43
 482.4 1216 l 1,44,45
 481.5 1215 l 1,46,47
 480.6 1214 l 1,48,49
 479.7 1213 l 1,50,51
 478.8 1213 l 1,52,53
 477.9 1212 l 1,54,55
 477 1211 l 1,56,57
 476.1 1210 l 1,58,59
 475.2 1209 l 1,60,61
 474.3 1208 l 1,62,63
 473.4 1207 l 1,64,65
 472.5 1206 l 1,66,67
 471.6 1205 l 1,68,69
 470.7 1204 l 1,70,71
 469.8 1204 l 1,72,73
 468.9 1203 l 1,74,75
 468 1202 l 1,76,77
 467.1 1201 l 1,78,79
 466.2 1200 l 1,80,81
 465.3 1199 l 1,82,83
 464.4 1198 l 2,84,85
 314.1 1041 314.1 1041 262.8 745 c 0,86,87
 210.6 450 210.6 450 306 294 c 0,88,89
 401.4 137 401.4 137 631.8 137 c 0,90,91
 748.8 137 748.8 137 860.4 184 c 0,92,93
 972.9 231 972.9 231 1080.9 326 c 1,94,-1
 1044 115 l 1,95,96
 936 43 936 43 823.5 7 c 0,97,98
 710.1 -29 710.1 -29 591.3 -29 c 0,99,100
 286.2 -29 286.2 -29 147.6 178 c 0,101,102
 8.09961 386 8.09961 386 71.0996 745 c 0,103,104
 134.1 1105 134.1 1105 345.6 1312 c 0,105,106
 557.1 1520 557.1 1520 862.2 1520 c 0,107,108
 982.8 1520 982.8 1520 1083.6 1484 c 0,109,110
 1094.4 1481 1094.4 1481 1104.3 1477 c 1,0,1
EndSplineSet
EndChar
StartChar: uni0188
Encoding: 392 392 392
Width: 1013
Flags: W
TeX: 117 0 0 0
Fore
806.4 1135 m 1,0,1
 845.1 1304 845.1 1304 922.5 1387 c 0,2,3
 1012.5 1483 1012.5 1483 1175.4 1483 c 2,4,-1
 1238.4 1483 l 1,5,-1
 1211.4 1327 l 1,6,-1
 1167.3 1327 l 2,7,8
 1072.8 1327 1072.8 1327 1029.6 1278 c 0,9,10
 987.3 1230 987.3 1230 960.3 1077 c 2,11,-1
 930.6 905 l 1,12,13
 867.6 948 867.6 948 801 970 c 0,14,15
 733.5 991 733.5 991 661.5 991 c 0,16,17
 500.4 991 500.4 991 391.5 878 c 0,18,19
 282.6 764 282.6 764 246.6 559 c 0,20,21
 210.6 354 210.6 354 279.9 240 c 0,22,23
 349.2 127 349.2 127 510.3 127 c 0,24,25
 582.3 127 582.3 127 657 148 c 0,26,27
 731.7 170 731.7 170 809.1 213 c 1,28,-1
 779.4 43 l 1,29,30
 703.8 7 703.8 7 626.4 -11 c 0,31,32
 549 -29 549 -29 465.3 -29 c 0,33,34
 237.6 -29 237.6 -29 131.4 130 c 0,35,36
 25.2002 289 25.2002 289 72 559 c 0,37,38
 120.6 833 120.6 833 283.5 990 c 0,39,40
 446.4 1147 446.4 1147 682.2 1147 c 0,41,42
 746.1 1147 746.1 1147 806.4 1135 c 1,0,1
EndSplineSet
EndChar
StartChar: uni018A
Encoding: 394 394 394
Width: 1509
Flags: W
TeX: 117 0 0 0
Fore
684.9 1327 m 1,0,-1
 481.5 166 l 1,1,-1
 701.1 166 l 2,2,3
 979.2 166 979.2 166 1133.1 306 c 128,-1,5
 1287 446 1287 446 1339.2 748 c 0,6,7
 1392.3 1048 1392.3 1048 1287 1188 c 128,-1,9
 1182.6 1327 1182.6 1327 904.5 1327 c 2,10,-1
 684.9 1327 l 1,0,-1
905.4 1493 m 2,11,12
 1296 1493 1296 1493 1447.2 1312 c 128,-1,14
 1598.4 1132 1598.4 1132 1530.9 748 c 0,15,16
 1463.4 362 1463.4 362 1248.3 181 c 128,-1,18
 1033.2 0 1033.2 0 644.4 0 c 2,19,-1
 270.9 0 l 1,20,-1
 503.1 1327 l 1,21,22
 375.3 1327 375.3 1327 313.2 1280 c 0,23,24
 262.8 1242 262.8 1242 243 1128 c 2,25,-1
 234.9 1079 l 1,26,-1
 94.5 1079 l 1,27,-1
 106.2 1149 l 2,28,29
 138.6 1330 138.6 1330 238.5 1412 c 128,-1,31
 339.3 1493 339.3 1493 531.9 1493 c 2,32,-1
 905.4 1493 l 2,11,12
EndSplineSet
EndChar
StartChar: uni018B
Encoding: 395 395 395
Width: 1264
Flags: W
TeX: 117 0 0 0
Fore
318.6 439 m 24,0,1
 294.3 301 294.3 301 353.7 234 c 0,2,3
 412.2 166 412.2 166 558.9 166 c 2,4,-1
 850.5 166 l 1,5,-1
 945.9 713 l 1,6,-1
 654.3 713 l 2,7,8
 507.6 713 507.6 713 425.7 646 c 0,9,10
 342.9 578 342.9 578 318.6 439 c 24,0,1
503.1 1493 m 25,11,-1
 1264.5 1493 l 1,12,-1
 1003.5 0 l 1,13,-1
 521.1 0 l 2,14,15
 295.2 0 295.2 0 191.7 109 c 0,16,17
 88.2002 218 88.2002 218 126.9 439 c 0,18,19
 165.6 661 165.6 661 307.8 770 c 0,20,21
 449.1 879 449.1 879 675 879 c 2,22,-1
 975.6 879 l 1,23,-1
 1053.9 1327 l 1,24,-1
 474.3 1327 l 1,25,-1
 503.1 1493 l 25,11,-1
EndSplineSet
EndChar
StartChar: uni018C
Encoding: 396 396 396
Width: 1170
Flags: W
TeX: 117 0 0 0
Fore
869.4 950 m 1,0,-1
 946.8 1391 l 1,1,-1
 351.9 1390 l 1,2,-1
 380.7 1556 l 1,3,-1
 1141.2 1556 l 1,4,-1
 869.4 0 l 1,5,-1
 703.8 0 l 1,6,-1
 732.6 168 l 1,7,8
 663.3 68 663.3 68 575.1 20 c 0,9,10
 486.9 -29 486.9 -29 376.2 -29 c 0,11,12
 192.6 -29 192.6 -29 106.2 133 c 0,13,14
 19.7998 295 19.7998 295 65.7002 559 c 0,15,16
 112.5 823 112.5 823 255.6 985 c 0,17,18
 398.7 1147 398.7 1147 582.3 1147 c 0,19,20
 693 1147 693 1147 764.1 1098 c 0,21,22
 835.2 1050 835.2 1050 869.4 950 c 1,0,-1
237.6 559 m 0,23,24
 202.5 356 202.5 356 257.4 240 c 0,25,26
 312.3 125 312.3 125 443.7 125 c 0,27,28
 575.1 125 575.1 125 670.5 240 c 0,29,30
 765.9 356 765.9 356 801 559 c 0,31,32
 837 762 837 762 782.1 878 c 0,33,34
 727.2 993 727.2 993 595.8 993 c 0,35,36
 464.4 993 464.4 993 369 878 c 0,37,38
 273.6 762 273.6 762 237.6 559 c 0,23,24
EndSplineSet
EndChar
StartChar: uni018D
Encoding: 397 397 397
Width: 1127
Flags: W
TeX: 117 0 0 0
Fore
128.7 -203 m 17,0,1
 207.9 -273 207.9 -273 423 -273 c 0,2,3
 650.7 -273 650.7 -273 671.4 -156 c 0,4,5
 687.6 -64 687.6 -64 458.1 -16 c 0,6,7
 278.1 21 278.1 21 191.7 133 c 0,8,9
 87.2998 268 87.2998 268 135.9 545 c 0,10,11
 182.7 810 182.7 810 333 966 c 0,12,13
 484.2 1123 484.2 1123 700.2 1123 c 0,14,15
 915.3 1123 915.3 1123 1011.6 966 c 0,16,17
 1107.9 810 1107.9 810 1059.3 535 c 0,18,19
 1024.2 331 1024.2 331 872.1 166 c 0,20,21
 812.7 102 812.7 102 738.9 66 c 1,22,23
 865.8 -13 865.8 -13 840.6 -154 c 0,24,25
 792.9 -426 792.9 -426 396 -426 c 0,26,27
 197.1 -426 197.1 -426 101.7 -356 c 1,28,-1
 128.7 -203 l 17,0,1
623.7 116 m 1,29,30
 689.4 145 689.4 145 752.4 218 c 0,31,32
 849.6 331 849.6 331 884.7 535 c 0,33,34
 920.7 738 920.7 738 864 852 c 0,35,36
 806.4 967 806.4 967 672.3 967 c 0,37,38
 540 967 540 967 442.8 851 c 0,39,40
 344.7 735 344.7 735 311.4 545 c 0,41,42
 277.2 346 277.2 346 342 250 c 0,43,44
 411.3 147 411.3 147 522.9 136 c 0,45,46
 579.6 130 579.6 130 623.7 116 c 1,29,30
EndSplineSet
EndChar
StartChar: uni018E
Encoding: 398 398 398
Width: 1164
Flags: W
TeX: 117 0 0 0
AnchorPoint: "above" 805.912 1520 basechar 0
Fore
1244.7 1493 m 1,0,-1
 983.7 0 l 1,1,-1
 117.9 0 l 1,2,-1
 147.6 170 l 1,3,-1
 831.6 170 l 1,4,-1
 926.1 711 l 1,5,-1
 286.2 711 l 1,6,-1
 315.9 881 l 1,7,-1
 955.8 881 l 1,8,-1
 1033.2 1323 l 1,9,-1
 365.4 1323 l 1,10,-1
 395.1 1493 l 1,11,-1
 1244.7 1493 l 1,0,-1
EndSplineSet
EndChar
StartChar: uni018F
Encoding: 399 399 399
Width: 1450
Flags: W
TeX: 117 0 0 0
AnchorPoint: "above" 1580.55 1912 basechar 0
Fore
1172.7 780 m 9,0,-1
 94.5 780 l 17,1,2
 24.2998 380 24.2998 380 216 134 c 0,3,4
 342 -29 342 -29 604.8 -29 c 0,5,6
 774.9 -29 774.9 -29 914.4 47 c 0,7,8
 1053 123 1053 123 1168.2 279 c 0,9,10
 1269 414 1269 414 1323 580 c 24,11,12
 1395.9 803 1395.9 803 1381.5 1000 c 0,13,14
 1368 1209 1368 1209 1263.6 1348 c 0,15,16
 1197.9 1435 1197.9 1435 1098 1478 c 0,17,18
 999 1520 999 1520 859.5 1520 c 0,19,20
 733.5 1520 733.5 1520 605.7 1484 c 0,21,22
 477 1449 477 1449 347.4 1378 c 1,23,-1
 308.7 1163 l 1,24,25
 423 1257 423 1257 549 1306 c 0,26,27
 675 1356 675 1356 798.3 1356 c 0,28,29
 941.4 1356 941.4 1356 1029.6 1296 c 0,30,31
 1116.9 1235 1116.9 1235 1158.3 1108 c 0,32,33
 1204.2 952 1204.2 952 1172.7 780 c 9,0,-1
1139.4 614 m 17,34,35
 1118.7 553 1118.7 553 1071 459 c 0,36,37
 989.1 298 989.1 298 873 216 c 0,38,39
 757.8 135 757.8 135 610.2 135 c 0,40,41
 446.4 135 446.4 135 356.4 248 c 0,42,43
 257.4 375 257.4 375 268.2 614 c 9,44,-1
 1139.4 614 l 17,34,35
EndSplineSet
EndChar
StartChar: uni0190
Encoding: 400 400 400
Width: 1132
Flags: W
TeX: 117 0 0 0
AnchorPoint: "above" 903.114 1520 basechar 0
Fore
565.2 805 m 1,0,1
 453.6 838 453.6 838 405 924 c 0,2,3
 355.5 1009 355.5 1009 377.1 1133 c 0,4,5
 408.6 1311 408.6 1311 547.2 1416 c 0,6,7
 685.8 1520 685.8 1520 892.8 1520 c 0,8,9
 972.9 1520 972.9 1520 1061.1 1504 c 0,10,11
 1148.4 1488 1148.4 1488 1246.5 1456 c 1,12,-1
 1215 1276 l 1,13,14
 1118.7 1314 1118.7 1314 1036.8 1332 c 0,15,16
 954 1350 954 1350 879.3 1350 c 0,17,18
 742.5 1350 742.5 1350 658.8 1288 c 0,19,20
 575.1 1227 575.1 1227 554.4 1112 c 0,21,22
 534.6 1000 534.6 1000 595.8 940 c 0,23,24
 656.1 881 656.1 881 790.2 881 c 2,25,-1
 954 881 l 1,26,-1
 925.2 715 l 1,27,-1
 768.6 715 l 2,28,29
 620.1 715 620.1 715 523.8 640 c 0,30,31
 427.5 566 427.5 566 404.1 434 c 0,32,33
 379.8 291 379.8 291 455.4 216 c 0,34,35
 531.9 141 531.9 141 702.9 141 c 0,36,37
 801 141 801 141 895.5 166 c 128,-1,38
 990 191 990 191 1074.6 240 c 1,39,-1
 1040.4 45 l 1,40,41
 938.7 8 938.7 8 845.1 -10 c 0,42,43
 752.4 -29 752.4 -29 667.8 -29 c 0,44,45
 415.8 -29 415.8 -29 300.6 92 c 0,46,47
 184.5 213 184.5 213 223.2 434 c 0,48,49
 248.4 578 248.4 578 339.3 676 c 0,50,51
 429.3 774 429.3 774 565.2 805 c 1,0,1
EndSplineSet
EndChar
StartChar: uni0191
Encoding: 401 401 401
Width: 1060
Flags: W
TeX: 117 0 0 0
AnchorPoint: "above" 774.181 1520 basechar 0
Fore
347.4 1493 m 1,0,-1
 1119.6 1493 l 1,1,-1
 1089.9 1323 l 1,2,-1
 499.5 1323 l 1,3,-1
 422.1 883 l 1,4,-1
 954.9 883 l 1,5,-1
 925.2 713 l 1,6,-1
 392.4 713 l 1,7,-1
 286.2 104 l 2,8,9
 238.5 -166 238.5 -166 125.1 -288 c 0,10,11
 11.7002 -410 11.7002 -410 -192.6 -410 c 2,12,-1
 -261.9 -410 l 1,13,-1
 -232.2 -240 l 1,14,-1
 -175.5 -240 l 2,15,16
 -54.9004 -240 -54.9004 -240 8.09961 -165 c 0,17,18
 70.2002 -90 70.2002 -90 104.4 104 c 2,19,-1
 347.4 1493 l 1,0,-1
EndSplineSet
EndChar
StartChar: florin
Encoding: 402 402 402
Width: 648
Flags: W
AnchorPoint: "below" 105.833 -430 basechar 0
AnchorPoint: "above" 450.569 1520 basechar 0
Fore
857.7 1556 m 1,0,-1
 830.7 1403 l 1,1,-1
 672.3 1403 l 2,2,3
 583.2 1403 583.2 1403 541.8 1363 c 0,4,5
 499.5 1323 499.5 1323 481.5 1219 c 2,6,-1
 464.4 1120 l 1,7,-1
 737.1 1120 l 1,8,-1
 711.9 977 l 1,9,-1
 439.2 977 l 1,10,-1
 256.5 -68 l 2,11,12
 224.1 -255 224.1 -255 130.5 -340 c 0,13,14
 36.9004 -426 36.9004 -426 -133.2 -426 c 2,15,-1
 -289.8 -426 l 1,16,-1
 -262.8 -273 l 1,17,-1
 -104.4 -273 l 2,18,19
 -15.2998 -273 -15.2998 -273 26.0996 -233 c 0,20,21
 68.4004 -193 68.4004 -193 86.4004 -89 c 2,22,-1
 272.7 977 l 1,23,-1
 114.3 977 l 1,24,-1
 139.5 1120 l 1,25,-1
 297.9 1120 l 1,26,-1
 311.4 1198 l 2,27,28
 343.8 1385 343.8 1385 437.4 1470 c 0,29,30
 531 1556 531 1556 701.1 1556 c 2,31,-1
 857.7 1556 l 1,0,-1
EndSplineSet
EndChar
StartChar: uni0193
Encoding: 403 403 403
Width: 1428
Flags: W
TeX: 117 0 0 0
AnchorPoint: "above" 876.954 1520 basechar 0
Fore
971.1 213 m 1,0,-1
 1041.3 614 l 1,1,-1
 744.3 614 l 1,2,-1
 774 780 l 1,3,-1
 1251 780 l 1,4,-1
 1138.5 139 l 1,5,6
 1018.8 56 1018.8 56 884.7 14 c 0,7,8
 749.7 -29 749.7 -29 605.7 -29 c 0,9,10
 290.7 -29 290.7 -29 149.4 176 c 0,11,12
 7.2002 380 7.2002 380 71.0996 745 c 0,13,14
 135 1111 135 1111 348.3 1316 c 0,15,16
 561.6 1520 561.6 1520 876.6 1520 c 0,17,18
 1008 1520 1008 1520 1120.5 1484 c 0,19,20
 1139.4 1478 1139.4 1478 1157.4 1471 c 1,21,22
 1206 1670 1206 1670 1298.7 1770 c 0,23,24
 1413 1892 1413 1892 1617.3 1892 c 2,25,-1
 1686.6 1892 l 1,26,-1
 1656.9 1722 l 1,27,-1
 1600.2 1722 l 2,28,29
 1479.6 1722 1479.6 1722 1416.6 1647 c 0,30,31
 1353.6 1572 1353.6 1572 1320.3 1378 c 2,32,-1
 1282.5 1163 l 1,33,34
 1197.9 1258 1197.9 1258 1093.5 1306 c 0,35,36
 988.2 1354 988.2 1354 863.1 1354 c 0,37,38
 616.5 1354 616.5 1354 466.2 1201 c 0,39,40
 315.9 1048 315.9 1048 262.8 745 c 0,41,42
 209.7 443 209.7 443 306.9 290 c 0,43,44
 404.1 137 404.1 137 650.7 137 c 0,45,46
 747 137 747 137 825.3 156 c 0,47,48
 904.5 174 904.5 174 971.1 213 c 1,0,-1
EndSplineSet
EndChar
StartChar: uni0194
Encoding: 404 404 404
Width: 1265
Flags: W
TeX: 0 0 0 0
AnchorPoint: "above" 805.631 1520 basechar 0
Fore
494.1 -259 m 24,0,1
 632.7 -259 632.7 -259 632.7 -93 c 0,2,3
 632.7 -23 632.7 -23 575.1 202 c 1,4,-1
 452.7 -11 l 2,5,6
 397.8 -109 397.8 -109 397.8 -182 c 0,7,8
 397.8 -214 397.8 -214 412.2 -227 c 0,9,10
 445.5 -259 445.5 -259 494.1 -259 c 24,0,1
715.5 420 m 1,11,12
 816.3 70 816.3 70 816.3 -85 c 0,13,14
 816.3 -115 816.3 -115 812.7 -139 c 0,15,16
 788.4 -278 788.4 -278 709.2 -343 c 0,17,18
 603.9 -430 603.9 -430 464.4 -430 c 24,19,20
 325.8 -430 325.8 -430 250.2 -343 c 0,21,22
 210.6 -298 210.6 -298 210.6 -217 c 0,23,24
 210.6 -181 210.6 -181 220.5 -127 c 0,25,26
 229.5 -73 229.5 -73 306.9 73 c 0,27,28
 383.4 220 383.4 220 511.2 420 c 1,29,-1
 175.5 1493 l 1,30,-1
 375.3 1493 l 1,31,-1
 649.8 631 l 1,32,-1
 1226.7 1493 l 1,33,-1
 1426.5 1493 l 1,34,-1
 715.5 420 l 1,11,12
EndSplineSet
EndChar
StartChar: uni0195
Encoding: 405 405 405
Width: 1774
Flags: W
TeX: 117 0 0 0
Fore
993.6 676 m 2,0,1
 1034.1 908 1034.1 908 966.6 1028 c 0,2,3
 898.2 1147 898.2 1147 724.5 1147 c 0,4,5
 619.2 1147 619.2 1147 530.1 1097 c 0,6,7
 440.1 1047 440.1 1047 363.6 946 c 1,8,-1
 469.8 1556 l 1,9,-1
 303.3 1556 l 1,10,-1
 31.5 0 l 1,11,-1
 198 0 l 1,12,-1
 308.7 633 l 2,13,14
 337.5 797 337.5 797 431.1 892 c 0,15,16
 525.6 987 525.6 987 659.7 987 c 0,17,18
 771.3 987 771.3 987 812.7 908 c 0,19,20
 855 829 855 829 828 673 c 2,21,-1
 781.2 406 l 2,22,23
 743.4 192 743.4 192 799.2 96 c 0,24,25
 856.8 0 856.8 0 1019.7 0 c 2,26,-1
 1082.7 0 l 2,27,28
 1285.2 0 1285.2 0 1438.2 146 c 0,29,30
 1592.1 292 1592.1 292 1632.6 527 c 0,31,32
 1656.9 663 1656.9 663 1627.2 773 c 0,33,34
 1596.6 886 1596.6 886 1511.1 986 c 1,35,-1
 1221.3 986 l 1,36,37
 1260.9 974 1260.9 974 1322.1 930 c 0,38,39
 1382.4 886 1382.4 886 1417.5 816 c 0,40,41
 1429.2 794 1429.2 794 1445.4 756 c 0,42,43
 1486.8 656 1486.8 656 1461.6 510 c 0,44,45
 1433.7 352 1433.7 352 1337.4 254 c 0,46,47
 1241.1 157 1241.1 157 1111.5 157 c 2,48,-1
 1065.6 156 l 2,49,50
 972.9 154 972.9 154 945 204 c 0,51,52
 919.8 253 919.8 253 946.8 406 c 2,53,-1
 993.6 676 l 2,0,1
EndSplineSet
EndChar
StartChar: uni0196
Encoding: 406 406 406
Width: 651
Flags: W
TeX: 117 0 0 0
AnchorPoint: "above" 408.019 1520 basechar 0
Fore
140.4 514 m 2,0,-1
 311.4 1493 l 1,1,-1
 493.2 1493 l 1,2,-1
 322.2 514 l 2,3,4
 288 320 288 320 324.9 245 c 0,5,6
 360.9 170 360.9 170 481.5 170 c 2,7,-1
 538.2 170 l 1,8,-1
 508.5 0 l 1,9,-1
 439.2 0 l 2,10,11
 234.9 0 234.9 0 163.8 122 c 0,12,13
 92.7002 244 92.7002 244 140.4 514 c 2,0,-1
EndSplineSet
EndChar
StartChar: uni0197
Encoding: 407 407 407
Width: 543
Flags: W
TeX: 117 0 0 0
AnchorPoint: "above" 408.019 1520 basechar 0
Fore
311.4 1493 m 1,0,-1
 493.2 1493 l 1,1,-1
 379.8 844 l 1,2,-1
 551.7 844 l 1,3,-1
 526.5 700 l 1,4,-1
 354.6 700 l 1,5,-1
 232.2 0 l 1,6,-1
 50.4004 0 l 1,7,-1
 172.8 700 l 1,8,-1
 0.900391 700 l 1,9,-1
 26.0996 844 l 1,10,-1
 198 844 l 1,11,-1
 311.4 1493 l 1,0,-1
EndSplineSet
EndChar
StartChar: uni0198
Encoding: 408 408 408
Width: 1271
Flags: W
TeX: 117 0 0 0
AnchorPoint: "above" 737.584 1520 basechar 0
Fore
1086.3 1278 m 2,0,1
 1152 1337 1152 1337 1197.9 1304 c 0,2,-1
 1328.4 1163 l 1,3,-1
 1442.7 1279 l 1,4,-1
 1260.9 1455 l 2,5,6
 1187.1 1527 1187.1 1527 1111.5 1488 c 0,7,8
 1059.3 1461 1059.3 1461 983.7 1394 c 2,9,-1
 382.5 862 l 1,10,-1
 492.3 1493 l 1,11,-1
 310.5 1493 l 1,12,-1
 49.5 0 l 1,13,-1
 231.3 0 l 1,14,-1
 357.3 719 l 1,15,-1
 876.6 0 l 1,16,-1
 1116 0 l 1,17,-1
 540.9 797 l 1,18,-1
 1086.3 1278 l 2,0,1
EndSplineSet
EndChar
StartChar: uni0199
Encoding: 409 409 409
Width: 1067
Flags: W
TeX: 117 0 0 0
AnchorPoint: "above" 407.224 1673 basechar 0
Fore
240.3 1198 m 2,0,1
 272.7 1384 272.7 1384 367.2 1470 c 0,2,3
 460.8 1556 460.8 1556 630.9 1556 c 2,4,-1
 787.5 1556 l 1,5,-1
 760.5 1403 l 1,6,-1
 602.1 1403 l 2,7,8
 513 1403 513 1403 471.6 1363 c 0,9,10
 430.2 1323 430.2 1323 411.3 1219 c 2,11,-1
 309.6 637 l 1,12,-1
 887.4 1120 l 1,13,-1
 1098.9 1120 l 1,14,-1
 473.4 596 l 1,15,-1
 926.1 0 l 1,16,-1
 710.1 0 l 1,17,-1
 293.4 547 l 1,18,-1
 198 0 l 1,19,-1
 31.5 0 l 1,20,-1
 240.3 1198 l 2,0,1
EndSplineSet
EndChar
StartChar: uni019A
Encoding: 410 410 410
Width: 512
Flags: W
TeX: 117 0 0 0
AnchorPoint: "above" 380.007 1520 basechar 0
Fore
309.6 1556 m 1,0,-1
 475.2 1556 l 1,1,-1
 351 844 l 1,2,-1
 510.3 844 l 1,3,-1
 485.1 700 l 1,4,-1
 325.8 700 l 1,5,-1
 203.4 0 l 1,6,-1
 37.7998 0 l 1,7,-1
 160.2 700 l 1,8,-1
 -4.5 700 l 1,9,-1
 20.7002 844 l 1,10,-1
 185.4 844 l 1,11,-1
 309.6 1556 l 1,0,-1
EndSplineSet
EndChar
StartChar: uni019B
Encoding: 411 411 411
Width: 1090
Flags: W
TeX: 117 0 0 0
AnchorPoint: "above" 707.607 1520 basechar 0
Fore
-81 0 m 1,0,-1
 549 1074 l 1,1,-1
 517.5 1262 l 1,2,-1
 229.5 1161 l 1,3,-1
 217.8 1260 l 1,4,-1
 501.3 1359 l 1,5,-1
 468.9 1556 l 1,6,-1
 648.9 1556 l 1,7,-1
 671.4 1418 l 1,8,-1
 972.9 1522 l 1,9,-1
 985.5 1425 l 1,10,-1
 686.7 1321 l 1,11,-1
 900 0 l 1,12,-1
 724.5 0 l 1,13,-1
 586.8 828 l 1,14,-1
 94.5 0 l 1,15,-1
 -81 0 l 1,0,-1
EndSplineSet
EndChar
StartChar: uni019C
Encoding: 412 412 412
Width: 1795
Flags: W
TeX: 117 0 0 0
Fore
749.7 213 m 1,0,1
 666 89 666 89 569.7 30 c 128,-1,2
 472.5 -29 472.5 -29 355.5 -29 c 0,3,4
 198 -29 198 -29 134.1 94 c 128,-1,5
 70.2002 216 70.2002 216 109.8 442 c 2,6,-1
 293.4 1493 l 1,7,-1
 476.1 1493 l 1,8,-1
 294.3 452 l 2,9,10
 261 266 261 266 287.1 213 c 128,-1,11
 324.9 135 324.9 135 430.2 135 c 0,12,13
 558.9 135 558.9 135 649.8 230 c 128,-1,14
 741.6 325 741.6 325 770.4 489 c 2,15,-1
 945.9 1493 l 1,16,-1
 1128.6 1493 l 1,17,-1
 946.8 452 l 2,18,19
 918 290 918 290 955.8 212 c 128,-1,20
 993.6 135 993.6 135 1100.7 135 c 0,21,22
 1211.4 135 1211.4 135 1303.2 230 c 128,-1,23
 1394.1 326 1394.1 326 1422.9 489 c 2,24,-1
 1598.4 1493 l 1,25,-1
 1781.1 1493 l 1,26,-1
 1519.2 -2 l 1,27,-1
 1336.5 -2 l 1,28,-1
 1367.1 172 l 1,29,30
 1292.4 69 1292.4 69 1205.1 20 c 128,-1,31
 1116.9 -29 1116.9 -29 1008 -29 c 0,32,33
 898.2 -29 898.2 -29 832.5 33 c 128,-1,34
 765.9 95 765.9 95 749.7 213 c 1,0,1
EndSplineSet
EndChar
StartChar: uni019D
Encoding: 413 413 413
Width: 1378
Flags: W
TeX: 117 0 0 0
AnchorPoint: "above" 850.031 1506 basechar 0
Fore
347.4 1493 m 1,0,-1
 592.2 1493 l 1,1,-1
 969.3 244 l 1,2,-1
 1188 1493 l 1,3,-1
 1364.4 1493 l 1,4,-1
 1103.4 0 l 1,5,-1
 858.6 0 l 1,6,-1
 481.5 1249 l 1,7,-1
 280.8 104 l 2,8,9
 233.1 -170 233.1 -170 125.1 -286 c 0,10,11
 9 -410 9 -410 -192.6 -410 c 2,12,-1
 -261.9 -410 l 1,13,-1
 -232.2 -240 l 1,14,-1
 -175.5 -240 l 2,15,16
 -54.9004 -240 -54.9004 -240 8.09961 -165 c 0,17,18
 70.2002 -90 70.2002 -90 104.4 104 c 2,19,-1
 347.4 1493 l 1,0,-1
EndSplineSet
EndChar
StartChar: uni019F
Encoding: 415 415 415
Width: 1450
Flags: W
TeX: 117 0 0 0
Fore
862.2 1520 m 0,0,1
 1144.8 1520 1144.8 1520 1277.1 1310 c 0,2,3
 1409.4 1099 1409.4 1099 1347.3 745 c 0,4,5
 1285.2 392 1285.2 392 1079.1 182 c 0,6,7
 873 -29 873 -29 590.4 -29 c 0,8,9
 306.9 -29 306.9 -29 174.6 181 c 0,10,11
 41.4004 391 41.4004 391 103.5 745 c 0,12,13
 165.6 1099 165.6 1099 371.7 1310 c 0,14,15
 578.7 1520 578.7 1520 862.2 1520 c 0,0,1
833.4 1356 m 0,16,17
 635.4 1356 635.4 1356 489.6 1192 c 0,18,19
 353.7 1038 353.7 1038 301.5 780 c 1,20,-1
 1161 780 l 1,21,22
 1199.7 1038 1199.7 1038 1117.8 1192 c 0,23,24
 1031.4 1356 1031.4 1356 833.4 1356 c 0,16,17
279 614 m 1,25,26
 267.3 423 267.3 423 333.9 299 c 0,27,28
 421.2 135 421.2 135 619.2 135 c 0,29,30
 817.2 135 817.2 135 962.1 299 c 0,31,32
 1071 423 1071 423 1125.9 614 c 1,33,-1
 279 614 l 1,25,26
EndSplineSet
EndChar
StartChar: uni01A2
Encoding: 418 418 418
Width: 1729
Flags: W
TeX: 117 0 0 0
Fore
833.4 1356 m 0,0,1
 635.4 1356 635.4 1356 489.6 1192 c 128,-1,3
 344.7 1028 344.7 1028 295.2 745 c 0,4,5
 245.7 463 245.7 463 333.9 299 c 128,-1,7
 421.2 135 421.2 135 619.2 135 c 0,8,9
 776.7 135 776.7 135 920.7 299 c 1,10,-1
 1077.3 1192 l 1,11,12
 981.9 1356 981.9 1356 833.4 1356 c 0,0,1
1256.4 0 m 1,16,-1
 1427.4 979 l 2,17,18
 1461.6 1173 1461.6 1173 1424.7 1248 c 128,-1,20
 1388.7 1323 1388.7 1323 1278.9 1323 c 1,21,-1
 1079.1 182 l 1,22,23
 873 -29 873 -29 590.4 -29 c 0,29,30
 306.9 -29 306.9 -29 174.6 181 c 128,-1,32
 41.4004 391 41.4004 391 103.5 745 c 128,-1,34
 165.6 1099 165.6 1099 371.7 1310 c 128,-1,36
 578.7 1520 578.7 1520 862.2 1520 c 0,37,38
 963 1520 963 1520 1044.9 1493 c 2,39,-1
 1310.4 1493 l 2,40,41
 1514.7 1493 1514.7 1493 1585.8 1371 c 128,-1,43
 1656 1249 1656 1249 1609.2 979 c 2,44,-1
 1438.2 0 l 1,45,-1
 1256.4 0 l 1,16,-1
EndSplineSet
EndChar
StartChar: uni01A3
Encoding: 419 419 419
Width: 1358
Flags: W
TeX: 117 0 0 0
Fore
675 991 m 0,0,1
 542.7 993 542.7 993 443.7 876 c 0,2,3
 346.5 760 346.5 760 311.4 559 c 128,-1,5
 276.3 358 276.3 358 333 242 c 128,-1,7
 389.7 127 389.7 127 523.8 127 c 128,-1,9
 657.9 127 657.9 127 712.8 216 c 1,10,-1
 831.6 896 l 1,11,12
 809.1 991 809.1 991 675 991 c 0,0,1
928.8 -426 m 1,16,-1
 1128.6 714 l 2,17,18
 1154.7 867 1154.7 867 1129.5 916 c 128,-1,20
 1103.4 964 1103.4 964 1008.9 964 c 1,22,23
 863.1 128 l 1,24,25
 711.9 -29 711.9 -29 495.9 -29 c 0,28,29
 279 -29 279 -29 183.6 128 c 128,-1,31
 88.2002 284 88.2002 284 136.8 559 c 0,32,33
 184.5 835 184.5 835 334.8 991 c 128,-1,35
 485.1 1147 485.1 1147 702 1147 c 0,36,37
 792 1147 792 1147 860.4 1120 c 1,38,-1
 1055.7 1120 l 2,39,40
 1218.6 1120 1218.6 1120 1274.4 1024 c 128,-1,42
 1331.1 928 1331.1 928 1294.2 714 c 2,43,-1
 1094.4 -426 l 1,44,-1
 928.8 -426 l 1,16,-1
EndSplineSet
EndChar
StartChar: uni01A4
Encoding: 420 420 420
Width: 1201
Flags: W
TeX: 117 0 0 0
AnchorPoint: "above" 958.914 1520 basechar 0
Fore
684.9 1327 m 1,0,-1
 586.8 766 l 1,1,-1
 815.4 766 l 2,2,3
 942.3 766 942.3 766 1024.2 839 c 128,-1,4
 1106.1 912 1106.1 912 1130.4 1047 c 0,5,6
 1153.8 1181 1153.8 1181 1097.1 1254 c 128,-1,7
 1040.4 1327 1040.4 1327 913.5 1327 c 2,8,-1
 684.9 1327 l 1,0,-1
942.3 1493 m 2,9,10
 1168.2 1493 1168.2 1493 1264.5 1380 c 0,11,12
 1359.9 1266 1359.9 1266 1322.1 1047 c 0,13,14
 1283.4 826 1283.4 826 1147.5 713 c 0,15,16
 1012.5 600 1012.5 600 786.6 600 c 2,17,-1
 558 600 l 1,18,-1
 452.7 0 l 1,19,-1
 270.9 0 l 1,20,-1
 503.1 1327 l 1,21,22
 387.9 1327 387.9 1327 312.3 1271 c 0,23,24
 261.9 1233 261.9 1233 243 1128 c 2,25,-1
 234.9 1079 l 1,26,-1
 94.5 1079 l 1,27,-1
 106.2 1149 l 2,28,29
 138.6 1330 138.6 1330 238.5 1412 c 0,30,31
 339.3 1493 339.3 1493 531.9 1493 c 2,32,-1
 942.3 1493 l 2,9,10
EndSplineSet
EndChar
StartChar: uni01A5
Encoding: 421 421 421
Width: 1170
Flags: W
TeX: 117 0 0 0
Fore
896.4 559 m 0,0,1
 931.5 762 931.5 762 876.6 878 c 0,2,3
 821.7 993 821.7 993 690.3 993 c 0,4,5
 558.9 993 558.9 993 463.5 878 c 0,6,7
 368.1 762 368.1 762 333 559 c 0,8,9
 297 356 297 356 351.9 240 c 0,10,11
 406.8 125 406.8 125 538.2 125 c 0,12,13
 669.6 125 669.6 125 765 240 c 0,14,15
 860.4 356 860.4 356 896.4 559 c 0,0,1
448.2 1219 m 1,16,17
 401.4 950 l 1,18,19
 470.7 1050 470.7 1050 558.9 1098 c 0,20,21
 647.1 1147 647.1 1147 757.8 1147 c 0,22,23
 941.4 1147 941.4 1147 1027.8 985 c 0,24,25
 1114.2 823 1114.2 823 1068.3 559 c 0,26,27
 1022.4 295 1022.4 295 879.3 133 c 0,28,29
 736.2 -29 736.2 -29 552.6 -29 c 0,30,31
 441.9 -29 441.9 -29 369.9 20 c 0,32,33
 298.8 68 298.8 68 264.6 168 c 1,34,-1
 160.2 -426 l 1,35,-1
 -6.2998 -426 l 1,36,-1
 278.1 1198 l 2,37,38
 310.5 1385 310.5 1385 404.1 1470 c 0,39,40
 497.7 1556 497.7 1556 667.8 1556 c 2,41,-1
 824.4 1556 l 1,42,-1
 797.4 1403 l 1,43,-1
 639 1403 l 2,44,45
 549.9 1403 549.9 1403 508.5 1363 c 0,46,47
 466.2 1323 466.2 1323 448.2 1219 c 1,16,17
EndSplineSet
EndChar
StartChar: uni01A6
Encoding: 422 422 422
Width: 1115
Flags: W
TeX: 117 0 0 0
Fore
349.2 1493 m 1,0,-1
 531 1493 l 1,1,-1
 484.2 1229 l 1,2,-1
 712.8 1229 l 2,3,4
 938.7 1229 938.7 1229 1035 1116 c 0,5,6
 1130.4 1004 1130.4 1004 1092.6 784 c 0,7,8
 1053.9 564 1053.9 564 918 451 c 0,9,10
 811.8 362 811.8 362 648 343 c 1,11,12
 653.4 323 653.4 323 657.9 300 c 2,13,-1
 722.7 -66 l 2,14,15
 747.9 -202 747.9 -202 776.7 -236 c 0,16,17
 808.2 -272 808.2 -272 876.6 -272 c 1,18,-1
 929.7 -272 l 1,0,0
 902.7 -426 l 1,1,-1
 814.5 -426 l 2,2,3
 701.1 -426 701.1 -426 647.1 -365 c 0,4,5
 591.3 -302 591.3 -302 556.2 -104 c 2,6,-1
 486.9 285 l 2,7,8
 477 338 477 338 435.6 338 c 2,9,-1
 328.5 338 l 1,10,-1
 269.1 0 l 1,11,-1
 87.2998 0 l 1,12,-1
 349.2 1493 l 1,0,-1
407.7 504 m 1,13,-1
 585.9 504 l 2,14,15
 712.8 504 712.8 504 794.7 577 c 0,16,17
 877.5 650 877.5 650 900.9 784 c 0,18,19
 924.3 918 924.3 918 867.6 990 c 0,20,21
 811.8 1063 811.8 1063 684 1063 c 2,22,-1
 455.4 1063 l 1,23,-1
 357.3 504 l 1,24,-1
 407.7 504 l 1,13,-1
EndSplineSet
EndChar
StartChar: uni01A7
Encoding: 423 423 423
Width: 1170
Flags: W
TeX: 117 0 0 0
AnchorPoint: "above" 728.593 1520 basechar 0
Fore
265.5 1444 m 1,0,-1
 230.4 1247 l 1,1,2
 343.8 1302 343.8 1302 440.1 1329 c 0,3,4
 537.3 1356 537.3 1356 622.8 1356 c 0,5,6
 771.3 1356 771.3 1356 840.6 1292 c 128,-1,7
 909.9 1228 909.9 1228 889.2 1110 c 0,8,9
 872.1 1011 872.1 1011 809.1 960 c 0,10,11
 747 910 747 910 592.2 879 c 1,12,-1
 477.9 854 l 1,13,14
 267.3 811 267.3 811 151.2 702 c 0,15,16
 36 594 36 594 3.59961 412 c 0,17,18
 -34.2002 195 -34.2002 195 77.4004 83 c 0,19,20
 188.1 -29 188.1 -29 441 -29 c 0,21,22
 536.4 -29 536.4 -29 648.9 -5 c 0,23,24
 760.5 19 760.5 19 883.8 66 c 1,25,-1
 919.8 274 l 1,26,27
 797.4 205 797.4 205 684.9 170 c 128,-1,28
 572.4 135 572.4 135 469.8 135 c 0,29,30
 314.1 135 314.1 135 242.1 203 c 0,31,32
 169.2 271 169.2 271 190.8 397 c 0,33,34
 210.6 507 210.6 507 281.7 569 c 0,35,36
 353.7 631 353.7 631 497.7 662 c 2,37,-1
 612 686 l 2,38,39
 823.5 731 823.5 731 931.5 827 c 0,40,41
 1038.6 923 1038.6 923 1069.2 1094 c 0,42,43
 1103.4 1292 1103.4 1292 998.1 1406 c 128,-1,44
 892.8 1520 892.8 1520 672.3 1520 c 0,45,46
 577.8 1520 577.8 1520 476.1 1501 c 128,-1,47
 374.4 1482 374.4 1482 265.5 1444 c 1,0,-1
EndSplineSet
EndChar
StartChar: uni01A8
Encoding: 424 424 424
Width: 960
Flags: W
TeX: 117 0 0 0
AnchorPoint: "above" 598.767 1147 basechar 0
Fore
210.6 1087 m 1,0,-1
 180 913 l 1,1,2
 257.4 953 257.4 953 335.7 973 c 0,3,4
 414.9 993 414.9 993 495.9 993 c 0,5,6
 619.2 993 619.2 993 674.1 951 c 0,7,8
 728.1 909 728.1 909 713.7 825 c 0,9,10
 702 761 702 761 651.6 724 c 0,11,12
 601.2 688 601.2 688 462.6 655 c 2,13,-1
 403.2 641 l 2,14,15
 219.6 599 219.6 599 131.4 522 c 0,16,17
 44.0996 446 44.0996 446 19.7998 309 c 0,18,19
 -7.2002 153 -7.2002 153 88.2002 62 c 128,-1,20
 183.6 -29 183.6 -29 378 -29 c 0,21,22
 459 -29 459 -29 549.9 -12 c 0,23,24
 640.8 6 640.8 6 743.4 41 c 1,25,-1
 776.7 231 l 1,26,27
 675.9 178 675.9 178 582.3 152 c 0,28,29
 488.7 125 488.7 125 401.4 125 c 0,30,31
 284.4 125 284.4 125 228.6 170 c 0,32,33
 173.7 214 173.7 214 188.1 295 c 0,34,35
 200.7 370 200.7 370 253.8 410 c 0,36,37
 306 450 306 450 466.2 487 c 2,38,-1
 526.5 502 l 1,39,40
 686.7 538 686.7 538 767.7 612 c 0,41,42
 849.6 687 849.6 687 872.1 817 c 0,43,44
 900 975 900 975 814.5 1061 c 0,45,46
 728.1 1147 728.1 1147 542.7 1147 c 0,47,48
 450.9 1147 450.9 1147 367.2 1132 c 128,-1,49
 283.5 1117 283.5 1117 210.6 1087 c 1,0,-1
EndSplineSet
EndChar
StartChar: uni01AA
Encoding: 426 426 426
Width: 619
Flags: W
TeX: 117 0 0 0
AnchorPoint: "above" 424.268 1560 basechar 0
AnchorPoint: "below" 83.1309 -390 basechar 0
Fore
288 1284 m 1,0,1
 288.9 1329 288.9 1329 277.2 1352 c 1,2,3
 255.6 1400 255.6 1400 156.6 1400 c 0,4,5
 45 1400 45 1400 31.5 1335 c 0,6,7
 19.7998 1284 19.7998 1284 126.9 1284 c 2,8,-1
 288 1284 l 1,0,1
438.3 1130 m 1,9,-1
 223.2 -89 l 1,10,11
 205.2 -192 205.2 -192 233.1 -233 c 0,12,13
 259.2 -273 259.2 -273 349.2 -273 c 2,14,-1
 507.6 -273 l 1,15,-1
 480.6 -426 l 1,16,-1
 324 -426 l 2,17,18
 149.4 -426 149.4 -426 90.9004 -340 c 0,19,20
 28.7998 -248 28.7998 -248 60.2998 -68 c 2,21,-1
 270 1130 l 1,22,-1
 99 1130 l 2,23,24
 -144 1130 -144 1130 -107.1 1340 c 0,25,26
 -69.2998 1556 -69.2998 1556 203.4 1556 c 0,27,28
 365.4 1556 365.4 1556 423 1460 c 0,29,30
 459.9 1396 459.9 1396 456.3 1285 c 1,31,-1
 628.2 1285 l 1,32,-1
 601.2 1130 l 1,33,-1
 438.3 1130 l 1,9,-1
EndSplineSet
EndChar
StartChar: uni01AB
Encoding: 427 427 427
Width: 722
Flags: W
TeX: 117 0 0 0
AnchorPoint: "above" 431.191 1520 basechar 0
Fore
500.4 1438 m 1,0,-1
 444.6 1120 l 1,1,-1
 785.7 1120 l 1,2,-1
 761.4 977 l 1,3,-1
 420.3 977 l 1,4,-1
 313.2 369 l 2,5,6
 289.8 232 289.8 232 316.8 193 c 0,7,8
 343.8 154 343.8 154 447.3 154 c 2,9,-1
 617.4 154 l 1,10,-1
 585.9 -20 l 2,11,12
 549 -234 549 -234 458.1 -330 c 0,13,14
 368.1 -426 368.1 -426 205.2 -426 c 2,15,-1
 142.2 -426 l 1,16,-1
 170.1 -270 l 1,17,-1
 214.2 -270 l 2,18,19
 308.7 -270 308.7 -270 351 -222 c 0,20,21
 394.2 -173 394.2 -173 420.3 -20 c 2,22,-1
 423.9 0 l 1,23,-1
 420.3 0 l 2,24,25
 228.6 0 228.6 0 169.2 80 c 0,26,27
 110.7 159 110.7 159 146.7 369 c 2,28,-1
 253.8 977 l 1,29,-1
 132.3 977 l 1,30,-1
 156.6 1120 l 1,31,-1
 278.1 1120 l 1,32,-1
 333.9 1438 l 1,33,-1
 500.4 1438 l 1,0,-1
EndSplineSet
EndChar
StartChar: uni01AC
Encoding: 428 428 428
Width: 1125
Flags: W
TeX: 117 0 0 0
AnchorPoint: "above" 697.169 1506 basechar 0
Fore
487.8 1323 m 2,0,-1
 572.4 1323 l 1,1,-1
 341.1 0 l 1,2,-1
 523.8 0 l 1,3,-1
 755.1 1323 l 1,4,-1
 1232.1 1323 l 1,5,-1
 1261.8 1493 l 1,6,-1
 517.5 1493 l 2,7,8
 324.9 1493 324.9 1493 224.1 1412 c 0,9,10
 123.3 1330 123.3 1330 91.7998 1149 c 2,11,-1
 80.0996 1079 l 1,12,-1
 220.5 1079 l 1,13,-1
 228.6 1128 l 2,14,15
 247.5 1233 247.5 1233 297 1271 c 0,16,17
 368.1 1323 368.1 1323 487.8 1323 c 2,0,-1
EndSplineSet
EndChar
StartChar: uni01AD
Encoding: 429 429 429
Width: 722
Flags: W
TeX: 117 0 0 0
AnchorPoint: "above" 410.374 1673 basechar 0
Fore
244.8 1198 m 2,0,1
 277.2 1385 277.2 1385 370.8 1470 c 0,2,3
 463.5 1556 463.5 1556 633.6 1556 c 2,4,-1
 790.2 1556 l 1,5,-1
 763.2 1403 l 1,6,-1
 604.8 1403 l 2,7,8
 515.7 1403 515.7 1403 474.3 1363 c 0,9,10
 432.9 1322 432.9 1322 414.9 1219 c 2,11,-1
 396.9 1120 l 1,12,-1
 738 1120 l 1,13,-1
 713.7 977 l 1,14,-1
 372.6 977 l 1,15,-1
 265.5 369 l 2,16,17
 242.1 232 242.1 232 269.1 193 c 0,18,19
 296.1 154 296.1 154 399.6 154 c 2,20,-1
 569.7 154 l 1,21,-1
 542.7 0 l 1,22,-1
 372.6 0 l 2,23,24
 180.9 0 180.9 0 121.5 80 c 0,25,26
 63 159 63 159 99 369 c 2,27,-1
 206.1 977 l 1,28,-1
 84.5996 977 l 1,29,-1
 108.9 1120 l 1,30,-1
 230.4 1120 l 1,31,-1
 244.8 1198 l 2,0,1
EndSplineSet
EndChar
StartChar: uni01AE
Encoding: 430 430 430
Width: 1125
Flags: W
TeX: 117 0 0 0
AnchorPoint: "above" 733.031 1506 basechar 0
Fore
608.4 1323 m 1,0,-1
 131.4 1323 l 1,1,-1
 161.1 1493 l 1,2,-1
 1297.8 1493 l 1,3,-1
 1268.1 1323 l 1,4,-1
 791.1 1323 l 1,5,-1
 577.8 104 l 2,6,7
 543.6 -91 543.6 -91 579.6 -165 c 0,8,9
 615.6 -240 615.6 -240 736.2 -240 c 2,10,-1
 792.9 -240 l 1,11,-1
 763.2 -410 l 1,12,-1
 693.9 -410 l 2,13,14
 489.6 -410 489.6 -410 418.5 -288 c 0,15,16
 347.4 -166 347.4 -166 395.1 104 c 2,17,-1
 608.4 1323 l 1,0,-1
EndSplineSet
EndChar
StartChar: uni01B1
Encoding: 433 433 433
Width: 1408
Flags: W
TeX: 117 0 0 0
Fore
1439.1 1304 m 1,0,-1
 1470.6 1482 l 1,1,-1
 930.6 1482 l 1,2,-1
 899.1 1304 l 1,3,4
 1041.3 1207 1041.3 1207 1101.6 1041 c 0,5,6
 1161.9 875 1161.9 875 1126.8 673 c 0,7,8
 1084.5 433 1084.5 433 940.5 288 c 0,9,10
 796.5 143 796.5 143 602.1 143 c 0,11,12
 407.7 143 407.7 143 313.2 288 c 128,-1,13
 219.6 434 219.6 434 261.9 673 c 0,14,15
 297 875 297 875 415.8 1041 c 0,16,17
 533.7 1207 533.7 1207 711 1304 c 1,18,-1
 742.5 1482 l 1,19,-1
 202.5 1482 l 1,20,-1
 171 1304 l 1,21,-1
 458.1 1304 l 1,22,23
 291.6 1165 291.6 1165 200.7 1016 c 0,24,25
 108.9 867 108.9 867 77.4004 683 c 0,26,27
 21.5996 365 21.5996 365 159.3 168 c 0,28,29
 297 -29 297 -29 571.5 -29 c 0,30,31
 844.2 -29 844.2 -29 1052.1 168 c 0,32,33
 1260 364 1260 364 1314 673 c 0,34,35
 1347.3 867 1347.3 867 1309.5 1015 c 0,36,37
 1271.7 1163 1271.7 1163 1151.1 1304 c 1,38,-1
 1439.1 1304 l 1,0,-1
EndSplineSet
EndChar
StartChar: uni01B2
Encoding: 434 434 434
Width: 1328
Flags: W
TeX: 117 0 0 0
AnchorPoint: "above" 746.593 1520 basechar 0
Fore
538.2 170 m 0,0,-1
 481.5 170 l 2,1,2
 360.9 170 360.9 170 324.9 245 c 0,3,4
 288 320 288 320 322.2 514 c 2,5,-1
 493.2 1493 l 1,6,-1
 311.4 1493 l 1,7,-1
 140.4 514 l 2,8,9
 93.5996 244 93.5996 244 163.8 122 c 0,10,11
 231.3 6 231.3 6 439.2 0 c 2,12,-1
 508.5 -2 l 0,13,14
 781.2 -2 781.2 -2 988.2 194 c 0,15,16
 1196.1 391 1196.1 391 1250.1 700 c 0,17,18
 1284.3 894 1284.3 894 1246.5 1042 c 0,19,20
 1207.8 1190 1207.8 1190 1088.1 1331 c 1,21,-1
 927 1332 l 1,22,-1
 915.3 1264 l 1,23,24
 999 1177 999 1177 1038.6 1068 c 0,25,26
 1098 902 1098 902 1062.9 700 c 0,27,28
 1021.5 460 1021.5 460 876.6 315 c 0,29,30
 732.6 170 732.6 170 538.2 170 c 0,0,-1
EndSplineSet
EndChar
StartChar: uni01B3
Encoding: 435 435 435
Width: 1282
Flags: W
TeX: 117 0 0 0
AnchorPoint: "above" 697.893 1527 basechar 0
Fore
585 879 m 1,0,-1
 966.6 1370 l 2,1,2
 1026.9 1448 1026.9 1448 1078.2 1488 c 0,3,4
 1147.5 1542 1147.5 1542 1236.6 1493 c 2,5,-1
 1457.1 1371 l 1,6,-1
 1363.5 1236 l 1,7,-1
 1202.4 1337 l 0,8,9
 1125 1331 1125 1331 1080.9 1274 c 2,10,-1
 646.2 711 l 1,11,-1
 522 0 l 1,12,-1
 339.3 0 l 1,13,-1
 463.5 711 l 1,14,-1
 125.1 1493 l 1,15,-1
 320.4 1493 l 1,16,-1
 585 879 l 1,0,-1
EndSplineSet
EndChar
StartChar: uni01B4
Encoding: 436 436 436
Width: 1483
Flags: W
TeX: 117 0 0 0
AnchorPoint: "above" 687.022 1154 basechar 0
AnchorPoint: "below" 409.914 -430 basechar 0
Fore
513 -104 m 1,0,1
 407.7 -304 407.7 -304 330.3 -365 c 128,-1,2
 252.9 -426 252.9 -426 141.3 -426 c 2,3,-1
 9 -426 l 1,4,-1
 36 -272 l 1,5,-1
 133.2 -272 l 2,6,7
 201.6 -272 201.6 -272 245.7 -236 c 128,-1,8
 289.8 -200 289.8 -200 359.1 -66 c 1,9,-1
 404.1 18 l 1,10,-1
 189 1120 l 1,11,-1
 364.5 1120 l 1,12,-1
 525.6 244 l 1,13,-1
 899.1 943 l 2,14,15
 966.6 1069 966.6 1069 1046.7 1110 c 0,16,17
 1143 1160 1143 1160 1225.8 1112 c 2,18,-1
 1401.3 1011 l 1,19,-1
 1327.5 864 l 1,20,-1
 1168.2 958 l 2,21,22
 1102.5 997 1102.5 997 1064.7 928 c 2,23,-1
 513 -104 l 1,0,1
EndSplineSet
EndChar
StartChar: uni01B5
Encoding: 437 437 437
Width: 1262
Flags: W
TeX: 117 0 0 0
AnchorPoint: "above" 767.118 1520 basechar 0
Fore
234 1493 m 1,0,-1
 1289.7 1493 l 1,1,-1
 1262.7 1339 l 1,2,-1
 816.3 844 l 1,3,-1
 1069.2 844 l 1,4,-1
 1044 700 l 1,5,-1
 686.7 700 l 1,6,-1
 208.8 170 l 1,7,-1
 1079.1 170 l 1,8,-1
 1049.4 0 l 1,9,-1
 -47.7002 0 l 1,10,-1
 -20.7002 154 l 1,11,-1
 471.6 700 l 1,12,-1
 202.5 700 l 1,13,-1
 227.7 844 l 1,14,-1
 601.2 844 l 1,15,-1
 1033.2 1323 l 1,16,-1
 204.3 1323 l 1,17,-1
 234 1493 l 1,0,-1
EndSplineSet
EndChar
StartChar: uni01B6
Encoding: 438 438 438
Width: 967
Flags: W
TeX: 117 0 0 0
AnchorPoint: "above" 584.191 1147 basechar 0
Fore
199.8 1120 m 1,0,-1
 986.4 1120 l 1,1,-1
 956.7 952 l 1,2,-1
 679.5 660 l 1,3,-1
 854.1 660 l 1,4,-1
 828.9 516 l 1,5,-1
 543.6 516 l 1,6,-1
 193.5 147 l 1,7,-1
 816.3 147 l 1,8,-1
 790.2 0 l 1,9,-1
 -18.9004 0 l 1,10,-1
 10.7998 168 l 1,11,-1
 341.1 516 l 1,12,-1
 149.4 516 l 1,13,-1
 174.6 660 l 1,14,-1
 477 660 l 1,15,-1
 774 973 l 1,16,-1
 173.7 973 l 1,17,-1
 199.8 1120 l 1,0,-1
EndSplineSet
EndChar
StartChar: uni01B7
Encoding: 439 439 439
Width: 1227
Flags: W
TeX: 117 0 0 0
Fore
505.8 107 m 8,0,1
 678.6 107 678.6 107 780.3 182 c 0,2,3
 883.8 257 883.8 257 909 400 c 0,4,5
 932.4 534 932.4 534 862.2 607 c 0,6,7
 791.1 681 791.1 681 642.6 681 c 2,8,-1
 486 681 l 1,9,-1
 515.7 847 l 1,10,-1
 945 1323 l 1,11,-1
 250.2 1323 l 1,12,-1
 279.9 1493 l 1,13,-1
 1201.5 1493 l 1,14,-1
 1172.7 1325 l 1,15,-1
 719.1 849 l 1,16,17
 814.5 849 814.5 849 919.8 793 c 0,18,19
 1000.8 751 1000.8 751 1059.3 642 c 0,20,21
 1114.2 538 1114.2 538 1089.9 400 c 0,22,23
 1062.9 249 1062.9 249 995.4 164 c 2,24,-1
 963 123 l 2,25,26
 939.6 94 939.6 94 892.8 58 c 0,27,28
 735.3 -63 735.3 -63 483.3 -63 c 16,29,30
 376.2 -63 376.2 -63 266.4 -44 c 0,31,32
 156.6 -26 156.6 -26 42.2998 11 c 1,33,-1
 76.5 206 l 1,34,35
 163.8 157 163.8 157 273.6 132 c 0,36,37
 382.5 107 382.5 107 505.8 107 c 8,0,1
EndSplineSet
EndChar
StartChar: uni01B8
Encoding: 440 440 440
Width: 1227
Flags: W
TeX: 117 0 0 0
Fore
509.4 107 m 16,0,1
 632.7 107 632.7 107 750.6 132 c 0,36,37
 869.4 157 869.4 157 972.9 206 c 1,34,35
 938.7 11 l 1,33,-1
 811.8 -26 811.8 -26 694.8 -44 c 0,31,32
 579.6 -63 579.6 -63 472.5 -63 c 8,29,30
 220.5 -63 220.5 -63 104.4 58 c 0,27,28
 70.2002 94 70.2002 94 57.5996 123 c 2,25,26
 39.5996 164 l 2,24,-1
 0.900391 249 0.900391 249 27.9004 400 c 0,22,23
 52.2002 538 52.2002 538 143.1 642 c 0,20,21
 239.4 751 239.4 751 334.8 793 c 0,18,19
 459.9 849 459.9 849 555.3 849 c 1,16,17
 269.1 1325 l 1,15,-1
 297.9 1493 l 1,14,-1
 1219.5 1493 l 1,13,-1
 1189.8 1323 l 1,12,-1
 495 1323 l 1,11,-1
 758.7 847 l 1,10,-1
 729 681 l 1,9,-1
 572.4 681 l 2,8,-1
 423.9 681 423.9 681 327.6 607 c 0,6,7
 232.2 534 232.2 534 208.8 400 c 0,4,5
 183.6 257 183.6 257 260.1 182 c 0,2,3
 336.6 107 336.6 107 509.4 107 c 16,0,1
EndSplineSet
EndChar
StartChar: uni01B9
Encoding: 441 441 441
Width: 1064
Flags: W
TeX: 117 0 0 0
AnchorPoint: "below" 522.844 -430 basechar 0
AnchorPoint: "above" 727.828 1143 basechar 0
Fore
566.1 476 m 1,0,1
 470.7 476 470.7 476 345.6 420 c 0,2,3
 250.2 378 250.2 378 153.9 269 c 0,4,5
 63 165 63 165 38.7002 27 c 0,6,7
 6.2998 -157 6.2998 -157 81 -271 c 2,8,9
 105.3 -304 l 2,10,11
 109.8 -309 109.8 -309 115.2 -315 c 0,12,13
 231.3 -436 231.3 -436 483.3 -436 c 0,14,15
 567.9 -436 567.9 -436 659.7 -418 c 0,16,17
 753.3 -399 753.3 -399 855 -362 c 1,18,-1
 889.2 -167 l 1,19,20
 805.5 -216 805.5 -216 711 -241 c 0,21,22
 616.5 -266 616.5 -266 518.4 -266 c 0,23,24
 347.4 -266 347.4 -266 270.9 -191 c 0,25,26
 194.4 -116 194.4 -116 219.6 27 c 0,27,28
 242.1 159 242.1 159 338.4 234 c 0,29,30
 434.7 308 434.7 308 583.2 308 c 2,31,-1
 739.8 308 l 1,32,-1
 769.5 474 l 1,33,-1
 469.8 973 l 1,34,-1
 1070.1 973 l 1,35,-1
 1095.3 1120 l 1,36,-1
 308.7 1120 l 1,37,-1
 279.9 952 l 1,38,-1
 566.1 476 l 1,0,1
EndSplineSet
EndChar
StartChar: uni01BA
Encoding: 442 442 442
Width: 967
Flags: W
TeX: 117 0 0 0
Fore
424.8 -274 m 0,0,1
 500.4 -274 500.4 -274 573.3 -253 c 0,2,3
 648 -232 648 -232 729 -188 c 1,4,-1
 697.5 -367 l 1,5,6
 612.9 -399 612.9 -399 539.1 -412 c 0,7,8
 459 -426 459 -426 371.7 -426 c 16,9,10
 -16.2002 -426 -16.2002 -426 -16.2002 -199 c 0,11,12
 -16.2002 -174 -16.2002 -174 -10.7998 -145 c 0,13,14
 30.5996 93 30.5996 93 405 146 c 0,15,16
 667.8 183 667.8 183 684.9 281 c 0,17,18
 686.7 293 686.7 293 686.7 303 c 0,19,20
 686.7 405 686.7 405 495 405 c 2,21,-1
 234 405 l 9,22,-1
 769.5 973 l 1,23,-1
 169.2 973 l 1,24,-1
 195.3 1120 l 1,25,-1
 981.9 1120 l 1,26,-1
 952.2 952 l 1,27,-1
 561.6 540 l 17,28,29
 855.9 540 855.9 540 855.9 358 c 0,30,31
 855.9 336 855.9 336 852.3 311 c 0,32,33
 803.7 35 803.7 35 377.1 -14 c 0,34,35
 170.1 -38 170.1 -38 153 -135 c 0,36,37
 151.2 -146 151.2 -146 151.2 -155 c 0,38,39
 151.2 -274 151.2 -274 424.8 -274 c 0,0,1
EndSplineSet
EndChar
StartChar: uni01BB
Encoding: 443 443 443
Width: 1172
Flags: W
TeX: 117 0 0 0
Fore
250.2 170 m 1,0,-1
 884.7 170 l 1,1,-1
 855 0 l 1,2,-1
 1.7998 0 l 1,3,-1
 31.5 170 l 1,4,-1
 369.9 490 l 1,5,-1
 494.1 607 l 1,6,-1
 183.6 607 l 1,7,-1
 208.8 751 l 1,8,-1
 642.6 751 l 1,9,10
 747.9 860 747.9 860 793.8 932 c 0,11,12
 841.5 1008 841.5 1008 854.1 1081 c 0,13,14
 875.7 1200 875.7 1200 813.6 1275 c 0,15,16
 751.5 1350 751.5 1350 630.9 1350 c 0,17,18
 545.4 1350 545.4 1350 444.6 1317 c 0,19,20
 343.8 1284 343.8 1284 224.1 1217 c 1,21,-1
 259.2 1421 l 1,22,23
 378 1470 378 1470 477.9 1495 c 0,24,25
 577.8 1520 577.8 1520 657 1520 c 0,26,27
 865.8 1520 865.8 1520 969.3 1404 c 0,28,29
 1073.7 1288 1073.7 1288 1039.5 1094 c 0,30,31
 1023.3 1002 1023.3 1002 977.4 920 c 0,32,33
 937.8 847 937.8 847 854.1 751 c 1,34,-1
 947.7 751 l 1,35,-1
 922.5 607 l 1,36,-1
 710.1 607 l 1,37,-1
 658.8 558 l 1,38,-1
 250.2 170 l 1,0,-1
EndSplineSet
EndChar
StartChar: uni01BC
Encoding: 444 444 444
Width: 1227
Flags: W
TeX: 117 0 0 0
Fore
720 849 m 2,0,1
 813.6 849 813.6 849 920.7 793 c 0,2,3
 1001.7 750 1001.7 750 1060.2 642 c 0,4,5
 1115.1 538 1115.1 538 1090.8 400 c 0,6,7
 1063.8 249 1063.8 249 996.3 164 c 2,8,-1
 963.9 123 l 2,9,10
 940.5 94 940.5 94 893.7 58 c 0,11,12
 736.2 -63 736.2 -63 484.2 -63 c 0,13,14
 221.4 -63 221.4 -63 105.3 58 c 0,15,16
 71.0996 94 71.0996 94 58.5 123 c 2,17,-1
 40.5 164 l 2,18,19
 1.7998 249 1.7998 249 28.7998 400 c 1,20,-1
 209.7 400 l 1,21,22
 184.5 257 184.5 257 261 182 c 0,23,24
 337.5 107 337.5 107 508.5 107 c 0,25,26
 678.6 107 678.6 107 781.2 182 c 0,27,28
 884.7 257 884.7 257 909.9 400 c 0,29,30
 933.3 534 933.3 534 863.1 607 c 0,31,32
 792 681 792 681 643.5 681 c 2,33,-1
 356.4 681 l 1,34,-1
 356.4 680 l 1,35,-1
 174.6 680 l 1,36,-1
 316.8 1493 l 1,37,-1
 1152.9 1493 l 1,38,-1
 1123.2 1323 l 1,39,-1
 468.9 1323 l 1,40,-1
 386.1 848 l 1,41,-1
 720 849 l 2,0,1
EndSplineSet
EndChar
StartChar: uni01BD
Encoding: 445 445 445
Width: 1064
Flags: W
TeX: 117 0 0 0
Fore
552.6 476 m 2,0,1
 647.1 476 647.1 476 753.3 420 c 0,2,3
 834.3 377 834.3 377 892.8 269 c 0,4,5
 947.7 165 947.7 165 923.4 27 c 0,6,7
 896.4 -124 896.4 -124 828.9 -209 c 2,8,-1
 796.5 -250 l 2,9,10
 773.1 -279 773.1 -279 726.3 -315 c 0,11,12
 568.8 -436 568.8 -436 316.8 -436 c 0,13,14
 232.2 -436 232.2 -436 145.8 -418 c 0,15,16
 59.4004 -399 59.4004 -399 -29.7002 -362 c 1,17,-1
 4.5 -167 l 1,18,19
 72 -216 72 -216 157.5 -241 c 0,20,21
 243 -266 243 -266 341.1 -266 c 0,22,23
 511.2 -266 511.2 -266 613.8 -191 c 0,24,25
 717.3 -116 717.3 -116 742.5 27 c 0,26,27
 765.9 161 765.9 161 695.7 234 c 0,28,29
 624.6 308 624.6 308 476.1 308 c 2,30,-1
 157.5 308 l 1,31,-1
 187.2 476 l 1,32,-1
 188.1 476 l 1,33,-1
 303.3 1120 l 1,34,-1
 1014.3 1120 l 1,35,-1
 984.6 950 l 1,36,-1
 439.2 950 l 1,37,-1
 353.7 476 l 1,38,-1
 552.6 476 l 2,0,1
EndSplineSet
EndChar
StartChar: uni01BE
Encoding: 446 446 446
Width: 940
Flags: W
TeX: 117 0 0 0
Fore
541.8 998 m 1,0,-1
 518.4 873 l 1,1,2
 666 843 666 843 746.1 724 c 0,3,4
 822.6 609 822.6 609 792.9 439 c 0,5,6
 760.5 253 760.5 253 639.9 128 c 0,7,8
 488.7 -29 488.7 -29 241.2 -29 c 0,9,10
 164.7 -29 164.7 -29 95.4004 -11 c 0,11,12
 25.2002 6 25.2002 6 -36.9004 41 c 1,13,-1
 -7.2002 213 l 1,14,15
 52.2002 173 52.2002 173 123.3 149 c 0,16,17
 189.9 127 189.9 127 261.9 127 c 0,18,19
 423 127 423 127 531.9 241 c 0,20,21
 594.9 306 594.9 306 618.3 439 c 0,22,23
 635.4 537 635.4 537 596.7 613 c 0,24,25
 539.1 727 539.1 727 366.3 727 c 2,26,-1
 310.5 727 l 1,27,-1
 360 998 l 1,28,-1
 153.9 998 l 1,29,-1
 182.7 1162 l 1,30,-1
 388.8 1162 l 1,31,-1
 437.4 1438 l 1,32,-1
 619.2 1438 l 1,33,-1
 570.6 1162 l 1,34,-1
 778.5 1162 l 1,35,-1
 749.7 998 l 1,36,-1
 541.8 998 l 1,0,-1
EndSplineSet
EndChar
StartChar: uni01BF
Encoding: 447 447 447
Width: 1170
Flags: W
TeX: 117 0 0 0
Fore
209.7 -122 m 1,1,-1
 156.6 -426 l 1,2,-1
 -9.90039 -426 l 1,3,-1
 261 1120 l 1,4,-1
 427.5 1120 l 1,5,-1
 397.8 950 l 1,6,7
 459 1020 459 1020 592.2 1098 c 0,8,9
 673.2 1147 673.2 1147 862.2 1147 c 0,10,11
 1027.8 1147 1027.8 1147 1077.3 1035 c 0,12,13
 1110.6 961 1110.6 961 1110.6 870 c 0,14,15
 1110.6 822 1110.6 822 1101.6 769 c 0,16,17
 1026.9 344 1026.9 344 209.7 -122 c 1,1,-1
242.1 60 m 17,19,20
 875.7 460 875.7 460 918.9 709 c 0,21,22
 927.9 759 927.9 759 927.9 799 c 0,23,24
 927.9 868 927.9 868 902.7 908 c 0,25,26
 864.9 973 864.9 973 758.7 973 c 0,27,28
 755.1 973 l 0,29,30
 557.1 973 557.1 973 360 734 c 1,31,32
 300.6 397 300.6 397 242.1 60 c 17,19,20
EndSplineSet
EndChar
StartChar: uni01C0
Encoding: 448 448 448
Width: 543
Flags: W
TeX: 117 0 0 0
Fore
349.2 1493 m 1,0,-1
 531 1493 l 1,1,-1
 194.4 -426 l 1,2,-1
 12.5996 -426 l 1,3,-1
 349.2 1493 l 1,0,-1
EndSplineSet
EndChar
StartChar: uni01C2
Encoding: 450 450 450
Width: 846
Flags: W
TeX: 117 0 0 0
Fore
502.2 1493 m 1,0,-1
 684 1493 l 1,1,-1
 576 876 l 1,2,-1
 891.9 876 l 1,3,-1
 862.2 708 l 1,4,-1
 546.3 708 l 1,5,-1
 504 468 l 1,6,-1
 819.9 468 l 1,7,-1
 790.2 298 l 1,8,-1
 474.3 298 l 1,9,-1
 347.4 -426 l 1,10,-1
 165.6 -426 l 1,11,-1
 292.5 298 l 1,12,-1
 -23.4004 298 l 1,13,-1
 6.2998 468 l 1,14,-1
 322.2 468 l 1,15,-1
 364.5 708 l 1,16,-1
 48.5996 708 l 1,17,-1
 78.2998 876 l 1,18,-1
 394.2 876 l 1,19,-1
 502.2 1493 l 1,0,-1
EndSplineSet
EndChar
StartChar: uni01E4
Encoding: 484 484 484
Width: 1428
Flags: W
Fore
1212.3 381 m 1,0,-1
 1166.4 123 l 1,1,2
 1046.7 50 1046.7 50 905.4 10 c 128,-1,3
 764.1 -29 764.1 -29 621 -29 c 0,4,5
 368.1 -29 368.1 -29 225 127 c 128,-1,6
 82.7998 283 82.7998 283 82.7998 561 c 0,7,8
 82.7998 792 82.7998 792 169.2 1000 c 128,-1,9
 256.5 1209 256.5 1209 409.5 1348 c 0,10,11
 505.8 1435 505.8 1435 620.1 1478 c 128,-1,12
 734.4 1520 734.4 1520 873.9 1520 c 0,13,14
 999.9 1520 999.9 1520 1116 1484 c 128,-1,15
 1231.2 1449 1231.2 1449 1336.5 1378 c 1,16,-1
 1299.6 1163 l 1,17,18
 1218.6 1257 1218.6 1257 1109.7 1306 c 128,-1,19
 1000.8 1356 1000.8 1356 877.5 1356 c 0,20,21
 734.4 1356 734.4 1356 625.5 1296 c 128,-1,22
 516.6 1235 516.6 1235 431.1 1108 c 0,23,24
 358.2 1000 358.2 1000 316.8 854 c 128,-1,25
 274.5 707 274.5 707 274.5 555 c 0,26,27
 274.5 346 274.5 346 370.8 240 c 128,-1,28
 467.1 135 467.1 135 657.9 135 c 0,29,30
 753.3 135 753.3 135 842.4 158 c 128,-1,31
 931.5 180 931.5 180 1006.2 223 c 1,32,-1
 1035 381 l 1,33,-1
 828 381 l 1,34,-1
 853.2 469 l 1,35,-1
 1050.3 469 l 1,36,-1
 1076.4 614 l 1,37,-1
 777.6 614 l 1,38,-1
 805.5 780 l 1,39,-1
 1282.5 780 l 1,40,-1
 1227.6 469 l 1,41,-1
 1369.8 469 l 1,42,-1
 1344.6 381 l 1,43,-1
 1212.3 381 l 1,0,-1
EndSplineSet
EndChar
StartChar: uni01E5
Encoding: 485 485 485
Width: 1170
Flags: W
Fore
849.6 709 m 0,0,1
 849.6 845 849.6 845 792 919 c 128,-1,2
 734.4 993 734.4 993 628.2 993 c 0,3,4
 562.5 993 562.5 993 503.1 964 c 128,-1,5
 443.7 935 443.7 935 401.4 883 c 0,6,7
 333 797 333 797 295.2 680 c 128,-1,8
 256.5 564 256.5 564 256.5 440 c 0,9,10
 256.5 302 256.5 302 315 228 c 128,-1,11
 372.6 154 372.6 154 481.5 154 c 0,12,13
 639 154 639 154 744.3 312 c 128,-1,14
 849.6 471 849.6 471 849.6 709 c 0,0,1
696.6 -84 m 1,15,16
 738.9 -8 738.9 -8 757.8 96 c 2,17,-1
 772.2 180 l 1,18,19
 702.9 92 702.9 92 611.1 46 c 128,-1,20
 519.3 0 519.3 0 413.1 0 c 0,21,22
 260.1 0 260.1 0 172.8 112 c 128,-1,23
 84.5996 225 84.5996 225 84.5996 422 c 0,24,25
 84.5996 577 84.5996 577 137.7 726 c 128,-1,26
 190.8 874 190.8 874 287.1 989 c 0,27,28
 351 1065 351 1065 435.6 1106 c 128,-1,29
 521.1 1147 521.1 1147 613.8 1147 c 0,30,31
 715.5 1147 715.5 1147 791.1 1094 c 128,-1,32
 866.7 1042 866.7 1042 903.6 946 c 1,33,-1
 932.4 1120 l 1,34,-1
 1098.9 1120 l 1,35,-1
 927 139 l 2,36,37
 905.4 13 905.4 13 865.8 -83 c 1,38,-1
 1020.6 -84 l 1,39,-1
 990.9 -154 l 1,40,-1
 833.4 -154 l 1,41,42
 792 -231 792 -231 738 -286 c 0,43,44
 597.6 -426 597.6 -426 360.9 -426 c 0,45,46
 273.6 -426 273.6 -426 198.9 -412 c 128,-1,47
 124.2 -397 124.2 -397 59.4004 -367 c 1,48,-1
 90 -188 l 1,49,50
 151.2 -232 151.2 -232 219.6 -253 c 128,-1,51
 288 -274 288 -274 365.4 -274 c 0,52,53
 522.9 -274 522.9 -274 624.6 -178 c 0,54,55
 648 -154 l 1,56,-1
 371.7 -154 l 1,57,-1
 402.3 -84 l 1,58,-1
 696.6 -84 l 1,15,16
EndSplineSet
EndChar
StartChar: uni01F6
Encoding: 502 502 502
Width: 2051
Flags: W
TeX: 117 0 0 0
Fore
1951.2 1120 m 1,0,-1
 1833.3 442 l 2,1,2
 1793.7 219 1793.7 219 1681.2 91 c 0,3,4
 1574.1 -29 1574.1 -29 1320.3 -29 c 0,5,6
 1072.8 -29 1072.8 -29 1000.8 91 c 0,7,8
 931.5 209 931.5 209 972.9 442 c 2,9,-1
 1019.7 711 l 1,10,-1
 359.1 711 l 1,11,-1
 234.9 0 l 1,12,-1
 53.0996 0 l 1,13,-1
 314.1 1493 l 1,14,-1
 495.9 1493 l 1,15,-1
 388.8 881 l 1,16,-1
 1049.4 881 l 1,17,-1
 1156.5 1493 l 1,18,-1
 1338.3 1493 l 1,19,-1
 1155.6 449 l 2,20,21
 1127.7 290 1127.7 290 1170 210 c 0,22,23
 1211.4 132 1211.4 132 1348.2 131 c 0,24,25
 1481.4 131 1481.4 131 1555.2 210 c 0,26,27
 1623.6 285 1623.6 285 1652.4 449 c 2,28,-1
 1769.4 1120 l 1,29,-1
 1951.2 1120 l 1,0,-1
EndSplineSet
EndChar
StartChar: uni01F7
Encoding: 503 503 503
Width: 1257
Flags: W
TeX: 117 0 0 0
Fore
258.3 156 m 1,1,-1
 156.6 -426 l 1,2,-1
 -25.2002 -426 l 1,3,-1
 310.5 1493 l 1,4,-1
 492.3 1493 l 1,5,-1
 459.9 1308 l 1,6,7
 522.9 1380 522.9 1380 668.7 1467 c 0,8,9
 756 1520 756 1520 959.4 1520 c 0,10,11
 1137.6 1520 1137.6 1520 1191.6 1400 c 0,12,13
 1226.7 1320 1226.7 1320 1226.7 1222 c 0,14,15
 1226.7 1171 1226.7 1171 1216.8 1114 c 0,16,17
 1137.6 657 1137.6 657 258.3 156 c 1,1,-1
292.5 351 m 17,18,19
 973.8 781 973.8 781 1020.6 1049 c 0,20,21
 1029.6 1102 1029.6 1102 1029.6 1145 c 0,22,23
 1029.6 1218 1029.6 1218 1002.6 1263 c 0,24,25
 961.2 1333 961.2 1333 845.1 1333 c 0,26,27
 631.8 1333 631.8 1333 419.4 1076 c 1,28,-1
 292.5 351 l 17,18,19
EndSplineSet
EndChar
StartChar: uni021C
Encoding: 540 540 540
Width: 1155
Flags: W
TeX: 117 0 0 0
Fore
-38.7002 -270 m 1,0,1
 153.9 -205 153.9 -205 342 -118 c 0,2,3
 502.2 -43 502.2 -43 638.1 78 c 0,4,5
 742.5 172 742.5 172 767.7 314 c 0,6,7
 773.1 344 773.1 344 773.1 371 c 0,8,9
 773.1 445 773.1 445 733.5 494 c 0,10,11
 679.5 561 679.5 561 597.6 561 c 0,12,13
 540.9 561 540.9 561 472.5 530 c 2,14,-1
 237.6 424 l 1,15,-1
 267.3 595 l 1,16,-1
 509.4 701 l 2,17,18
 650.7 763 650.7 763 764.1 880 c 0,19,20
 848.7 966 848.7 966 875.7 1112 c 0,21,22
 881.1 1141 881.1 1141 881.1 1166 c 0,23,24
 881.1 1244 881.1 1244 833.4 1288 c 0,25,26
 768.6 1349 768.6 1349 669.6 1349 c 0,27,28
 573.3 1349 573.3 1349 463.5 1292 c 0,29,30
 404.1 1261 404.1 1261 252.9 1166 c 1,31,-1
 286.2 1356 l 1,32,33
 405 1422 405 1422 498.6 1464 c 0,34,35
 624.6 1520 624.6 1520 715.5 1520 c 0,36,37
 888.3 1520 888.3 1520 989.1 1416 c 0,38,39
 1067.4 1336 1067.4 1336 1067.4 1212 c 0,40,41
 1067.4 1175 1067.4 1175 1060.2 1133 c 0,42,43
 1030.5 963 1030.5 963 949.5 864 c 0,44,45
 855.9 751 855.9 751 734.4 674 c 1,46,47
 855 655 855 655 909 546 c 0,48,49
 953.1 457 953.1 457 953.1 371 c 0,50,51
 953.1 342 953.1 342 948.6 314 c 0,52,53
 909.9 95 909.9 95 750.6 -46 c 0,54,55
 607.5 -173 607.5 -173 315.9 -298 c 0,56,57
 110.7 -386 110.7 -386 -66.5996 -430 c 1,58,-1
 -38.7002 -270 l 1,0,1
EndSplineSet
EndChar
StartChar: uni021D
Encoding: 541 541 541
Width: 961
Flags: W
TeX: 117 0 0 0
Fore
-91.7998 -303 m 1,0,1
 77.4004 -252 77.4004 -252 248.4 -180 c 0,2,3
 392.4 -120 392.4 -120 512.1 -21 c 0,4,5
 605.7 56 605.7 56 624.6 170 c 0,6,7
 628.2 192 628.2 192 628.2 212 c 0,8,9
 628.2 274 628.2 274 591.3 316 c 0,10,11
 541.8 370 541.8 370 468 370 c 0,12,13
 416.7 370 416.7 370 355.5 345 c 2,14,-1
 145.8 259 l 1,15,-1
 170.1 398 l 1,16,-1
 386.1 483 l 2,17,18
 505.8 530 505.8 530 612 629 c 0,19,20
 688.5 700 688.5 700 709.2 816 c 0,21,22
 712.8 837 712.8 837 712.8 856 c 0,23,24
 712.8 924 712.8 924 668.7 959 c 0,25,26
 606.6 1009 606.6 1009 520.2 1009 c 0,27,28
 437.4 1009 437.4 1009 335.7 962 c 0,29,30
 258.3 927 258.3 927 148.5 860 c 1,31,-1
 175.5 1014 l 1,32,33
 270.9 1062 270.9 1062 365.4 1101 c 0,34,35
 477 1147 477 1147 558.9 1147 c 0,36,37
 714.6 1147 714.6 1147 807.3 1062 c 0,38,39
 880.2 995 880.2 995 880.2 892 c 0,40,41
 880.2 864 880.2 864 874.8 833 c 0,42,43
 850.5 694 850.5 694 779.4 615 c 0,44,45
 697.5 524 697.5 524 589.5 461 c 1,46,47
 698.4 446 698.4 446 748.8 358 c 0,48,49
 791.1 283 791.1 283 791.1 211 c 0,50,51
 791.1 190 791.1 190 787.5 170 c 0,52,53
 756.9 -7 756.9 -7 614.7 -122 c 0,54,55
 489.6 -224 489.6 -224 227.7 -326 c 0,56,57
 37.7998 -400 37.7998 -400 -114.3 -433 c 1,58,-1
 -91.7998 -303 l 1,0,1
EndSplineSet
EndChar
StartChar: uni0220
Encoding: 544 544 544
Width: 1355
Flags: W
TeX: 117 0 0 0
Fore
1198.8 893 m 2,0,-1
 968.4 -426 l 1,1,-1
 787.5 -426 l 1,2,-1
 1018.8 895 l 2,3,4
 1034.1 984 1034.1 984 1034.1 1055 c 0,5,6
 1034.1 1153 1034.1 1153 1004.4 1216 c 0,7,8
 954.9 1323 954.9 1323 817.2 1323 c 0,9,10
 656.1 1323 656.1 1323 535.5 1194 c 0,11,12
 417.6 1068 417.6 1068 378.9 846 c 2,13,-1
 231.3 0 l 1,14,-1
 49.5 0 l 1,15,-1
 310.5 1493 l 1,16,-1
 492.3 1493 l 1,17,-1
 450 1252 l 1,18,19
 543.6 1387 543.6 1387 649.8 1453 c 0,20,21
 756 1520 756 1520 894.6 1520 c 0,22,23
 1098.9 1520 1098.9 1520 1175.4 1361 c 0,24,25
 1221.3 1267 1221.3 1267 1221.3 1122 c 0,26,27
 1221.3 1020 1221.3 1020 1198.8 893 c 2,0,-1
EndSplineSet
EndChar
StartChar: uni0221
Encoding: 545 545 545
Width: 1544
Flags: W
TeX: 117 0 0 0
Fore
984.6 130 m 9,0,1
 999 125 999 125 1032.3 125 c 0,2,3
 1176.3 125 1176.3 125 1206.9 300 c 0,4,5
 1215 345 1215 345 1168.2 346 c 0,6,7
 1121.4 346 1121.4 346 984.6 130 c 9,0,1
934.2 314 m 1,8,9
 1065.6 498 1065.6 498 1188 498 c 0,10,11
 1407.6 498 1407.6 498 1371.6 292 c 0,12,13
 1314.9 -29 1314.9 -29 1007.1 -29 c 0,14,15
 941.4 -29 941.4 -29 896.4 -14 c 1,16,17
 853.2 -86 853.2 -86 821.7 -144 c 1,18,-1
 645.3 -144 l 1,19,20
 683.1 -75 683.1 -75 769.5 72 c 1,21,22
 736.2 132 736.2 132 742.5 168 c 1,23,24
 673.2 68 673.2 68 585.9 20 c 0,25,26
 496.8 -29 496.8 -29 385.2 -29 c 0,27,28
 202.5 -29 202.5 -29 116.1 133 c 0,29,30
 29.7002 295 29.7002 295 75.5996 559 c 128,-1,31
 122.4 823 122.4 823 264.6 985 c 0,32,33
 408.6 1147 408.6 1147 591.3 1147 c 0,34,35
 702.9 1147 702.9 1147 774 1098 c 0,36,37
 845.1 1050 845.1 1050 879.3 950 c 1,38,-1
 985.5 1556 l 1,39,-1
 1151.1 1556 l 1,40,-1
 934.2 314 l 1,8,9
246.6 559 m 128,-1,42
 211.5 356 211.5 356 265.5 240 c 0,43,44
 321.3 125 321.3 125 452.7 125 c 128,-1,45
 584.1 125 584.1 125 679.5 240 c 0,46,47
 775.8 356 775.8 356 810.9 559 c 128,-1,48
 846.9 762 846.9 762 791.1 878 c 0,49,50
 736.2 993 736.2 993 604.8 993 c 128,-1,51
 473.4 993 473.4 993 377.1 878 c 0,52,41
 282.6 762 282.6 762 246.6 559 c 128,-1,42
EndSplineSet
EndChar
StartChar: uni0222
Encoding: 546 546 546
Width: 1287
Flags: W
TeX: 117 0 0 0
Fore
636.3 709 m 0,0,1
 470.7 709 470.7 709 361.8 632 c 0,2,3
 252 555 252 555 227.7 420 c 0,4,5
 223.2 390 223.2 390 223.2 363 c 0,6,7
 223.2 268 223.2 268 287.1 208 c 0,8,9
 369 131 369 131 534.6 131 c 128,-1,10
 700.2 131 700.2 131 810 208 c 0,11,12
 919.8 286 919.8 286 943.2 420 c 0,13,14
 948.6 450 948.6 450 948.6 478 c 0,15,16
 948.6 572 948.6 572 885.6 632 c 0,17,18
 803.7 709 803.7 709 636.3 709 c 0,0,1
680.4 1260 m 17,19,20
 562.5 1257 562.5 1257 475.2 1195 c 128,-1,21
 387.9 1133 387.9 1133 374.4 1054 c 0,22,23
 372.6 1044 372.6 1044 372.6 1034 c 0,24,25
 372.6 975 372.6 975 434.7 913 c 0,26,27
 480.6 868 480.6 868 664.2 868 c 0,28,29
 815.4 868 815.4 868 911.7 933 c 0,30,31
 1009.8 998 1009.8 998 1033.2 1134 c 0,32,33
 1042.2 1183 1042.2 1183 1042.2 1221 c 0,34,35
 1042.2 1305 1042.2 1305 999.9 1335 c 0,36,37
 915.3 1412 915.3 1412 800.1 1420 c 9,38,-1
 817.2 1520 l 1,39,40
 1022.4 1520 1022.4 1520 1139.4 1416 c 0,41,42
 1222.2 1341 1222.2 1341 1222.2 1214 c 0,43,44
 1222.2 1176 1222.2 1176 1215 1133 c 0,45,46
 1192.5 1005 1192.5 1005 1100.7 916 c 128,-1,47
 1008.9 827 1008.9 827 865.8 795 c 1,48,49
 1015.2 761 1015.2 761 1083.6 662 c 0,50,51
 1134 589 1134 589 1134 493 c 0,52,53
 1134 458 1134 458 1126.8 420 c 0,54,55
 1089 203 1089 203 928.8 87 c 128,-1,56
 768.6 -29 768.6 -29 506.7 -29 c 128,-1,57
 244.8 -29 244.8 -29 126 87 c 0,58,59
 34.2002 175 34.2002 175 34.2002 322 c 0,60,61
 34.2002 368 34.2002 368 43.2002 420 c 0,62,63
 68.4004 563 68.4004 563 172.8 662 c 128,-1,64
 277.2 761 277.2 761 436.5 795 c 1,65,66
 288 826 288 826 240.3 896 c 0,67,68
 191.7 967 191.7 967 191.7 1037 c 0,69,70
 191.7 1055 191.7 1055 194.4 1073 c 0,71,72
 217.8 1203 217.8 1203 349.2 1286 c 0,73,74
 466.2 1360 466.2 1360 697.5 1360 c 1,75,-1
 680.4 1260 l 17,19,20
EndSplineSet
EndChar
StartChar: uni0223
Encoding: 547 547 547
Width: 1125
Flags: W
TeX: 117 0 0 0
Fore
584.1 709 m 0,0,1
 454.5 709 454.5 709 366.3 632 c 0,2,3
 279 555 279 555 255.6 420 c 0,4,5
 248.4 382 248.4 382 248.4 349 c 0,6,7
 248.4 263 248.4 263 292.5 208 c 0,8,9
 353.7 131 353.7 131 483.3 131 c 128,-1,10
 612.9 131 612.9 131 701.1 208 c 0,11,12
 789.3 286 789.3 286 812.7 420 c 0,13,14
 819 458 819 458 819 491 c 0,15,16
 819 576 819 576 774.9 632 c 0,17,18
 714.6 709 714.6 709 584.1 709 c 0,0,1
1051.2 1327 m 17,19,20
 1076.4 1273 1076.4 1273 1076.4 1206 c 0,21,22
 1076.4 1171 1076.4 1171 1069.2 1133 c 0,23,24
 1043.1 980 1043.1 980 984.6 916 c 0,25,26
 903.6 827 903.6 827 782.1 795 c 1,27,28
 907.2 761 907.2 761 963.9 662 c 0,29,30
 1001.7 594 1001.7 594 1001.7 505 c 0,31,32
 1001.7 464 1001.7 464 994.5 420 c 0,33,34
 956.7 203 956.7 203 816.3 87 c 0,35,36
 676.8 -29 676.8 -29 454.5 -29 c 128,-1,37
 232.2 -29 232.2 -29 134.1 87 c 0,38,39
 62.0996 171 62.0996 171 62.0996 308 c 0,40,41
 62.0996 360 62.0996 360 72.9004 420 c 0,42,43
 98.0996 563 98.0996 563 189 662 c 128,-1,44
 279.9 761 279.9 761 417.6 795 c 1,45,46
 295.2 830 295.2 830 255.6 916 c 0,47,48
 236.7 959 236.7 959 236.7 1025 c 0,49,50
 236.7 1073 236.7 1073 246.6 1133 c 0,51,52
 265.5 1239 265.5 1239 337.5 1327 c 9,53,-1
 477 1295 l 17,54,55
 426.6 1230 426.6 1230 406.8 1114 c 0,56,57
 401.4 1082 401.4 1082 401.4 1055 c 0,58,59
 401.4 980 401.4 980 440.1 933 c 0,60,61
 494.1 868 494.1 868 612 868 c 0,62,63
 729 868 729 868 805.5 933 c 0,64,65
 883.8 998 883.8 998 904.5 1114 c 0,66,67
 912.6 1164 912.6 1164 912.6 1204 c 0,68,69
 912.6 1259 912.6 1259 896.4 1295 c 9,70,-1
 1051.2 1327 l 17,19,20
EndSplineSet
EndChar
StartChar: uni0224
Encoding: 548 548 548
Width: 1262
Flags: W
TeX: 117 0 0 0
Fore
1082.7 -20 m 2,0,1
 1032.3 -309 1032.3 -309 876.6 -389 c 0,2,3
 805.5 -426 805.5 -426 702 -426 c 2,4,-1
 473.4 -426 l 1,5,-1
 501.3 -270 l 1,6,-1
 711 -270 l 2,7,8
 805.5 -270 805.5 -270 847.8 -222 c 0,9,10
 891 -173 891 -173 917.1 -20 c 2,11,-1
 920.7 0 l 1,12,-1
 -10.7998 0 l 1,13,-1
 16.2002 154 l 1,14,-1
 1070.1 1323 l 1,15,-1
 241.2 1323 l 1,16,-1
 271.8 1493 l 1,17,-1
 1327.5 1493 l 1,18,-1
 1300.5 1339 l 1,19,-1
 245.7 170 l 1,20,-1
 1116 170 l 1,21,-1
 1082.7 -20 l 2,0,1
EndSplineSet
EndChar
StartChar: uni0225
Encoding: 549 549 549
Width: 967
Flags: W
TeX: 117 0 0 0
Fore
824.4 -20 m 2,0,1
 774 -309 774 -309 617.4 -389 c 0,2,3
 546.3 -426 546.3 -426 443.7 -426 c 2,4,-1
 215.1 -426 l 1,5,-1
 242.1 -270 l 1,6,-1
 451.8 -270 l 2,7,8
 546.3 -270 546.3 -270 588.6 -222 c 0,9,10
 631.8 -173 631.8 -173 658.8 -20 c 2,11,-1
 662.4 0 l 1,12,-1
 18.9004 0 l 1,13,-1
 47.7002 168 l 1,14,-1
 811.8 973 l 1,15,-1
 211.5 973 l 1,16,-1
 236.7 1120 l 1,17,-1
 1023.3 1120 l 1,18,-1
 994.5 952 l 1,19,-1
 230.4 147 l 1,20,-1
 853.2 147 l 1,21,-1
 824.4 -20 l 2,0,1
EndSplineSet
EndChar
StartChar: uni0234
Encoding: 564 564 564
Width: 874
Flags: W
TeX: 117 0 0 0
AnchorPoint: "above" 385.778 1514 basechar 0
AnchorPoint: "below" 119.866 -6 basechar 0
Fore
315.9 130 m 9,0,1
 330.3 125 330.3 125 363.6 125 c 0,2,3
 507.6 125 507.6 125 538.2 300 c 0,4,5
 545.4 345 545.4 345 499.5 346 c 0,6,7
 452.7 346 452.7 346 315.9 130 c 9,0,1
264.6 314 m 1,8,9
 396 498 396 498 518.4 498 c 0,10,11
 738 498 738 498 702 292 c 0,12,13
 646.2 -29 646.2 -29 338.4 -29 c 0,14,15
 272.7 -29 272.7 -29 227.7 -14 c 1,16,17
 184.5 -86 184.5 -86 152.1 -144 c 1,18,-1
 -24.2998 -144 l 1,19,20
 14.4004 -75 14.4004 -75 99.9004 72 c 1,21,22
 66.5996 132 66.5996 132 83.7002 222 c 2,23,-1
 315.9 1550 l 1,24,-1
 481.5 1550 l 1,25,-1
 264.6 314 l 1,8,9
EndSplineSet
EndChar
StartChar: uni0235
Encoding: 565 565 565
Width: 1553
Flags: W
TeX: 117 0 0 0
AnchorPoint: "above" 697.025 1147 basechar 0
AnchorPoint: "below" 522.467 0 basechar 0
Fore
1029.6 130 m 9,0,1
 1044 125 1044 125 1077.3 125 c 0,2,3
 1221.3 125 1221.3 125 1251.9 300 c 0,4,5
 1260 345 1260 345 1213.2 346 c 0,6,7
 1166.4 346 1166.4 346 1029.6 130 c 9,0,1
979.2 314 m 1,8,9
 1109.7 498 1109.7 498 1232.1 498 c 0,10,11
 1451.7 498 1451.7 498 1415.7 292 c 0,12,13
 1359.9 -29 1359.9 -29 1052.1 -29 c 0,14,15
 986.4 -29 986.4 -29 941.4 -14 c 1,16,17
 898.2 -86 898.2 -86 866.7 -144 c 1,18,-1
 690.3 -144 l 1,19,20
 728.1 -75 728.1 -75 814.5 72 c 1,21,22
 780.3 132 780.3 132 797.4 222 c 1,23,-1
 875.7 670 l 1,24,25
 903.6 829 903.6 829 861.3 908 c 128,-1,26
 819 987 819 987 707.4 987 c 0,27,28
 573.3 987 573.3 987 479.7 892 c 0,29,30
 385.2 797 385.2 797 357.3 633 c 2,31,-1
 246.6 0 l 1,32,-1
 80.0996 0 l 1,33,-1
 275.4 1120 l 1,34,-1
 441.9 1120 l 1,35,-1
 411.3 946 l 1,36,37
 488.7 1047 488.7 1047 577.8 1097 c 128,-1,38
 666.9 1147 666.9 1147 772.2 1147 c 0,39,40
 945.9 1147 945.9 1147 1014.3 1028 c 0,41,42
 1082.7 908 1082.7 908 1042.2 676 c 2,43,-1
 979.2 314 l 1,8,9
EndSplineSet
EndChar
StartChar: uni0236
Encoding: 566 566 566
Width: 879
Flags: W
TeX: 117 0 0 0
AnchorPoint: "above" 406.524 1520 basechar 0
AnchorPoint: "below" 336.812 0 basechar 0
Fore
330.3 130 m 9,0,1
 344.7 125 344.7 125 378 125 c 0,2,3
 522 125 522 125 552.6 300 c 0,4,5
 559.8 345 559.8 345 513 346 c 0,6,7
 466.2 346 466.2 346 330.3 130 c 9,0,1
279 314 m 17,8,9
 410.4 498 410.4 498 532.8 498 c 0,10,11
 752.4 498 752.4 498 716.4 292 c 0,12,13
 660.6 -29 660.6 -29 352.8 -29 c 0,14,15
 287.1 -29 287.1 -29 241.2 -14 c 1,16,17
 198.9 -86 198.9 -86 166.5 -144 c 1,18,-1
 -9.90039 -144 l 1,19,20
 28.7998 -75 28.7998 -75 114.3 72 c 1,21,22
 81 132 81 132 96.2998 222 c 1,23,-1
 228.6 977 l 1,24,-1
 107.1 977 l 1,25,-1
 132.3 1120 l 1,26,-1
 253.8 1120 l 1,27,-1
 309.6 1438 l 1,28,-1
 476.1 1438 l 1,29,-1
 420.3 1120 l 1,30,-1
 761.4 1120 l 1,31,-1
 736.2 977 l 1,32,-1
 395.1 977 l 1,33,-1
 279 314 l 17,8,9
EndSplineSet
EndChar
StartChar: dotlessj
Encoding: 567 567 567
Width: 512
Flags: W
AnchorPoint: "above" 341.1 1147 basechar 0
Fore
267.3 1120 m 1,0,-1
 432.9 1120 l 1,1,-1
 234 -20 l 1,2,-1
 233.1 -25 l 2,3,4
 199.8 -216 199.8 -216 156.6 -287 c 0,5,6
 116.1 -354 116.1 -354 38.25 -390 c 128,-1,7
 -39.5996 -426 -39.5996 -426 -145.8 -426 c 2,8,-1
 -207.9 -426 l 1,9,-1
 -180.9 -270 l 1,10,-1
 -138.6 -270 l 2,11,12
 -41.4004 -270 -41.4004 -270 -0.450195 -225 c 128,-1,13
 40.5 -180 40.5 -180 68.4004 -20 c 2,14,-1
 267.3 1120 l 1,0,-1
EndSplineSet
EndChar
StartChar: uni0238
Encoding: 568 568 568
Width: 1839
Flags: W
TeX: 117 0 0 0
Fore
236.7 559 m 0,0,1
 201.6 356 201.6 356 256.5 240 c 0,2,3
 311.4 125 311.4 125 442.8 125 c 0,4,5
 574.2 125 574.2 125 669.6 240 c 0,6,7
 765.9 356 765.9 356 801 559 c 0,8,9
 837 762 837 762 781.2 878 c 0,10,11
 726.3 993 726.3 993 594.9 993 c 0,12,13
 463.5 993 463.5 993 368.1 878 c 0,14,15
 272.7 762 272.7 762 236.7 559 c 0,0,1
1035.9 950 m 1,16,17
 1106.1 1050 1106.1 1050 1194.3 1098 c 0,18,19
 1282.5 1147 1282.5 1147 1393.2 1147 c 0,20,21
 1576.8 1147 1576.8 1147 1663.2 985 c 0,22,23
 1749.6 823 1749.6 823 1702.8 559 c 0,24,25
 1656.9 295 1656.9 295 1513.8 133 c 0,26,27
 1370.7 -29 1370.7 -29 1187.1 -29 c 0,28,29
 1076.4 -29 1076.4 -29 1005.3 20 c 0,30,31
 934.2 68 934.2 68 899.1 168 c 1,32,-1
 870.3 0 l 1,33,-1
 869.4 0 l 1,34,-1
 703.8 0 l 1,35,-1
 732.6 168 l 1,36,37
 663.3 68 663.3 68 575.1 20 c 0,38,39
 486.9 -29 486.9 -29 375.3 -29 c 0,40,41
 192.6 -29 192.6 -29 106.2 133 c 0,42,43
 19.7998 295 19.7998 295 65.7002 559 c 0,44,45
 112.5 823 112.5 823 255.6 985 c 0,46,47
 398.7 1147 398.7 1147 581.4 1147 c 0,48,49
 693 1147 693 1147 764.1 1098 c 0,50,51
 835.2 1050 835.2 1050 869.4 950 c 1,52,-1
 975.6 1556 l 1,53,-1
 1141.2 1556 l 1,54,-1
 1142.1 1556 l 1,55,-1
 1035.9 950 l 1,16,17
1530.9 559 m 0,56,57
 1566.9 762 1566.9 762 1512 878 c 0,58,59
 1457.1 993 1457.1 993 1325.7 993 c 0,60,61
 1194.3 993 1194.3 993 1098.9 878 c 0,62,63
 1003.5 762 1003.5 762 967.5 559 c 0,64,65
 932.4 356 932.4 356 987.3 240 c 0,66,67
 1042.2 125 1042.2 125 1173.6 125 c 0,68,69
 1305 125 1305 125 1400.4 240 c 0,70,71
 1495.8 356 1495.8 356 1530.9 559 c 0,56,57
EndSplineSet
EndChar
StartChar: uni0239
Encoding: 569 569 569
Width: 1839
Flags: W
TeX: 117 0 0 0
Fore
1602 559 m 0,0,1
 1637.1 762 1637.1 762 1582.2 878 c 0,2,3
 1527.3 993 1527.3 993 1395.9 993 c 0,4,5
 1264.5 993 1264.5 993 1169.1 878 c 0,6,7
 1073.7 762 1073.7 762 1038.6 559 c 0,8,9
 1002.6 356 1002.6 356 1057.5 240 c 0,10,11
 1112.4 125 1112.4 125 1243.8 125 c 0,12,13
 1375.2 125 1375.2 125 1470.6 240 c 0,14,15
 1566 356 1566 356 1602 559 c 0,0,1
970.2 168 m 1,16,-1
 865.8 -426 l 1,17,-1
 864.9 -426 l 1,18,-1
 699.3 -426 l 1,19,-1
 803.7 168 l 1,20,21
 733.5 68 733.5 68 645.3 20 c 0,22,23
 557.1 -29 557.1 -29 445.5 -29 c 0,24,25
 262.8 -29 262.8 -29 176.4 133 c 0,26,27
 90 295 90 295 136.8 559 c 0,28,29
 182.7 823 182.7 823 325.8 985 c 0,30,31
 468.9 1147 468.9 1147 651.6 1147 c 0,32,33
 763.2 1147 763.2 1147 834.3 1098 c 0,34,35
 905.4 1050 905.4 1050 940.5 950 c 1,36,-1
 970.2 1120 l 1,37,-1
 1135.8 1120 l 1,38,-1
 1136.7 1120 l 1,39,-1
 1107 950 l 1,40,41
 1176.3 1050 1176.3 1050 1264.5 1098 c 0,42,43
 1352.7 1147 1352.7 1147 1463.4 1147 c 0,44,45
 1647 1147 1647 1147 1733.4 985 c 0,46,47
 1819.8 823 1819.8 823 1773.9 559 c 0,48,49
 1727.1 295 1727.1 295 1584 133 c 0,50,51
 1440.9 -29 1440.9 -29 1257.3 -29 c 0,52,53
 1146.6 -29 1146.6 -29 1075.5 20 c 0,54,55
 1004.4 68 1004.4 68 970.2 168 c 1,16,-1
307.8 559 m 0,56,57
 271.8 356 271.8 356 326.7 240 c 0,58,59
 381.6 125 381.6 125 513 125 c 0,60,61
 644.4 125 644.4 125 740.7 240 c 0,62,63
 836.1 356 836.1 356 872.1 559 c 0,64,65
 907.2 762 907.2 762 851.4 878 c 0,66,67
 796.5 993 796.5 993 665.1 993 c 0,68,69
 533.7 993 533.7 993 438.3 878 c 0,70,71
 342.9 762 342.9 762 307.8 559 c 0,56,57
EndSplineSet
EndChar
StartChar: uni023A
Encoding: 570 570 570
Width: 1260
Flags: W
TeX: 117 0 0 0
Fore
657.9 1493 m 1,0,-1
 864 1493 l 1,1,-1
 923.4 1142 l 1,2,-1
 1314 1559 l 1,3,-1
 1390.5 1470 l 1,4,-1
 947.7 997 l 1,5,-1
 1115.1 0 l 1,6,-1
 926.1 0 l 1,7,-1
 871.2 383 l 1,8,-1
 371.7 383 l 1,9,-1
 145.8 142 l 1,10,-1
 75.5996 0 l 1,11,-1
 13.5 0 l 1,12,-1
 -52.2002 -70 l 1,13,-1
 -114.3 0 l 1,14,-1
 -116.1 0 l 1,15,-1
 -115.2 1 l 1,16,-1
 -129.6 18 l 1,17,-1
 -77.4004 74 l 1,18,-1
 657.9 1493 l 1,0,-1
726.3 1294 m 1,19,-1
 349.2 551 l 1,20,-1
 369.9 551 l 1,21,-1
 774.9 984 l 1,22,-1
 726.3 1294 l 1,19,-1
529.2 551 m 1,23,-1
 843.3 551 l 1,24,-1
 798.3 838 l 1,25,-1
 529.2 551 l 1,23,-1
EndSplineSet
EndChar
StartChar: uni023B
Encoding: 571 571 571
Width: 1287
Flags: W
TeX: 117 0 0 0
Fore
-39.5996 -70 m 1,0,-1
 -117 18 l 1,1,-1
 127.8 279 l 1,2,3
 54.9004 466 54.9004 466 103.5 745 c 0,4,5
 166.5 1105 166.5 1105 378 1312 c 0,6,7
 590.4 1520 590.4 1520 895.5 1520 c 0,8,9
 1016.1 1520 1016.1 1520 1116 1484 c 0,10,11
 1168.2 1466 1168.2 1466 1214.1 1439 c 1,12,-1
 1327.5 1559 l 1,13,-1
 1404 1470 l 1,14,-1
 1293.3 1352 l 1,15,-1
 1260.9 1165 l 1,16,17
 1226.7 1208 1226.7 1208 1188.9 1241 c 1,18,-1
 324.9 319 l 1,19,20
 331.2 306 331.2 306 338.4 294 c 0,21,22
 433.8 137 433.8 137 664.2 137 c 0,23,24
 781.2 137 781.2 137 893.7 184 c 0,25,26
 1005.3 231 1005.3 231 1114.2 326 c 1,27,-1
 1077.3 115 l 1,28,29
 969.3 43 969.3 43 855.9 7 c 0,30,31
 743.4 -29 743.4 -29 624.6 -29 c 0,32,33
 324.9 -29 324.9 -29 185.4 170 c 1,34,-1
 -39.5996 -70 l 1,0,-1
285.3 447 m 1,35,-1
 1090.8 1307 l 1,36,-1
 1089.9 1307 l 2,37,38
 993.6 1354 993.6 1354 876.6 1354 c 0,39,40
 646.2 1354 646.2 1354 496.8 1198 c 0,41,42
 347.4 1041 347.4 1041 295.2 745 c 0,43,44
 265.5 572 265.5 572 285.3 447 c 1,35,-1
EndSplineSet
EndChar
StartChar: uni023C
Encoding: 572 572 572
Width: 1013
Flags: W
TeX: 117 0 0 0
Fore
-19.7998 -94 m 1,0,-1
 -92.7002 -16 l 1,1,-1
 117.9 214 l 1,2,3
 65.7002 355 65.7002 355 101.7 559 c 0,4,5
 149.4 833 149.4 833 312.3 990 c 0,6,7
 475.2 1147 475.2 1147 711 1147 c 0,8,9
 787.5 1147 787.5 1147 857.7 1130 c 0,10,11
 897.3 1120 897.3 1120 935.1 1104 c 1,12,-1
 1034.1 1212 l 1,13,-1
 1106.1 1133 l 1,14,-1
 974.7 990 l 1,15,-1
 959.4 905 l 1,16,17
 939.6 919 939.6 919 919.8 930 c 1,18,-1
 301.5 256 l 1,19,20
 305.1 248 305.1 248 309.6 240 c 0,21,22
 378.9 127 378.9 127 540 127 c 0,23,24
 612 127 612 127 686.7 148 c 0,25,26
 760.5 170 760.5 170 838.8 213 c 1,27,-1
 809.1 43 l 1,28,29
 733.5 7 733.5 7 656.1 -11 c 0,30,31
 578.7 -29 578.7 -29 495 -29 c 0,32,33
 278.1 -29 278.1 -29 171.9 115 c 1,34,-1
 -19.7998 -94 l 1,0,-1
266.4 376 m 1,35,-1
 815.4 974 l 1,36,37
 755.1 991 755.1 991 691.2 991 c 0,38,39
 530.1 991 530.1 991 421.2 878 c 0,40,41
 312.3 764 312.3 764 276.3 559 c 0,42,43
 258.3 456 258.3 456 266.4 376 c 1,35,-1
EndSplineSet
EndChar
StartChar: uni023D
Encoding: 573 573 573
Width: 1026
Flags: W
TeX: 117 0 0 0
Fore
311.4 1493 m 1,0,-1
 493.2 1493 l 1,1,-1
 379.8 844 l 1,2,-1
 551.7 844 l 1,3,-1
 526.5 700 l 1,4,-1
 354.6 700 l 1,5,-1
 261.9 170 l 1,6,-1
 916.2 170 l 1,7,-1
 886.5 0 l 1,8,-1
 50.4004 0 l 1,9,-1
 172.8 700 l 1,10,-1
 0.900391 700 l 1,11,-1
 26.0996 844 l 1,12,-1
 198 844 l 1,13,-1
 311.4 1493 l 1,0,-1
EndSplineSet
EndChar
StartChar: uni023E
Encoding: 574 574 574
Width: 1125
Flags: W
TeX: 117 0 0 0
Fore
106.2 1385 m 1,0,-1
 56.7002 1470 l 1,1,-1
 163.8 1559 l 1,2,-1
 202.5 1493 l 1,3,-1
 1261.8 1493 l 1,4,-1
 1232.1 1323 l 1,5,-1
 755.1 1323 l 1,6,-1
 651.6 729 l 1,7,-1
 1069.2 18 l 1,8,-1
 961.2 -70 l 1,9,-1
 614.7 519 l 1,10,-1
 523.8 0 l 1,11,-1
 341.1 0 l 1,12,-1
 474.3 759 l 1,13,-1
 143.1 1323 l 1,14,-1
 95.4004 1323 l 1,15,-1
 106.2 1385 l 1,0,-1
511.2 969 m 1,16,-1
 572.4 1323 l 1,17,-1
 302.4 1323 l 1,18,-1
 511.2 969 l 1,16,-1
EndSplineSet
EndChar
StartChar: uni023F
Encoding: 575 575 575
Width: 960
Flags: W
TeX: 117 0 0 0
Fore
949.5 1087 m 1,0,-1
 918.9 913 l 1,1,2
 855.9 953 855.9 953 783.9 973 c 0,3,4
 711.9 993 711.9 993 630.9 993 c 0,5,6
 507.6 993 507.6 993 438.3 951 c 0,7,8
 369 909 369 909 354.6 825 c 0,9,10
 343.8 761 343.8 761 381.6 724 c 0,11,12
 418.5 688 418.5 688 546.3 655 c 2,13,-1
 600.3 641 l 2,14,15
 771.3 597 771.3 597 830.7 522 c 0,16,17
 891 446 891 446 867.6 309 c 0,18,19
 839.7 153 839.7 153 712.8 62 c 0,20,21
 623.7 -2 623.7 -2 502.2 -21 c 1,22,-1
 617.4 -180 l 1,23,-1
 727.2 -306 l 2,24,25
 758.7 -342 758.7 -342 827.1 -342 c 1,26,-1
 800.1 -496 l 1,27,-1
 765 -496 l 2,28,29
 689.4 -496 689.4 -496 597.6 -435 c 0,30,31
 540 -397 540 -397 476.1 -306 c 2,32,-1
 305.1 -63 l 2,33,34
 284.4 -33 284.4 -33 254.7 -17 c 0,35,36
 240.3 -14 240.3 -14 225.9 -12 c 0,37,38
 141.3 6 141.3 6 50.4004 41 c 1,39,-1
 83.7002 231 l 1,40,41
 159.3 182 159.3 182 236.7 156 c 0,42,43
 323.1 154 323.1 154 375.3 127 c 1,44,45
 398.7 125 398.7 125 422.1 125 c 0,46,47
 539.1 125 539.1 125 610.2 170 c 0,48,49
 680.4 214 680.4 214 694.8 295 c 0,50,51
 708.3 370 708.3 370 669.6 410 c 0,52,53
 630.9 450 630.9 450 483.3 487 c 2,54,-1
 428.4 502 l 2,55,56
 280.8 538 280.8 538 225.9 612 c 0,57,58
 170.1 687 170.1 687 193.5 817 c 0,59,60
 220.5 975 220.5 975 336.6 1061 c 0,61,62
 452.7 1147 452.7 1147 638.1 1147 c 0,63,64
 729.9 1147 729.9 1147 808.2 1132 c 0,65,66
 886.5 1117 886.5 1117 949.5 1087 c 1,0,-1
EndSplineSet
EndChar
StartChar: uni0240
Encoding: 576 576 576
Width: 967
Flags: W
TeX: 117 0 0 0
Fore
243 1120 m 1,0,-1
 1029.6 1120 l 1,1,-1
 999.9 952 l 1,2,-1
 238.5 149 l 1,3,4
 318.6 133 318.6 133 354.6 84 c 2,5,-1
 545.4 -180 l 1,6,-1
 656.1 -306 l 2,7,8
 687.6 -342 687.6 -342 756 -342 c 2,9,-1
 853.2 -342 l 1,10,-1
 826.2 -496 l 1,11,-1
 693.9 -496 l 2,12,13
 618.3 -496 618.3 -496 526.5 -435 c 0,14,15
 468.9 -397 468.9 -397 405 -306 c 2,16,-1
 234 -63 l 2,17,18
 189.9 0 189.9 0 108.9 0 c 0,19,-1
 24.2998 0 l 1,20,-1
 52.2002 156 l 1,21,-1
 54 168 l 1,22,-1
 817.2 973 l 1,23,-1
 216.9 973 l 1,24,-1
 243 1120 l 1,0,-1
EndSplineSet
EndChar
